<svg width="24" height="24" viewBox="0 0 24 24" fill="none" xmlns="http://www.w3.org/2000/svg">
<path d="M3 5.88904H5H21" stroke="#191822" stroke-width="1.5" stroke-linecap="round" stroke-linejoin="round"/>
<path d="M19.0004 5.88892V19.8889C19.0004 20.4193 18.7897 20.9281 18.4146 21.3031C18.0395 21.6782 17.5308 21.8889 17.0004 21.8889H7.00037C6.46993 21.8889 5.96123 21.6782 5.58615 21.3031C5.21108 20.9281 5.00037 20.4193 5.00037 19.8889V5.88892M8.00037 5.88892V3.88892C8.00037 3.35848 8.21108 2.84977 8.58615 2.4747C8.96123 2.09963 9.46993 1.88892 10.0004 1.88892H14.0004C14.5308 1.88892 15.0395 2.09963 15.4146 2.4747C15.7897 2.84977 16.0004 3.35848 16.0004 3.88892V5.88892" stroke="#191822" stroke-width="1.5" stroke-linecap="round" stroke-linejoin="round"/>
<path d="M9.99963 10.8889V16.8889" stroke="#191822" stroke-width="1.5" stroke-linecap="round" stroke-linejoin="round"/>
<path d="M14.0004 10.8889V16.8889" stroke="#191822" stroke-width="1.5" stroke-linecap="round" stroke-linejoin="round"/>
</svg>
