<svg width="19" height="19" viewBox="0 0 19 19" fill="none" xmlns="http://www.w3.org/2000/svg">
<path d="M9.25 0.25C9.67605 0.25 10.0214 0.59538 10.0214 1.02143V8.47857H17.4786C17.9046 8.47857 18.25 8.82395 18.25 9.25C18.25 9.67605 17.9046 10.0214 17.4786 10.0214H10.0214V17.4786C10.0214 17.9046 9.67605 18.25 9.25 18.25C8.82395 18.25 8.47857 17.9046 8.47857 17.4786V10.0214H1.02143C0.59538 10.0214 0.25 9.67605 0.25 9.25C0.25 8.82395 0.59538 8.47857 1.02143 8.47857H8.47857V1.02143C8.47857 0.59538 8.82395 0.25 9.25 0.25Z" fill="#151720"/>
</svg>
