<svg width="32" height="34" viewBox="0 0 32 34" fill="none" xmlns="http://www.w3.org/2000/svg">
<path opacity="0.4" d="M17.5994 3.94995H14.3994C8.36539 3.94995 5.3484 3.94995 3.47389 5.82446C1.96494 7.33341 1.67067 9.58264 1.61328 13.55H30.3855C30.328 9.58264 30.0338 7.33341 28.5248 5.82446C26.6503 3.94995 23.6333 3.94995 17.5994 3.94995Z" fill="#3560FB"/>
<path d="M22.3996 0.75V7.15M9.59961 0.75V7.15" stroke="#3560FB" stroke-width="1.5" stroke-linecap="round" stroke-linejoin="round"/>
<path d="M17.5996 3.94995H14.3996C8.36562 3.94995 5.34865 3.94995 3.47412 5.82446C1.59961 7.69899 1.59961 10.716 1.59961 16.75V19.95C1.59961 25.9839 1.59961 29.001 3.47412 30.8754C5.34865 32.7499 8.36562 32.7499 14.3996 32.7499H17.5996C23.6335 32.7499 26.6506 32.7499 28.525 30.8754C30.3996 29.001 30.3996 25.9839 30.3996 19.95V16.75C30.3996 10.716 30.3996 7.69899 28.525 5.82446C26.6506 3.94995 23.6335 3.94995 17.5996 3.94995Z" stroke="#3560FB" stroke-width="1.5" stroke-linecap="round" stroke-linejoin="round"/>
<path d="M1.59961 13.55H30.3996" stroke="#3560FB" stroke-width="1.5" stroke-linecap="round" stroke-linejoin="round"/>
<path d="M16 18.35V27.95M20.8 23.15H11.2" stroke="#3560FB" stroke-width="1.5" stroke-linecap="round" stroke-linejoin="round"/>
</svg>
