<svg width="19" height="19" viewBox="0 0 19 19" fill="none" xmlns="http://www.w3.org/2000/svg">
<path fill-rule="evenodd" clip-rule="evenodd" d="M7.34747 0.250001C7.69416 0.250121 7.97538 0.531198 7.97538 0.877906C7.97538 1.22461 7.69416 1.50569 7.34747 1.50581C5.96882 1.50581 4.9828 1.50662 4.22184 1.58594C3.47113 1.66421 3.01435 1.81329 2.66515 2.05932C2.44169 2.21679 2.24435 2.40244 2.07894 2.61037C1.82542 2.92911 1.67168 3.34386 1.59003 4.03787C1.50667 4.74657 1.50581 5.66671 1.50581 6.96647V9.26061C1.51154 10.4501 2.47753 11.4124 3.66833 11.4125C3.79151 11.4125 3.92435 11.4071 4.07304 11.4002C4.21728 11.3935 4.37896 11.3856 4.53988 11.3822C4.85795 11.3757 5.22896 11.386 5.58721 11.482C6.28542 11.6691 6.8309 12.2146 7.01799 12.9128C7.11393 13.271 7.12433 13.642 7.11773 13.9601C7.11439 14.121 7.10644 14.2827 7.09975 14.4269C7.09285 14.5756 7.08748 14.7085 7.08748 14.8316C7.08763 16.0082 8.02706 16.9626 9.19686 16.9909C9.42965 16.9913 9.67537 16.9942 9.93514 16.9942C11.494 16.9942 12.1125 16.985 12.5874 16.8184C13.3919 16.536 14.0126 15.9439 14.3027 15.2118C14.3807 15.0148 14.4296 14.7691 14.4556 14.3754C14.4819 13.9757 14.4826 13.468 14.4826 12.7509V12.1802C14.4826 11.8334 14.7637 11.5523 15.1105 11.5523C15.4572 11.5523 15.7384 11.8334 15.7384 12.1802V12.7509C15.7384 13.4514 15.7387 14.0074 15.7089 14.458C15.6789 14.914 15.6163 15.3057 15.4702 15.6746C15.039 16.7626 14.133 17.6066 13.0035 18.0031C12.2756 18.2586 11.3881 18.25 9.93514 18.25C9.71038 18.25 9.49418 18.2477 9.28597 18.2475C9.27404 18.2482 9.2621 18.25 9.25 18.25C9.21827 18.25 9.18668 18.2484 9.15516 18.2475C7.04924 18.245 5.77539 18.2155 4.72057 17.8453C2.8659 17.1942 1.38827 15.8116 0.686592 14.041C0.456236 13.4598 0.351814 12.8286 0.300691 12.0535C0.24996 11.2841 0.25 8.19835 0.25 6.96647C0.25 5.69692 0.249181 4.68981 0.343205 3.89071C0.43898 3.07688 0.640053 2.40226 1.0962 1.82876C1.33737 1.52558 1.62281 1.2576 1.94241 1.03243C2.54109 0.610719 3.24083 0.425378 4.09184 0.336665C4.93305 0.248988 5.99581 0.250001 7.34747 0.250001ZM1.55323 11.9709C1.60026 12.6838 1.69188 13.1689 1.85411 13.5783C2.41474 14.993 3.60702 16.1228 5.13672 16.6598C5.52897 16.7975 5.96764 16.8753 6.54706 16.923C6.09908 16.3449 5.83173 15.6197 5.83167 14.8316C5.83167 14.6761 5.83787 14.5171 5.84475 14.3689C5.85183 14.2162 5.859 14.0747 5.86192 13.9339C5.86782 13.6489 5.85465 13.4208 5.80551 13.2373C5.73454 12.9725 5.52746 12.7654 5.26263 12.6945C5.07921 12.6453 4.85106 12.6322 4.56604 12.6381C4.42531 12.641 4.28372 12.6481 4.13109 12.6552C3.98286 12.6621 3.82385 12.6683 3.66833 12.6683C2.86837 12.6682 2.13313 12.3928 1.55078 11.9325C1.55159 11.9453 1.55239 11.9582 1.55323 11.9709Z" fill="#151720"/>
<path fill-rule="evenodd" clip-rule="evenodd" d="M14.9012 3.2162C15.228 3.10064 15.5867 3.27205 15.7024 3.59883C15.818 3.92564 15.6466 4.28433 15.3198 4.40007C15.1325 4.46647 14.8975 4.61697 14.633 4.84892C14.3749 5.07524 14.1215 5.35033 13.8939 5.62317C13.6674 5.89464 13.4742 6.15527 13.3379 6.34837C13.27 6.44455 13.2169 6.52341 13.181 6.5773C13.163 6.60419 13.1497 6.62509 13.1409 6.63861C13.1365 6.64534 13.133 6.65027 13.1311 6.65333C13.1301 6.65479 13.1286 6.6566 13.1286 6.6566C13.0073 6.84744 12.7928 6.95833 12.567 6.94684C12.3409 6.93527 12.1384 6.8026 12.0372 6.60019C11.8652 6.25633 11.7216 6.14071 11.675 6.10964C11.6711 6.10709 11.6689 6.10319 11.666 6.10146C11.3647 6.05528 11.1337 5.79672 11.1337 5.48255C11.1337 5.13577 11.4148 4.85464 11.7616 4.85464V5.35582C11.7617 4.85464 11.7633 4.85464 11.7633 4.85464H11.7829C11.7903 4.85488 11.7982 4.85574 11.8066 4.85628C11.8236 4.85738 11.8432 4.85925 11.8638 4.862C11.9051 4.86752 11.9529 4.87706 12.0061 4.89225C12.1137 4.92301 12.2385 4.97609 12.3715 5.06476C12.4449 5.11367 12.5185 5.17232 12.5923 5.24136C12.6934 5.10856 12.8067 4.96546 12.9291 4.81867C13.1816 4.51602 13.482 4.18922 13.8056 3.90543C14.1227 3.62733 14.4975 3.35916 14.9012 3.2162ZM11.7257 6.10964C11.731 6.10998 11.7369 6.11027 11.7428 6.11045H11.7608L11.7616 6.10964C11.7443 6.10964 11.7271 6.10857 11.7101 6.10718C11.715 6.10768 11.7201 6.10928 11.7257 6.10964Z" fill="#151720"/>
<path fill-rule="evenodd" clip-rule="evenodd" d="M13.436 0.250001C16.0947 0.250001 18.25 2.40528 18.25 5.06394C18.25 7.72261 16.0947 9.87789 13.436 9.87789C10.7774 9.87789 8.62209 7.72261 8.62209 5.06394C8.62209 2.40528 10.7774 0.250001 13.436 0.250001ZM13.436 1.50581C11.4709 1.50581 9.87791 3.09884 9.87791 5.06394C9.87791 7.02905 11.4709 8.62208 13.436 8.62208C15.4012 8.62208 16.9942 7.02905 16.9942 5.06394C16.9942 3.09884 15.4012 1.50581 13.436 1.50581Z" fill="#151720"/>
</svg>
