<svg width="19" height="19" viewBox="0 0 19 19" fill="none" xmlns="http://www.w3.org/2000/svg">
<path d="M10.0108 5.43329C10.2836 5.1654 10.7228 5.1695 10.9907 5.44231C11.2414 5.69809 11.2536 6.09925 11.0294 6.36899L10.9817 6.42127L10.8807 6.52224C10.8148 6.58856 10.7204 6.6851 10.6067 6.80349C10.3784 7.04104 10.0756 7.36466 9.77464 7.71304C9.47117 8.06435 9.18069 8.42719 8.97055 8.74429C8.86556 8.90275 8.78988 9.03621 8.74249 9.14093C8.71759 9.19601 8.70537 9.23183 8.70012 9.25C8.70534 9.2681 8.71744 9.30366 8.74249 9.35907C8.7899 9.46387 8.86542 9.59796 8.97055 9.75661C9.18069 10.0737 9.47126 10.4366 9.77464 10.7879C10.0755 11.1361 10.3785 11.4599 10.6067 11.6974C10.7204 11.8157 10.8149 11.9124 10.8807 11.9787L10.9817 12.0796C11.2541 12.3475 11.2584 12.7859 10.9907 13.0586C10.723 13.3312 10.2845 13.335 10.0117 13.0676L10.0027 13.0586C9.99756 13.0535 9.98953 13.0462 9.98017 13.037C9.96094 13.0179 9.93317 12.9893 9.89814 12.954C9.82781 12.8832 9.72736 12.7818 9.60787 12.6575C9.36897 12.4089 9.04824 12.0656 8.72626 11.6929C8.40677 11.323 8.07382 10.909 7.81671 10.521C7.68844 10.3275 7.56931 10.1261 7.48047 9.92969C7.40761 9.76852 7.33306 9.56443 7.3155 9.34555L7.3119 9.25L7.3155 9.15535C7.33296 8.93642 7.4076 8.73246 7.48047 8.57121C7.56934 8.37466 7.68835 8.17267 7.81671 7.97897C8.07378 7.59108 8.40681 7.17782 8.72626 6.80799C9.0483 6.43518 9.36891 6.0921 9.60787 5.84345C9.7276 5.71887 9.82772 5.61688 9.89814 5.54597L10.0027 5.44141C10.0052 5.43895 10.0076 5.43738 10.009 5.436C10.0097 5.43531 10.0104 5.43371 10.0108 5.43329Z" fill="#151720"/>
<path fill-rule="evenodd" clip-rule="evenodd" d="M9.25 0.25C14.2206 0.25 18.25 4.27944 18.25 9.25C18.25 14.2206 14.2206 18.25 9.25 18.25C4.27944 18.25 0.25 14.2206 0.25 9.25C0.25 4.27944 4.27944 0.25 9.25 0.25ZM9.25 1.63462C5.04414 1.63462 1.63462 5.04414 1.63462 9.25C1.63462 13.4559 5.04414 16.8654 9.25 16.8654C13.4559 16.8654 16.8654 13.4559 16.8654 9.25C16.8654 5.04414 13.4559 1.63462 9.25 1.63462Z" fill="#151720"/>
</svg>
