<svg width="19" height="19" viewBox="0 0 19 19" fill="none" xmlns="http://www.w3.org/2000/svg">
<path fill-rule="evenodd" clip-rule="evenodd" d="M9.25 0.25C10.6686 0.25 11.8663 1.19113 12.2555 2.48283C15.2674 3.64563 17.4128 6.511 17.4128 9.87872C17.4128 10.8092 17.2482 11.7038 16.9459 12.5351L16.8601 12.5032C17.6985 13.0669 18.25 14.0243 18.25 15.1105C18.25 16.8444 16.8444 18.25 15.1105 18.25C14.13 18.25 13.2547 17.8005 12.679 17.0964C11.6353 17.5677 10.4735 17.8314 9.25 17.8314C8.02622 17.8314 6.86401 17.5679 5.82022 17.0964C5.24448 17.8002 4.36979 18.25 3.38953 18.25C1.65562 18.25 0.25 16.8444 0.25 15.1105C0.25 14.058 0.768164 13.1268 1.56305 12.5571C1.25553 11.7197 1.08721 10.8179 1.08721 9.87872C1.08725 6.51127 3.23216 3.64581 6.24373 2.48283C6.63281 1.19102 7.83136 0.25 9.25 0.25ZM3.38953 13.2267C2.34918 13.2267 1.50581 14.0701 1.50581 15.1105C1.50581 16.1508 2.34918 16.9942 3.38953 16.9942C4.42989 16.9942 5.27326 16.1508 5.27326 15.1105C5.27326 14.0701 4.42988 13.2267 3.38953 13.2267ZM15.1105 13.2267C14.0701 13.2267 13.2267 14.0701 13.2267 15.1105C13.2267 16.1508 14.0701 16.9942 15.1105 16.9942C16.1508 16.9942 16.9942 16.1508 16.9942 15.1105C16.9942 14.0701 16.1508 13.2267 15.1105 13.2267ZM12.3487 3.89235C12.108 5.38718 10.8127 6.52907 9.25 6.52907C7.68723 6.52907 6.39117 5.38724 6.15053 3.89235C3.88563 4.99682 2.34306 7.2693 2.34302 9.87872C2.34302 10.6374 2.47415 11.3655 2.71339 12.0445C2.9312 11.9967 3.15736 11.9709 3.38953 11.9709C5.12345 11.9709 6.52907 13.3765 6.52907 15.1105C6.52907 15.413 6.48468 15.7052 6.4048 15.982C7.27162 16.3625 8.23434 16.5756 9.25 16.5756C10.2654 16.5756 11.2277 16.3623 12.0944 15.982C12.0145 15.7052 11.9709 15.413 11.9709 15.1105C11.9709 13.3765 13.3765 11.9709 15.1105 11.9709C15.3426 11.9709 15.5688 11.9967 15.7866 12.0445C16.0258 11.3657 16.157 10.6377 16.157 9.87872C16.1569 7.26904 14.6139 4.9967 12.3487 3.89235ZM9.25 1.50581C8.20965 1.50581 7.36628 2.34918 7.36628 3.38953C7.36628 4.42989 8.20965 5.27326 9.25 5.27326C10.2904 5.27326 11.1337 4.42989 11.1337 3.38953C11.1337 2.34918 10.2904 1.50581 9.25 1.50581Z" fill="#151720"/>
</svg>
