<svg width="40" height="40" viewBox="0 0 40 40" fill="none" xmlns="http://www.w3.org/2000/svg">
<rect width="40" height="40" rx="20" fill="#E0E3EC"/>
<path d="M23.1442 21.0996C24.9731 21.0997 26.7316 21.9345 27.7624 23.1904C28.2856 23.828 28.6532 24.6169 28.6852 25.4912C28.7179 26.384 28.3958 27.2552 27.7311 28.0156C26.1115 29.8685 23.5255 30.9999 19.8444 31C16.163 31 13.5765 29.8686 11.9567 28.0156C11.2921 27.2552 10.9699 26.384 11.0026 25.4912C11.0346 24.6169 11.4023 23.828 11.9255 23.1904C12.9562 21.9345 14.7148 21.0997 16.5436 21.0996H23.1442ZM19.8434 9C22.881 9 25.3434 11.4624 25.3434 14.5C25.3434 17.5376 22.881 20 19.8434 20C16.8061 19.9998 14.3434 17.5374 14.3434 14.5C14.3434 11.4626 16.8061 9.00022 19.8434 9Z" fill="#AEB3C7"/>
</svg>
