<svg width="18" height="19" viewBox="0 0 18 19" fill="none" xmlns="http://www.w3.org/2000/svg">
<path fill-rule="evenodd" clip-rule="evenodd" d="M12.2372 0.25C12.5983 0.25 12.891 0.531124 12.891 0.877907V1.92442H14.8526C16.1766 1.92442 17.2499 2.95525 17.25 4.22674V15.9477C17.2499 17.2192 16.1766 18.25 14.8526 18.25H2.64744C1.32341 18.25 0.250062 17.2192 0.25 15.9477V4.22674C0.250058 2.95525 1.32341 1.92442 2.64744 1.92442H4.60897V0.877907C4.60897 0.531124 4.90171 0.25 5.26282 0.25C5.62393 0.25 5.91667 0.531124 5.91667 0.877907V1.92442H11.5833V0.877907C11.5833 0.531124 11.8761 0.25 12.2372 0.25ZM1.55769 8.20349V15.9477C1.55775 16.5256 2.04562 16.9942 2.64744 16.9942H14.8526C15.4544 16.9942 15.9422 16.5256 15.9423 15.9477V8.20349H1.55769ZM2.64744 3.18023C2.04562 3.18023 1.55775 3.64883 1.55769 4.22674V6.94767H15.9423V4.22674C15.9423 3.64883 15.4544 3.18023 14.8526 3.18023H12.891V4.22674C12.891 4.57351 12.5983 4.85465 12.2372 4.85465C11.8761 4.85465 11.5833 4.57351 11.5833 4.22674V3.18023H5.91667V4.22674C5.91665 4.57351 5.62392 4.85465 5.26282 4.85465C4.90172 4.85465 4.60899 4.57351 4.60897 4.22674V3.18023H2.64744Z" fill="#151720"/>
</svg>
