<svg width="18" height="19" viewBox="0 0 18 19" fill="none" xmlns="http://www.w3.org/2000/svg">
<path fill-rule="evenodd" clip-rule="evenodd" d="M14.2256 0.25C14.5691 0.25 14.8476 0.531123 14.8476 0.877907V1.41016C15.5149 1.60128 16.0781 1.91103 16.5466 2.42233C17.1914 3.12629 17.4782 4.01568 17.6156 5.13018C17.7512 6.23161 17.75 7.64607 17.75 9.45358V9.88363C17.75 11.6911 17.7512 13.1056 17.6156 14.207C17.4782 15.3215 17.1914 16.2109 16.5466 16.9149C15.8952 17.6259 15.061 17.9489 14.0175 18.102C12.997 18.2518 11.6901 18.25 10.038 18.25H8.46203C6.80989 18.25 5.50295 18.2518 4.48252 18.102C3.43897 17.9489 2.60484 17.6259 1.95341 16.9149C1.30858 16.2109 1.02175 15.3215 0.884433 14.207C0.748754 13.1056 0.75 11.6911 0.75 9.88363V9.45358C0.75 7.64607 0.748754 6.23161 0.884433 5.13018C1.02175 4.01568 1.30858 3.12629 1.95341 2.42233C2.42187 1.91103 2.98507 1.60128 3.65244 1.41016V0.877907C3.65244 0.531124 3.9309 0.25 4.27439 0.25C4.61788 0.25 4.89634 0.531123 4.89634 0.877907V1.1845C5.84959 1.08636 7.02525 1.08721 8.46203 1.08721H10.038C11.4748 1.08721 12.6504 1.08636 13.6037 1.1845V0.877907C13.6037 0.531124 13.8821 0.25 14.2256 0.25ZM2.0263 6.52907C1.99457 7.33018 1.9939 8.28785 1.9939 9.45358V9.88363C1.9939 11.724 1.99472 13.0458 2.11862 14.0517C2.24086 15.0441 2.47374 15.6329 2.8669 16.0621C3.25375 16.4844 3.77447 16.7291 4.66149 16.8593C5.57176 16.9929 6.77197 16.9942 8.46203 16.9942H10.038C11.728 16.9942 12.9282 16.9929 13.8385 16.8593C14.7255 16.7291 15.2463 16.4844 15.6331 16.0621C16.0263 15.6329 16.2591 15.0441 16.3814 14.0517C16.5053 13.0458 16.5061 11.724 16.5061 9.88363V9.45358C16.5061 8.28785 16.5054 7.33018 16.4737 6.52907H2.0263ZM8.46203 2.34302C6.91337 2.34302 5.77619 2.34553 4.89634 2.44849V2.55233C4.89634 2.89911 4.61788 3.18023 4.27439 3.18023C3.99071 3.18023 3.75391 2.98776 3.67916 2.72565C3.3403 2.86159 3.08244 3.03983 2.8669 3.27507C2.47536 3.70249 2.24289 4.28829 2.12024 5.27326H16.3798C16.2571 4.28829 16.0246 3.70249 15.6331 3.27507C15.4174 3.03966 15.1592 2.86163 14.82 2.72565C14.7452 2.98765 14.5092 3.18023 14.2256 3.18023C13.8821 3.18023 13.6037 2.89911 13.6037 2.55233V2.44849C12.7238 2.34553 11.5866 2.34302 10.038 2.34302H8.46203Z" fill="#151720"/>
</svg>
