<svg width="20" height="20" viewBox="0 0 20 20" fill="none" xmlns="http://www.w3.org/2000/svg">
<rect width="20" height="20" rx="10" fill="#AA3945" fill-opacity="0.14"/>
<path d="M12.6265 5.95989C13.017 5.56953 13.65 5.56942 14.0405 5.95989C14.4308 6.35037 14.4308 6.98346 14.0405 7.37395L11.4136 9.99992L14.0405 12.6269C14.4306 13.0174 14.4309 13.6505 14.0405 14.0409C13.6501 14.4313 13.017 14.4311 12.6265 14.0409L9.9995 11.414L7.37352 14.0409C6.98303 14.4312 6.34991 14.4312 5.95946 14.0409C5.56902 13.6505 5.56918 13.0174 5.95946 12.6269L8.58543 9.99992L5.95946 7.37395C5.56893 6.98342 5.56893 6.35041 5.95946 5.95989C6.34998 5.56936 6.983 5.56936 7.37352 5.95989L9.9995 8.58586L12.6265 5.95989Z" fill="#AA3945"/>
</svg>
