<svg width="20" height="20" viewBox="0 0 20 20" fill="none" xmlns="http://www.w3.org/2000/svg">
<rect width="20" height="20" rx="10" fill="#F81414" fill-opacity="0.14"/>
<path d="M10 4.25C13.1756 4.25 15.75 6.82436 15.75 10C15.75 13.1756 13.1756 15.75 10 15.75C6.82436 15.75 4.25 13.1756 4.25 10C4.25 6.82436 6.82436 4.25 10 4.25ZM7.57227 13.4873C8.26064 13.9674 9.09709 14.25 10 14.25C12.3472 14.25 14.25 12.3472 14.25 10C14.25 9.09709 13.9674 8.26064 13.4873 7.57227L7.57227 13.4873ZM10 5.75C7.65279 5.75 5.75 7.65279 5.75 10C5.75 10.9024 6.03207 11.7386 6.51172 12.4268L12.4268 6.51172C11.7386 6.03207 10.9024 5.75 10 5.75Z" fill="#F81414"/>
</svg>
