<svg width="40" height="39" viewBox="0 0 40 39" fill="none" xmlns="http://www.w3.org/2000/svg">
<path d="M17.0854 35.2361C15.6647 35.7809 13.4096 33.3326 12.0578 29.774C10.7061 26.2154 10.7613 22.8844 12.1889 22.3464C13.6165 21.8085 15.8647 24.2499 17.2165 27.8085C18.5682 31.3671 18.513 34.6982 17.0854 35.2361Z" fill="#285680"/>
<path d="M17.0855 35.2361L9.34755 38.1809C5.78627 39.5331 1.80315 37.7422 0.451003 34.1809C-0.901143 30.6196 0.889718 26.6365 4.451 25.2844L12.1889 22.3464C10.7613 22.8844 10.7062 26.2085 12.0579 29.774C13.4096 33.3395 15.6648 35.7809 17.0855 35.2361Z" fill="#3B97D3"/>
<path d="M3.03304 33.8899C2.74657 33.8899 2.4899 33.7129 2.38821 33.4451C1.44166 30.9527 2.6946 28.165 5.18683 27.2182C5.41877 27.123 5.68407 27.1613 5.87972 27.318C6.07537 27.4747 6.17056 27.7253 6.12832 27.9724C6.08609 28.2195 5.91309 28.4243 5.67648 28.5071C3.89604 29.183 3.00061 31.1743 3.67648 32.9547C3.74169 33.1257 3.73625 33.3156 3.66135 33.4826C3.58645 33.6496 3.44825 33.78 3.27717 33.8451C3.19911 33.8744 3.11643 33.8896 3.03304 33.8899Z" fill="#9FC9D3"/>
<path d="M27.9475 29.774C26.5958 33.3326 24.3406 35.7809 22.9199 35.2361C21.4992 34.6912 21.4372 31.374 22.7889 27.8085C24.1406 24.243 26.3958 21.8016 27.8165 22.3464C29.2372 22.8912 29.2992 26.2085 27.9475 29.774Z" fill="#802F34"/>
<path d="M39.5544 34.1809C38.2008 37.7409 34.2191 39.5311 30.6579 38.1809L22.9199 35.2361C24.3406 35.7809 26.5958 33.3326 27.9475 29.774C29.2992 26.2154 29.2441 22.8844 27.8165 22.3464L35.5544 25.2844C39.1143 26.6379 40.9046 30.6197 39.5544 34.1809Z" fill="#FF5364"/>
<path d="M36.9724 33.8899C36.8885 33.8897 36.8054 33.8746 36.7269 33.8451C36.5558 33.78 36.4176 33.6496 36.3427 33.4826C36.2678 33.3156 36.2624 33.1257 36.3276 32.9547C37.0034 31.1743 36.108 29.183 34.3276 28.5071C34.091 28.4243 33.918 28.2195 33.8757 27.9724C33.8335 27.7253 33.9287 27.4747 34.1243 27.318C34.32 27.1613 34.5853 27.123 34.8172 27.2182C37.3094 28.165 38.5624 30.9527 37.6158 33.4451C37.5143 33.7124 37.2583 33.8893 36.9724 33.8899Z" fill="#FB7B76"/>
<path d="M13.7958 3.45677C13.6129 3.45673 13.4375 3.38404 13.3082 3.2547L11.2392 1.18573C10.9779 0.915129 10.9816 0.484987 11.2477 0.218963C11.5137 -0.0470601 11.9438 -0.0507979 12.2144 0.210562L14.2834 2.27953C14.4806 2.47677 14.5395 2.77335 14.4328 3.03101C14.3261 3.28868 14.0747 3.45671 13.7958 3.45677Z" fill="#33907C"/>
<path d="M26.2095 3.45677C25.9307 3.45671 25.6792 3.28868 25.5725 3.03101C25.4658 2.77334 25.5248 2.47676 25.722 2.27953L27.7909 0.210561C27.9641 0.0312803 28.2205 -0.0406204 28.4616 0.0224937C28.7027 0.0856078 28.8911 0.273915 28.9542 0.515038C29.0173 0.756162 28.9454 1.01258 28.7661 1.18573L26.6971 3.2547C26.5678 3.38404 26.3924 3.45673 26.2095 3.45677Z" fill="#33907C"/>
<path d="M8.27858 12.4223C8.22186 12.4222 8.16536 12.4152 8.1103 12.4016L5.35168 11.7119C4.98474 11.6172 4.76297 11.2442 4.85506 10.8766C4.94715 10.509 5.3186 10.2846 5.68685 10.374L8.44547 11.0637C8.78311 11.1483 9.00477 11.4712 8.96233 11.8167C8.91989 12.1622 8.62665 12.4219 8.27858 12.4223Z" fill="#33907C"/>
<path d="M31.7269 12.4223C31.3788 12.4219 31.0856 12.1622 31.0432 11.8167C31.0007 11.4712 31.2224 11.1483 31.56 11.0637L34.3186 10.374C34.6869 10.2846 35.0583 10.509 35.1504 10.8766C35.2425 11.2442 35.0207 11.6172 34.6538 11.7119L31.8952 12.4016C31.8401 12.4152 31.7836 12.4222 31.7269 12.4223Z" fill="#33907C"/>
<path d="M20.0028 24.1464C19.6219 24.1464 19.3131 23.8377 19.3131 23.4568V15.8706C19.3131 15.4897 19.6219 15.1809 20.0028 15.1809C20.3837 15.1809 20.6924 15.4897 20.6924 15.8706V23.4568C20.6924 23.8377 20.3837 24.1464 20.0028 24.1464Z" fill="#81CCB8"/>
<path d="M31.0372 15.8706C29.3631 14.9044 27.4518 14.4266 25.52 14.4913C24.9109 14.4895 24.3025 14.531 23.6993 14.6154C24.5174 14.1201 25.2724 13.5272 25.9476 12.8499C27.6199 11.2834 28.689 9.17938 28.9683 6.90506C26.6939 7.18434 24.5899 8.25343 23.0234 9.92575C22.5946 10.3513 22.2003 10.8102 21.8441 11.2982C21.9953 10.4165 22.0714 9.52368 22.0717 8.6292C22.0717 5.67058 21.2579 3.03609 20.0027 1.38782C18.7476 3.03609 17.9338 5.67058 17.9338 8.6292C17.9341 9.52368 18.0102 10.4165 18.1614 11.2982C17.8052 10.8102 17.4108 10.3513 16.9821 9.92575C15.4156 8.25343 13.3115 7.18434 11.0372 6.90506C11.3165 9.17938 12.3856 11.2834 14.0579 12.8499C14.7331 13.5272 15.4881 14.1201 16.3062 14.6154C15.703 14.531 15.0946 14.4895 14.4855 14.4913C12.5537 14.4266 10.6424 14.9044 8.96826 15.8706C10.6424 16.8368 12.5537 17.3146 14.4855 17.2499C15.3046 17.2508 16.122 17.1746 16.9269 17.0223C16.8234 17.1143 16.72 17.2108 16.6165 17.312C15.6927 18.1957 15.1717 19.4197 15.1752 20.6982C16.4566 20.7063 17.6844 20.1847 18.5683 19.2568C19.441 18.4149 19.9549 17.2685 20.0027 16.0568C20.0502 17.27 20.567 18.4173 21.4441 19.2568C22.3261 20.1833 23.5512 20.7048 24.8303 20.6982C24.8369 19.419 24.3154 18.1939 23.389 17.312C23.2855 17.2085 23.1821 17.112 23.0786 17.0223C23.8835 17.1746 24.7009 17.2508 25.52 17.2499C27.4518 17.3146 29.3631 16.8368 31.0372 15.8706ZM19.9958 15.8706V15.8637H20.0027V15.8706H19.9958Z" fill="#4FBA6F"/>
</svg>
