<svg width="18" height="18" viewBox="0 0 18 18" fill="none" xmlns="http://www.w3.org/2000/svg">
<path d="M2.25 6.375H11.25C13.3713 6.375 14.4319 6.375 15.091 7.03401C15.75 7.69305 15.75 8.7537 15.75 10.875V11.625C15.75 13.7463 15.75 14.8069 15.091 15.466C14.4319 16.125 13.3713 16.125 11.25 16.125H6.75C4.62868 16.125 3.56802 16.125 2.90901 15.466C2.25 14.8069 2.25 13.7463 2.25 11.625V6.375Z" stroke="#727478" stroke-width="1.5" stroke-linecap="round" stroke-linejoin="round"/>
<path d="M11.25 6.37375V3.08273C11.25 2.41572 10.7092 1.875 10.0423 1.875C9.8502 1.875 9.6609 1.92081 9.49005 2.00863L2.82173 5.43695C2.47068 5.61743 2.25 5.97902 2.25 6.37375" stroke="#727478" stroke-width="1.5" stroke-linecap="round" stroke-linejoin="round"/>
<path d="M13.125 11.625C13.3321 11.625 13.5 11.4571 13.5 11.25C13.5 11.0429 13.3321 10.875 13.125 10.875M13.125 11.625C12.9179 11.625 12.75 11.4571 12.75 11.25C12.75 11.0429 12.9179 10.875 13.125 10.875M13.125 11.625V10.875" stroke="#727478" stroke-width="1.5" stroke-linecap="round" stroke-linejoin="round"/>
</svg>
