<svg width="20" height="20" viewBox="0 0 20 20" fill="none" xmlns="http://www.w3.org/2000/svg">
<path d="M17.8731 6.83331C17.9167 7.70843 17.9167 8.74944 17.9167 9.99998C17.9167 13.7319 17.9167 15.5979 16.7573 16.7573C15.5979 17.9166 13.732 17.9166 10 17.9166C6.26806 17.9166 4.40208 17.9166 3.24271 16.7573C2.08334 15.5979 2.08334 13.7319 2.08334 9.99998C2.08334 6.26803 2.08334 4.40205 3.24271 3.24268C4.40208 2.08331 6.26806 2.08331 10 2.08331C10.8933 2.08331 11.6796 2.08331 12.375 2.09921" stroke="#494A4C" stroke-width="1.5" stroke-linecap="round"/>
<path d="M6.66669 9.58331C6.66669 9.58331 7.91669 9.58331 9.58335 12.5C9.58335 12.5 13.799 4.86109 17.9167 3.33331" stroke="#494A4C" stroke-width="1.5" stroke-linecap="round" stroke-linejoin="round"/>
</svg>
