<svg width="19" height="19" viewBox="0 0 19 19" fill="none" xmlns="http://www.w3.org/2000/svg">
<path d="M16.7633 0.505212C17.1035 0.165101 17.6548 0.165083 17.995 0.505212C18.335 0.845349 18.335 1.39672 17.995 1.73683L10.4816 9.25014L17.995 16.7635C18.335 17.1036 18.335 17.655 17.995 17.9951C17.6549 18.3352 17.1035 18.3351 16.7633 17.9951L9.25003 10.4818L1.73672 17.9951C1.39662 18.3352 0.84525 18.3351 0.505103 17.9951C0.164966 17.6549 0.164966 17.1036 0.505103 16.7635L8.01842 9.25014L0.505103 1.73683C0.164966 1.39669 0.164966 0.84535 0.505103 0.505212C0.845243 0.165101 1.39659 0.165083 1.73672 0.505212L9.25003 8.01853L16.7633 0.505212Z" fill="#151720"/>
</svg>
