<svg width="20" height="20" viewBox="0 0 20 20" fill="none" xmlns="http://www.w3.org/2000/svg">
<rect width="20" height="20" rx="10" fill="#3560FB" fill-opacity="0.14"/>
<path d="M12.0834 4.25C12.4975 4.25018 12.8334 4.58589 12.8334 5V5.17578H13.2407C14.1662 5.17578 14.9163 5.92613 14.9164 6.85156V13.333C14.9164 14.2586 14.1663 15.0088 13.2407 15.0088H6.75922C5.8337 15.0087 5.08344 14.2586 5.08344 13.333V6.85156C5.0836 5.92617 5.8338 5.17586 6.75922 5.17578H7.16644V5C7.16644 4.58587 7.50234 4.25013 7.91644 4.25C8.33066 4.25 8.66644 4.58579 8.66644 5V5.17578H11.3334V5C11.3334 4.58587 11.6693 4.25013 12.0834 4.25ZM6.58344 13.333C6.58344 13.4301 6.66211 13.5087 6.75922 13.5088H13.2407C13.3378 13.5088 13.4164 13.4302 13.4164 13.333V9.4541H6.58344V13.333ZM10.6743 10.3418C10.9671 10.0491 11.4419 10.049 11.7348 10.3418C12.0275 10.6347 12.0275 11.1095 11.7348 11.4023L10.0151 13.123C9.72238 13.4157 9.24745 13.4153 8.95453 13.123L8.26605 12.4346C7.97317 12.1417 7.9732 11.6669 8.26605 11.374C8.55895 11.0813 9.03375 11.0812 9.3266 11.374L9.48383 11.5312L10.6743 10.3418ZM6.75922 6.67578C6.66223 6.67586 6.5836 6.75459 6.58344 6.85156V7.9541H13.4164V6.85156C13.4163 6.75454 13.3377 6.67578 13.2407 6.67578H12.8334V6.85156C12.8334 7.26567 12.4975 7.60139 12.0834 7.60156C11.6693 7.60143 11.3334 7.26569 11.3334 6.85156V6.67578H8.66644V6.85156C8.66644 7.26578 8.33066 7.60156 7.91644 7.60156C7.50234 7.60143 7.16644 7.26569 7.16644 6.85156V6.67578H6.75922Z" fill="#3560FB"/>
</svg>
