<svg width="70" height="70" viewBox="0 0 70 70" fill="none" xmlns="http://www.w3.org/2000/svg">
<path opacity="0.2" d="M28.4026 10.4982C26.5364 12.3643 24.6871 13.2308 22.0266 13.2308C19.7035 13.2308 16.3984 12.7802 14.583 14.6109C12.7819 16.4271 13.2305 19.7186 13.2305 22.0269C13.2305 24.6875 12.364 26.5368 10.4978 28.403C7.38794 31.5128 5.83304 33.0677 5.83301 35C5.83307 36.932 7.388 38.4872 10.4979 41.5969C12.5885 43.6876 13.2305 45.0374 13.2305 47.9731C13.2305 50.2962 12.78 53.6013 14.6107 55.4167C16.4269 57.2177 19.7183 56.7691 22.0265 56.7691C24.8599 56.7691 26.2242 57.3233 28.2463 59.3454C29.9681 61.0674 32.2764 64.1667 34.9997 64.1667C37.723 64.1667 40.0312 61.0674 41.7529 59.3454C43.775 57.3233 45.1395 56.7691 47.9727 56.7691C50.281 56.7691 53.5724 57.2177 55.3886 55.4167C57.2194 53.6013 56.7688 50.2962 56.7688 47.9731C56.7688 45.0374 57.4108 43.6876 59.5014 41.5969C62.6115 38.4872 64.1663 36.932 64.1663 35C64.1663 33.0677 62.6115 31.5128 59.5014 28.403C57.411 26.3123 56.7688 24.9625 56.7688 22.0269C56.7688 19.7038 57.2194 16.3988 55.3889 14.5833C53.5727 12.7822 50.281 13.2308 47.9727 13.2308C45.3116 13.2308 43.4624 12.364 41.5966 10.4982C38.4868 7.38828 36.932 5.83334 34.9997 5.83334C33.0674 5.83334 31.5125 7.38828 28.4026 10.4982Z" fill="#15A260"/>
<path d="M55.3886 55.4167H55.4163M55.3886 55.4167C53.5724 57.2177 50.281 56.7691 47.9727 56.7691C45.1395 56.7691 43.775 57.3233 41.7529 59.3454C40.0312 61.0674 37.723 64.1667 34.9997 64.1667C32.2764 64.1667 29.9681 61.0674 28.2463 59.3454C26.2242 57.3233 24.8599 56.7691 22.0265 56.7691C19.7183 56.7691 16.4269 57.2177 14.6107 55.4167C12.78 53.6013 13.2305 50.2962 13.2305 47.9731C13.2305 45.0374 12.5885 43.6876 10.4979 41.5969C7.388 38.4872 5.83307 36.932 5.83301 35C5.83304 33.0677 7.38794 31.5128 10.4978 28.403C12.364 26.5368 13.2305 24.6875 13.2305 22.0269C13.2305 19.7186 12.7819 16.4271 14.583 14.6109C16.3984 12.7802 19.7035 13.2308 22.0266 13.2308C24.6871 13.2308 26.5364 12.3643 28.4026 10.4982C31.5125 7.38828 33.0674 5.83334 34.9997 5.83334C36.932 5.83334 38.4868 7.38828 41.5966 10.4982C43.4624 12.364 45.3115 13.2308 47.9727 13.2308C50.281 13.2308 53.5727 12.7822 55.3889 14.5833C57.2194 16.3988 56.7688 19.7038 56.7688 22.0269C56.7688 24.9625 57.411 26.3123 59.5014 28.403C62.6115 31.5128 64.1663 33.0677 64.1663 35C64.1663 36.932 62.6115 38.4872 59.5014 41.5969C57.4108 43.6876 56.7688 45.0374 56.7688 47.9731C56.7688 50.2962 57.2194 53.6013 55.3886 55.4167Z" stroke="#15A260" stroke-width="2.5"/>
<path d="M26.25 37.6043C26.25 37.6043 29.75 39.5054 31.5 42.2917C31.5 42.2917 36.75 31.3542 43.75 27.7083" stroke="#15A260" stroke-width="2.5" stroke-linecap="round" stroke-linejoin="round"/>
</svg>
