<svg width="14" height="14" viewBox="0 0 14 14" fill="none" xmlns="http://www.w3.org/2000/svg">
<path d="M6.41699 6.22225C6.41699 6.22225 6.85449 6.22225 7.29199 7.00001C7.29199 7.00001 8.68173 5.05556 9.91699 4.66667" stroke="#151720" stroke-width="1.5" stroke-linecap="round" stroke-linejoin="round"/>
<path d="M4.08301 6.41667V5.25001C4.08301 3.3251 4.08301 2.36265 4.681 1.76466C5.27899 1.16667 6.24146 1.16667 8.16634 1.16667C10.0912 1.16667 11.0537 1.16667 11.6517 1.76466C12.2497 2.36265 12.2497 3.3251 12.2497 5.25001V6.41667C12.2497 8.34156 12.2497 9.304 11.6517 9.90203C11.0537 10.5 10.0912 10.5 8.16634 10.5C6.24146 10.5 5.27899 10.5 4.681 9.90203C4.08301 9.304 4.08301 8.34156 4.08301 6.41667Z" stroke="#151720" stroke-width="1.5" stroke-linecap="round" stroke-linejoin="round"/>
<path d="M1.75 3.5V8.75C1.75 10.6749 1.75 11.6373 2.34799 12.2354C2.94598 12.8333 3.90843 12.8333 5.83333 12.8333H9.91667" stroke="#151720" stroke-width="1.5" stroke-linecap="round" stroke-linejoin="round"/>
</svg>
