<svg width="14" height="14" viewBox="0 0 14 14" fill="none" xmlns="http://www.w3.org/2000/svg">
<path d="M4.08301 6.41669V5.25002C4.08301 3.32512 4.08301 2.36267 4.681 1.76468C5.27899 1.16669 6.24146 1.16669 8.16634 1.16669C10.0912 1.16669 11.0537 1.16669 11.6517 1.76468C12.2497 2.36267 12.2497 3.32512 12.2497 5.25002V6.41669C12.2497 8.34157 12.2497 9.30401 11.6517 9.90205C11.0537 10.5 10.0912 10.5 8.16634 10.5C6.24146 10.5 5.27899 10.5 4.681 9.90205C4.08301 9.30401 4.08301 8.34157 4.08301 6.41669Z" stroke="#494A4C" stroke-width="1.5" stroke-linecap="round" stroke-linejoin="round"/>
<path d="M1.75 3.5V8.75C1.75 10.6749 1.75 11.6373 2.34799 12.2354C2.94598 12.8333 3.90843 12.8333 5.83333 12.8333H9.91667" stroke="#494A4C" stroke-width="1.5" stroke-linecap="round" stroke-linejoin="round"/>
</svg>
