<svg width="22" height="19" viewBox="0 0 22 19" fill="none" xmlns="http://www.w3.org/2000/svg">
<path d="M13.1913 11.2095C13.7307 11.2095 14.168 11.6451 14.168 12.1824C14.168 12.7198 13.7307 13.1554 13.1913 13.1554H13.1808C12.6415 13.1553 12.2041 12.7197 12.2041 12.1824C12.2041 11.6451 12.6415 11.2096 13.1808 11.2095H13.1913Z" fill="#151720"/>
<path d="M12.6734 6.80163C12.9594 6.51668 13.4232 6.51673 13.7092 6.80163C13.9953 7.0866 13.9953 7.54853 13.7092 7.83351L8.82563 12.6984C8.53954 12.9833 8.07581 12.9833 7.78976 12.6984C7.50379 12.4134 7.50379 11.9514 7.78976 11.6665L12.6734 6.80163Z" fill="#151720"/>
<path d="M8.31819 6.34459C8.85762 6.34459 9.29491 6.78021 9.29491 7.31757C9.29491 7.85493 8.85762 8.29054 8.31819 8.29054H8.30769C7.76836 8.29043 7.33097 7.85486 7.33097 7.31757C7.33097 6.78028 7.76836 6.34471 8.30769 6.34459H8.31819Z" fill="#151720"/>
<path fill-rule="evenodd" clip-rule="evenodd" d="M12.7106 0.750001C14.3009 0.750001 15.5547 0.748575 16.5507 0.85927C17.5621 0.971722 18.3932 1.20667 19.1079 1.73438C19.5993 2.09723 20.0248 2.54685 20.366 3.06081C20.9962 4.00985 21.1821 5.16048 21.2483 6.68095C21.28 7.40734 20.6655 7.89525 20.0627 7.89527C19.1526 7.89537 18.3449 8.68601 18.3449 9.75C18.3449 10.814 19.1526 11.6046 20.0627 11.6047C20.6655 11.6048 21.28 12.0927 21.2483 12.819C21.1821 14.3395 20.9962 15.4902 20.366 16.4392C20.0248 16.9532 19.5993 17.4028 19.1079 17.7656C18.3932 18.2933 17.5621 18.5283 16.5507 18.6407C15.5547 18.7514 14.3009 18.75 12.7106 18.75H8.78843C7.19815 18.75 5.94428 18.7514 4.9483 18.6407C3.93698 18.5283 3.1058 18.2934 2.39107 17.7656C1.89968 17.4028 1.47423 16.9531 1.13297 16.4392C0.502787 15.49 0.316916 14.3389 0.250672 12.8181C0.219213 12.0925 0.832938 11.6051 1.43533 11.6047C2.34554 11.6047 3.15414 10.8141 3.15414 9.75C3.15414 8.68594 2.34554 7.89527 1.43533 7.89527C0.832938 7.89493 0.219211 7.40752 0.250672 6.6819L0.282148 6.12796C0.37074 4.87614 0.581624 3.89123 1.13297 3.06081C1.47423 2.54685 1.89968 2.09724 2.39107 1.73438C3.1058 1.20664 3.93698 0.971737 4.9483 0.85927C5.94428 0.74856 7.19815 0.750001 8.78843 0.750001H12.7106ZM8.78843 2.20946C7.16479 2.20946 6.00731 2.21061 5.1114 2.31018C4.2311 2.40805 3.68825 2.59357 3.26383 2.90688C2.91229 3.16648 2.60381 3.49065 2.35483 3.8656C1.98615 4.42089 1.8063 5.15605 1.73102 6.45006C3.38226 6.60616 4.61922 8.05874 4.61922 9.75C4.61922 11.4412 3.38221 12.8928 1.73102 13.049C1.80626 14.3436 1.98606 15.079 2.35483 15.6344C2.60381 16.0093 2.91229 16.3335 3.26383 16.5931C3.68825 16.9064 4.2311 17.092 5.1114 17.1898C6.00731 17.2894 7.16479 17.2905 8.78843 17.2905H12.7106C14.3342 17.2905 15.4917 17.2894 16.3876 17.1898C17.2679 17.092 17.8107 16.9064 18.2352 16.5931C18.5867 16.3335 18.8952 16.0093 19.1442 15.6344C19.513 15.079 19.6918 14.3436 19.767 13.049C18.1161 12.8926 16.8798 11.441 16.8798 9.75C16.8798 8.05894 18.1161 6.60645 19.767 6.45006C19.6918 5.15603 19.5129 4.42088 19.1442 3.8656C18.8952 3.49065 18.5867 3.16647 18.2352 2.90688C17.8107 2.59361 17.2679 2.40803 16.3876 2.31018C15.4917 2.21063 14.3342 2.20946 12.7106 2.20946H8.78843Z" fill="#151720"/>
</svg>
