<svg width="16" height="11" viewBox="0 0 16 11" fill="none" xmlns="http://www.w3.org/2000/svg">
<path d="M0.95694 4.39047L2.31445 11H13.8413L15.2013 4.37669C15.2329 4.38119 15.2647 4.38355 15.2966 4.38376C15.4694 4.38427 15.6364 4.32269 15.7654 4.21085C15.8944 4.09901 15.9764 3.94479 15.9956 3.77777C16.0149 3.61076 15.97 3.44273 15.8696 3.30594C15.7692 3.16914 15.6203 3.07321 15.4516 3.03656C15.2829 2.99991 15.1063 3.02513 14.9555 3.10736C14.8048 3.1896 14.6906 3.32307 14.6349 3.48215C14.5791 3.64123 14.5858 3.81471 14.6536 3.96931C14.7214 4.1239 14.8455 4.24871 15.0021 4.31979C14.3841 5.40452 13.0087 7.46196 11.4582 7.46196C9.47646 7.46196 8.4636 3.05655 8.17748 1.56287C8.3815 1.54193 8.56963 1.44615 8.70353 1.29503C8.83743 1.14392 8.90702 0.94885 8.89811 0.749584C8.88921 0.550317 8.80248 0.361852 8.6556 0.222598C8.50873 0.0833445 8.31276 0.00378393 8.10764 0.000131533C7.90251 -0.00352087 7.70368 0.0690098 7.55166 0.202941C7.39963 0.336873 7.30586 0.522124 7.28946 0.72094C7.27305 0.919756 7.33525 1.11717 7.46337 1.27295C7.59148 1.42873 7.77588 1.53115 7.97898 1.55934C7.69359 3.04913 6.68109 7.46196 4.69754 7.46196C3.1499 7.46196 1.77639 5.41195 1.15726 4.32615C1.34157 4.23954 1.4851 4.08802 1.55874 3.90233C1.63239 3.71663 1.63062 3.51065 1.55381 3.32617C1.477 3.14169 1.3309 2.99251 1.14513 2.9089C0.959362 2.82529 0.747836 2.81349 0.553455 2.87592C0.359073 2.93834 0.196388 3.0703 0.0983934 3.24504C0.000398986 3.41977 -0.0255681 3.62421 0.0257586 3.81687C0.0770854 4.00954 0.201863 4.17601 0.374786 4.28253C0.547709 4.38905 0.75583 4.42764 0.95694 4.39047Z" fill="#151720"/>
</svg>
