<svg width="22" height="19" viewBox="0 0 22 19" fill="none" xmlns="http://www.w3.org/2000/svg">
<path fill-rule="evenodd" clip-rule="evenodd" d="M3.90177 12.7818C6.68867 11.2658 10.2113 11.2658 12.9982 12.7818C13.4726 13.0398 14.5964 13.5575 15.316 14.201C15.6783 14.525 16.0663 14.9876 16.1382 15.5878C16.2168 16.2451 15.8957 16.8239 15.3516 17.2975C14.423 18.1057 13.3099 18.75 11.8789 18.75H5.02104C3.58998 18.75 2.47696 18.1057 1.54837 17.2975C1.00421 16.8238 0.683129 16.2451 0.761781 15.5878C0.833667 14.9876 1.2216 14.525 1.58392 14.201C2.30358 13.5575 3.4274 13.0398 3.90177 12.7818ZM12.3364 14.0344C9.96271 12.7433 6.93723 12.7433 4.56349 14.0344C3.93745 14.375 3.0677 14.7672 2.50905 15.2668C2.23266 15.5139 2.16028 15.6812 2.15085 15.7589C2.14838 15.7796 2.12545 15.9277 2.45983 16.2188C3.24802 16.9047 4.04821 17.3289 5.02104 17.3289H11.8789C12.8517 17.3289 13.6519 16.9047 14.4401 16.2188C14.7744 15.9278 14.7516 15.7796 14.7491 15.7589C14.7397 15.6812 14.6672 15.5139 14.3909 15.2668C13.8323 14.7672 12.9625 14.375 12.3364 14.0344Z" fill="#151720"/>
<path d="M16.3833 11.6447C16.8751 11.6447 17.5311 11.7784 18.1789 11.9824C18.8373 12.1898 19.5486 12.4891 20.155 12.8576C20.7352 13.2103 21.3323 13.6945 21.6024 14.3185C21.7471 14.653 21.8001 15.0342 21.6944 15.4296C21.5912 15.8153 21.3555 16.1484 21.0418 16.4325C20.2076 17.1878 19.1942 17.8026 17.8827 17.8026H17.4251C17.0386 17.8026 16.7252 17.4845 16.7251 17.0921C16.7251 16.6997 17.0385 16.3816 17.4251 16.3816H17.8827C18.7173 16.3815 19.4109 16.0037 20.1094 15.3713C20.2824 15.2147 20.3296 15.1059 20.3427 15.0567C20.3532 15.0173 20.3556 14.9696 20.3209 14.8893C20.2314 14.6831 19.9514 14.3904 19.4358 14.077C18.9462 13.7794 18.3424 13.5217 17.7642 13.3396C17.1753 13.1542 16.6728 13.0658 16.3833 13.0658C15.9968 13.0658 15.6834 12.7476 15.6833 12.3553C15.6833 11.9629 15.9967 11.6447 16.3833 11.6447Z" fill="#151720"/>
<path fill-rule="evenodd" clip-rule="evenodd" d="M8.44997 0.75C10.8984 0.750038 12.8833 2.76474 12.8833 5.25C12.8833 7.73526 10.8984 9.74996 8.44997 9.75C6.00149 9.75 4.01661 7.73528 4.01661 5.25C4.01661 2.76472 6.00149 0.75 8.44997 0.75ZM8.44997 2.17105C6.77469 2.17105 5.41662 3.54954 5.41662 5.25C5.41662 6.95046 6.77469 8.32895 8.44997 8.32895C10.1252 8.32891 11.4833 6.95043 11.4833 5.25C11.4833 3.54957 10.1252 2.17109 8.44997 2.17105Z" fill="#151720"/>
<path d="M15.1747 2.17105C17.1965 2.17124 18.95 3.70045 18.95 5.72368C18.95 7.74689 17.1965 9.27613 15.1747 9.27632C14.9033 9.27632 14.6374 9.24929 14.3809 9.19768C14.0017 9.12133 13.7551 8.74715 13.8303 8.36225C13.9056 7.97759 14.2735 7.72739 14.6525 7.80345C14.8196 7.8371 14.9948 7.85526 15.1747 7.85526C16.5498 7.85508 17.55 6.83951 17.55 5.72368C17.55 4.60784 16.5498 3.59229 15.1747 3.59211C14.9948 3.59211 14.8196 3.61026 14.6525 3.64391C14.2735 3.71998 13.9056 3.46974 13.8303 3.08512C13.7551 2.7002 14.0016 2.32604 14.3809 2.24969C14.6374 2.19807 14.9033 2.17105 15.1747 2.17105Z" fill="#151720"/>
</svg>
