<svg width="19" height="19" viewBox="0 0 19 19" fill="none" xmlns="http://www.w3.org/2000/svg">
<path fill-rule="evenodd" clip-rule="evenodd" d="M9.25 0.25C9.99853 0.250018 10.6625 0.490511 11.3634 0.883817C12.0464 1.26712 12.8276 1.83365 13.7993 2.53616L14.9835 3.39196C15.7639 3.95622 16.3964 4.41253 16.873 4.83538C17.3616 5.26903 17.7383 5.71103 17.9779 6.27277C18.218 6.83602 18.2733 7.40959 18.242 8.05469C18.2117 8.68142 18.0946 9.4367 17.9518 10.366L17.7047 11.9771C17.5019 13.2964 17.3392 14.3602 17.099 15.1894C16.8519 16.0419 16.4987 16.7384 15.8564 17.2727C15.2173 17.8042 14.4603 18.0353 13.5612 18.1445C12.6814 18.2514 11.5726 18.25 10.1872 18.25H8.31283C6.92739 18.25 5.81864 18.2514 4.9388 18.1445C4.03968 18.0353 3.28268 17.8042 2.64358 17.2727C2.00128 16.7384 1.64808 16.0419 1.40105 15.1894C1.16078 14.3602 0.998096 13.2965 0.795349 11.9771L0.548248 10.366C0.405444 9.4367 0.288315 8.68143 0.257955 8.05469C0.226722 7.40958 0.281962 6.83603 0.522132 6.27277C0.761734 5.71102 1.13835 5.26904 1.62705 4.83538C2.10365 4.41253 2.73606 3.95622 3.51647 3.39196L4.70074 2.53616C5.67237 1.83364 6.45363 1.26711 7.13659 0.883817C7.83748 0.490517 8.50146 0.25 9.25 0.25ZM9.249 12.4904C8.14068 12.4906 7.26465 13.431 7.34351 14.5365L7.4972 16.7051C7.75261 16.706 8.02401 16.7071 8.31283 16.7071H10.1872C10.4745 16.7071 10.7445 16.706 10.9988 16.7051L11.1545 14.5365C11.2333 13.4309 10.3574 12.4905 9.249 12.4904ZM9.25 1.79286C8.86053 1.79286 8.46181 1.90904 7.89195 2.22879C7.30418 2.55863 6.60555 3.06212 5.60477 3.78571L4.42049 4.64252C3.6152 5.22477 3.05723 5.62964 2.65162 5.98951C2.25851 6.33831 2.05916 6.60162 1.94145 6.87746C1.82437 7.15196 1.77416 7.47098 1.79882 7.98036C1.82441 8.50804 1.92545 9.17049 2.07304 10.1309L2.32114 11.7431C2.53018 13.1033 2.67678 14.0501 2.88264 14.7605C3.08174 15.4474 3.31131 15.8213 3.62997 16.0864C3.95186 16.3541 4.37863 16.5221 5.12463 16.6127C5.37276 16.6429 5.64557 16.66 5.9493 16.674L5.80466 14.647C5.66189 12.6483 7.24523 10.9478 9.249 10.9475C11.2529 10.9476 12.8361 12.6482 12.6933 14.647L12.5477 16.674C12.8526 16.66 13.1264 16.643 13.3754 16.6127C14.1214 16.5221 14.5481 16.3541 14.87 16.0864C15.1887 15.8213 15.4183 15.4474 15.6174 14.7605C15.8232 14.0501 15.9698 13.1033 16.1789 11.7431L16.427 10.1309C16.5746 9.17049 16.6756 8.50804 16.7012 7.98036C16.7258 7.471 16.6756 7.15196 16.5586 6.87746C16.4409 6.60162 16.2415 6.3383 15.8484 5.98951C15.4428 5.62964 14.8848 5.22478 14.0795 4.64252L12.8952 3.78571C11.8945 3.06212 11.1958 2.55863 10.608 2.22879C10.0382 1.90903 9.63946 1.79287 9.25 1.79286Z" fill="#151720"/>
</svg>
