<svg width="13" height="15" viewBox="0 0 13 15" fill="none" xmlns="http://www.w3.org/2000/svg">
<g clip-path="url(#clip0_1374_8546)">
<path d="M10.7002 1.89995H9.7002V1.49995C9.7002 1.09995 9.4002 0.699951 8.9002 0.699951C8.4002 0.699951 8.1002 0.999951 8.1002 1.49995V1.89995H4.8002V1.49995C4.8002 1.09995 4.5002 0.699951 4.0002 0.699951C3.5002 0.699951 3.2002 0.999951 3.2002 1.49995V1.89995H2.2002C1.1002 1.89995 0.200195 2.79995 0.200195 3.89995V12.3C0.200195 13.4 1.1002 14.3 2.2002 14.3H10.6002C11.7002 14.3 12.6002 13.4 12.6002 12.3V3.89995C12.6002 2.79995 11.7002 1.89995 10.6002 1.89995H10.7002ZM2.3002 3.39995H3.3002V3.89995C3.3002 4.29995 3.6002 4.69995 4.1002 4.69995C4.6002 4.69995 4.9002 4.39995 4.9002 3.89995V3.39995H8.2002V3.89995C8.2002 4.29995 8.5002 4.69995 9.0002 4.69995C9.5002 4.69995 9.8002 4.39995 9.8002 3.89995V3.39995H10.8002C11.0002 3.39995 11.3002 3.59995 11.3002 3.89995V5.59995H1.9002V3.89995C1.9002 3.69995 2.1002 3.39995 2.4002 3.39995H2.3002ZM10.7002 12.7H2.3002C2.1002 12.7 1.8002 12.5 1.8002 12.2V6.99995H11.1002V12.2C11.1002 12.4 10.9002 12.7 10.6002 12.7H10.7002Z" fill="#727377"/>
</g>
<defs>
<clipPath id="clip0_1374_8546">
<rect width="13" height="14" fill="white" transform="translate(0 0.5)"/>
</clipPath>
</defs>
</svg>
