<svg width="40" height="40" viewBox="0 0 40 40" fill="none" xmlns="http://www.w3.org/2000/svg">
<rect width="40" height="40" rx="20" fill="#E0E3EC"/>
<path d="M9.13907 24.9095C9.31827 26.3847 9.65418 27.2401 10.1994 27.8784C10.3763 28.0855 10.5691 28.2783 10.7762 28.4553C11.4145 29.0004 12.2699 29.3364 13.7451 29.5156C15.2505 29.6984 17.2189 29.7006 20 29.7006C22.7811 29.7006 24.7495 29.6984 26.255 29.5156C27.7301 29.3364 28.5854 29.0004 29.2239 28.4553C29.4309 28.2783 29.6238 28.0855 29.8007 27.8784C30.3458 27.2401 30.6817 26.3847 30.861 24.9095C30.9297 24.344 30.9728 23.7132 31 22.9984L28.6934 20.6918C28.2414 20.2398 27.6283 19.9858 26.989 19.9858C26.3497 19.9858 25.7366 20.2398 25.2846 20.6918L22.6625 23.3139L17.3779 18.0293C16.9259 17.5774 16.3128 17.3234 15.6735 17.3234C15.0342 17.3234 14.4211 17.5774 13.9691 18.0293L9 22.9984C9.02717 23.7132 9.07038 24.344 9.13907 24.9095Z" fill="#AEB3C7"/>
<path fill-rule="evenodd" clip-rule="evenodd" d="M22.9951 12.664C22.9951 11.745 23.7401 11 24.6592 11C25.5782 11 26.3232 11.745 26.3232 12.664C26.3232 13.5831 25.5782 14.3281 24.6592 14.3281C23.7401 14.3281 22.9951 13.5831 22.9951 12.664Z" fill="#AEB3C7"/>
</svg>
