<svg width="24" height="24" viewBox="0 0 24 24" fill="none" xmlns="http://www.w3.org/2000/svg">
<path fill-rule="evenodd" clip-rule="evenodd" d="M9.85268 12C9.85268 10.8954 10.7481 10 11.8527 10H11.8629C12.9675 10 13.8629 10.8954 13.8629 12C13.8629 13.1046 12.9675 14 11.8629 14H11.8527C10.7481 14 9.85268 13.1046 9.85268 12Z" fill="#151720"/>
<path fill-rule="evenodd" clip-rule="evenodd" d="M16.7143 12C16.7143 10.8954 17.6097 10 18.7143 10H18.7246C19.8291 10 20.7246 10.8954 20.7246 12C20.7246 13.1046 19.8291 14 18.7246 14H18.7143C17.6097 14 16.7143 13.1046 16.7143 12Z" fill="#151720"/>
<path fill-rule="evenodd" clip-rule="evenodd" d="M3 12C3 10.8954 3.89543 10 5 10H5.01026C6.11483 10 7.01026 10.8954 7.01026 12C7.01026 13.1046 6.11483 14 5.01026 14H5C3.89543 14 3 13.1046 3 12Z" fill="#151720"/>
</svg>
