<svg width="14" height="14" viewBox="0 0 14 14" fill="none" xmlns="http://www.w3.org/2000/svg">
<path d="M11.3138 4.41878L7.42918 8.3034C7.13308 8.59944 6.7622 8.8095 6.35602 8.911L4.66675 9.33333L5.08906 7.64406C5.1906 7.23788 5.40062 6.867 5.69667 6.5709L9.58127 2.6863L10.1588 2.10881C10.6372 1.6304 11.4129 1.6304 11.8913 2.10881C12.3697 2.58722 12.3697 3.36287 11.8913 3.84129L11.3138 4.41878ZM9.58127 2.6863L11.3138 4.41878" stroke="#151720" stroke-width="1.5" stroke-linejoin="round"/>
<path d="M11.0833 7.87496C11.0833 9.79267 11.0833 10.7515 10.5537 11.3969C10.4567 11.515 10.3484 11.6233 10.2302 11.7203C9.58487 12.25 8.62598 12.25 6.70828 12.25H6.41667C4.21678 12.25 3.11684 12.25 2.43343 11.5665C1.75002 10.8832 1.75 9.78316 1.75 7.58329V7.29163C1.75 5.37393 1.75 4.41509 2.27963 3.76972C2.3766 3.65157 2.48494 3.54323 2.60309 3.44626C3.24846 2.91663 4.2073 2.91663 6.125 2.91663" stroke="#151720" stroke-width="1.5" stroke-linecap="round" stroke-linejoin="round"/>
</svg>
