<svg width="20" height="19" viewBox="0 0 20 19" fill="none" xmlns="http://www.w3.org/2000/svg">
<path fill-rule="evenodd" clip-rule="evenodd" d="M15.4976 0.25C15.8795 0.250064 16.2578 0.325142 16.6107 0.47001C16.9638 0.615009 17.2855 0.827007 17.5557 1.09488C17.8259 1.36279 18.0398 1.68161 18.186 2.03163C18.3322 2.38152 18.408 2.75638 18.408 3.13508C18.408 3.51396 18.3323 3.88963 18.186 4.23967C18.0398 4.58946 17.8257 4.9075 17.5557 5.17528L5.58108 17.0456C5.46869 17.1569 5.32789 17.2364 5.17381 17.2747L1.34129 18.2239C1.04201 18.298 0.725453 18.211 0.507291 17.9948C0.289125 17.7786 0.201463 17.4648 0.276196 17.1681L1.23375 13.369C1.27238 13.2161 1.35254 13.0767 1.46485 12.9652L13.4395 1.09488C13.9853 0.55401 14.7258 0.25 15.4976 0.25ZM15.4976 1.99194C15.1918 1.99194 14.8981 2.11229 14.6819 2.32649L2.87887 14.0256L2.33546 16.1815L4.51027 15.6428L16.3133 3.94367C16.4202 3.83759 16.5048 3.71137 16.5627 3.57283C16.6206 3.43413 16.6508 3.2852 16.6508 3.13508C16.6507 2.98504 16.6206 2.83595 16.5627 2.69733C16.5047 2.55885 16.4202 2.43251 16.3133 2.32649C16.2063 2.22049 16.0788 2.13671 15.9392 2.07926C15.7994 2.02186 15.6489 1.992 15.4976 1.99194Z" fill="#151720"/>
<path d="M18.3714 16.5081C18.8564 16.5084 19.25 16.8982 19.25 17.379C19.25 17.8599 18.8564 18.2497 18.3714 18.25H9.74994C9.26469 18.25 8.87132 17.8601 8.87132 17.379C8.87132 16.898 9.26469 16.5081 9.74994 16.5081H18.3714Z" fill="#151720"/>
</svg>
