<svg width="20" height="20" viewBox="0 0 20 20" fill="none" xmlns="http://www.w3.org/2000/svg">
<rect width="20" height="20" rx="10" fill="#FF0505" fill-opacity="0.14"/>
<path d="M10.2708 5.1875C10.9841 5.1875 11.5627 5.76614 11.5627 6.47949V6.8125H13.2561C13.6048 6.81257 13.9366 6.95327 14.178 7.19922L14.2756 7.31152L15.8948 9.39258C16.0711 9.61925 16.1662 9.89846 16.1663 10.1855V12.4375C16.1662 13.1508 15.5885 13.7293 14.8752 13.7295H14.3801C14.0931 14.3676 13.453 14.8124 12.7083 14.8125C11.9634 14.8124 11.3232 14.3676 11.0364 13.7295H8.96313C8.67603 14.3676 8.0361 14.8125 7.29126 14.8125C6.54657 14.8124 5.90724 14.3675 5.62036 13.7295H5.12524C4.41188 13.7295 3.83326 13.1509 3.83325 12.4375V6.47949C3.83325 5.76613 4.41188 5.1875 5.12524 5.1875H10.2708ZM7.29126 12.6455C7.10753 12.6457 6.95861 12.7948 6.95825 12.9785C6.95825 13.1625 7.10731 13.3123 7.29126 13.3125C7.47536 13.3125 7.62524 13.1626 7.62524 12.9785C7.62489 12.7947 7.47514 12.6455 7.29126 12.6455ZM12.7083 12.6455C12.5245 12.6457 12.3756 12.7948 12.3752 12.9785C12.3752 13.1625 12.5243 13.3123 12.7083 13.3125C12.8904 13.3124 13.0383 13.1659 13.0413 12.9844V12.9717C13.0373 12.7911 12.8897 12.6456 12.7083 12.6455ZM5.33325 12.2295H5.62036C5.90709 11.5913 6.5463 11.1456 7.29126 11.1455C8.03638 11.1455 8.67619 11.5912 8.96313 12.2295H10.0627V6.6875H5.33325V12.2295ZM11.5627 11.5488C11.8766 11.2972 12.2747 11.1456 12.7083 11.1455C13.4533 11.1456 14.0932 11.5912 14.3801 12.2295H14.6663V10.2568L13.1536 8.3125H11.5627V11.5488ZM7.72876 6.9502C8.14297 6.9502 8.47876 7.28598 8.47876 7.7002V8.2002H8.97876C9.39297 8.2002 9.72876 8.53598 9.72876 8.9502C9.72866 9.36432 9.39291 9.7002 8.97876 9.7002H8.47876V10.2002C8.47866 10.6143 8.14291 10.9502 7.72876 10.9502C7.31472 10.9501 6.97886 10.6142 6.97876 10.2002V9.7002H6.47876C6.06472 9.70006 5.72886 9.36424 5.72876 8.9502C5.72876 8.53606 6.06466 8.20033 6.47876 8.2002H6.97876V7.7002C6.97876 7.28606 7.31466 6.95033 7.72876 6.9502Z" fill="#FF0505"/>
</svg>
