<svg width="19" height="19" viewBox="0 0 19 19" fill="none" xmlns="http://www.w3.org/2000/svg">
<path fill-rule="evenodd" clip-rule="evenodd" d="M5.40652 12.9847C7.76044 11.6332 10.7396 11.6332 13.0935 12.9847C13.4859 13.2101 14.4351 13.672 15.0418 14.2446C15.3507 14.5362 15.6707 14.9429 15.7294 15.4604C15.7929 16.0205 15.5346 16.5268 15.0712 16.9525C14.2935 17.6669 13.3478 18.2499 12.1214 18.25H6.37863C5.15225 18.2499 4.20647 17.6669 3.42878 16.9525C2.9654 16.5268 2.70713 16.0205 2.77062 15.4604C2.82934 14.9429 3.14933 14.5362 3.45821 14.2446C4.06489 13.672 5.0141 13.2101 5.40652 12.9847ZM12.468 14.0738C10.5014 12.9446 7.99861 12.9446 6.03198 14.0738C5.50314 14.3774 4.78351 14.7203 4.31995 15.1579C4.09423 15.371 4.02842 15.5203 4.01908 15.6018C4.01465 15.6409 4.00629 15.777 4.27825 16.027C4.93768 16.6328 5.59281 16.9941 6.37863 16.9942H12.1214C12.9072 16.9941 13.5623 16.6328 14.2217 16.027C14.4937 15.777 14.4853 15.6409 14.4809 15.6018C14.4716 15.5203 14.4058 15.371 14.1801 15.1579C13.7165 14.7203 12.9969 14.3774 12.468 14.0738Z" fill="#151720"/>
<path d="M9.25 0.25C14.2185 0.25 18.25 4.26429 18.25 9.22057C18.25 10.5127 17.9753 11.7425 17.4807 12.8539C17.3397 13.1708 16.9684 13.3138 16.6516 13.1728C16.3349 13.0318 16.1927 12.6605 16.3336 12.3437C16.7581 11.3898 16.9942 10.3334 16.9942 9.22057C16.9942 4.96206 13.5291 1.50581 9.25 1.50581C4.9709 1.50581 1.50581 4.96206 1.50581 9.22057C1.50585 10.3334 1.74188 11.3898 2.16642 12.3437C2.30732 12.6605 2.16512 13.0318 1.84838 13.1728C1.53156 13.3138 1.16035 13.1708 1.01935 12.8539C0.524739 11.7425 0.250034 10.5127 0.25 9.22057C0.25 4.26429 4.28154 0.250001 9.25 0.25Z" fill="#151720"/>
<path fill-rule="evenodd" clip-rule="evenodd" d="M9.25 4.01744C11.2151 4.01744 12.8081 5.61048 12.8081 7.57558C12.8081 9.54069 11.2151 11.1337 9.25 11.1337C7.28489 11.1337 5.69186 9.54069 5.69186 7.57558C5.69186 5.61048 7.28489 4.01744 9.25 4.01744ZM9.25 5.27326C7.97846 5.27326 6.94767 6.30404 6.94767 7.57558C6.94767 8.84712 7.97846 9.87791 9.25 9.87791C10.5215 9.87791 11.5523 8.84712 11.5523 7.57558C11.5523 6.30404 10.5215 5.27326 9.25 5.27326Z" fill="#151720"/>
</svg>
