<svg width="124" height="117" viewBox="0 0 124 117" fill="none" xmlns="http://www.w3.org/2000/svg">
<path d="M62 116.75C89.0616 116.75 111 115.407 111 113.75C111 112.093 89.0616 110.75 62 110.75C34.9379 110.75 13 112.093 13 113.75C13 115.407 34.9379 116.75 62 116.75Z" fill="#EEF2FE"/>
<rect x="1" y="17.528" width="122" height="88" rx="6" fill="white" stroke="#A0ACD0" stroke-width="2"/>
<path d="M2 22.528C2 20.3188 3.79086 18.528 6 18.528H118C120.209 18.528 122 20.3188 122 22.528V32.528H2V22.528Z" fill="#A0ACD0" fill-opacity="0.3"/>
<rect x="14" y="42.528" width="96" height="52" rx="5" fill="white" stroke="#A0ACD0" stroke-width="2"/>
<path d="M38 8.75V24.75" stroke="#A0ACD0" stroke-width="2" stroke-linecap="round" stroke-linejoin="round"/>
<path d="M86 8.75V24.75" stroke="#A0ACD0" stroke-width="2" stroke-linecap="round" stroke-linejoin="round"/>
<path d="M104.564 9.64635C105.298 9.64635 105.894 9.05581 105.894 8.3273C105.894 7.59879 105.298 7.00824 104.564 7.00824C103.83 7.00824 103.234 7.59879 103.234 8.3273C103.234 9.05581 103.83 9.64635 104.564 9.64635Z" fill="#A0ACD0"/>
<path d="M21.48 10.8038C22.2144 10.8038 22.8096 10.2132 22.8096 9.48471C22.8096 8.7562 22.2144 8.16565 21.48 8.16565C20.7457 8.16565 20.1504 8.7562 20.1504 9.48471C20.1504 10.2132 20.7457 10.8038 21.48 10.8038Z" fill="#A0ACD0"/>
<path d="M54.916 0.75V6.53735" stroke="#A0ACD0" stroke-width="1.5" stroke-linecap="round" stroke-linejoin="round"/>
<path d="M52 3.64362H57.8337" stroke="#A0ACD0" stroke-width="1.5" stroke-linecap="round" stroke-linejoin="round"/>
<path d="M45.0322 80.6289C45.8956 76.8061 48.0456 73.3891 51.1282 70.9406C54.2108 68.4922 58.0419 67.1581 61.9907 67.1581C65.9395 67.1581 69.7706 68.4922 72.8532 70.9406C75.9358 73.3891 78.0858 76.8061 78.9492 80.6289" stroke="#A0ACD0" stroke-width="2" stroke-linecap="round" stroke-linejoin="round"/>
<path d="M81.1611 60.548C82.4948 60.548 83.5761 59.4754 83.5761 58.1522C83.5761 56.8291 82.4948 55.7565 81.1611 55.7565C79.8273 55.7565 78.7461 56.8291 78.7461 58.1522C78.7461 59.4754 79.8273 60.548 81.1611 60.548Z" fill="#A0ACD0"/>
<path d="M42.8359 60.548C44.1696 60.548 45.2509 59.4754 45.2509 58.1522C45.2509 56.8291 44.1696 55.7565 42.8359 55.7565C41.5022 55.7565 40.4209 56.8291 40.4209 58.1522C40.4209 59.4754 41.5022 60.548 42.8359 60.548Z" fill="#A0ACD0"/>
</svg>
