<svg width="162" height="151" viewBox="0 0 162 151" fill="none" xmlns="http://www.w3.org/2000/svg">
<path d="M10.2338 20.9282V28.9433" stroke="#A0ACD0" stroke-width="2" stroke-linecap="round" stroke-linejoin="round"/>
<path d="M6.1925 24.9355H14.2561" stroke="#A0ACD0" stroke-width="2" stroke-linecap="round" stroke-linejoin="round"/>
<path d="M121.006 14.8268C122.019 14.8268 122.84 14.009 122.84 13.0002C122.84 11.9913 122.019 11.1736 121.006 11.1736C119.994 11.1736 119.173 11.9913 119.173 13.0002C119.172 14.009 119.994 14.8268 121.006 14.8268Z" fill="#A0ACD0"/>
<path d="M69 151C96.6136 151 119 149.657 119 148C119 146.343 96.6138 145 69 145C41.3856 145 19 146.343 19 148C19 149.657 41.3856 151 69 151Z" fill="#EEF2FE"/>
<path d="M131.285 138H6.69057C5.85701 138 5.03306 137.829 4.27638 137.503C3.51971 137.176 2.84805 136.699 2.30799 136.106C1.76793 135.511 1.37241 134.816 1.14877 134.065C0.925134 133.314 0.87819 132.529 1.012 131.76L16.9473 41.4967C17.1628 40.2406 17.851 39.097 18.8883 38.2728C19.9259 37.4483 21.2441 36.997 22.6062 37.0001H147.2C148.033 37.0001 148.857 37.1697 149.613 37.497C150.368 37.8243 151.04 38.3015 151.578 38.8954C152.117 39.4893 152.51 40.1854 152.732 40.9357C152.952 41.6863 152.997 42.4725 152.86 43.2401L137.438 133.5C137.218 134.765 136.086 135.915 135.036 136.741C133.986 137.565 132.656 138.013 131.285 138Z" fill="#C6CDE2"/>
<path d="M126.725 32.6817L56.3077 1.35741C54.2318 0.434113 51.7979 1.36196 50.8712 3.43017L28.553 53.2312C27.6262 55.2994 28.5575 57.7243 30.6331 58.6476L101.051 89.9715C103.127 90.8948 105.562 89.967 106.488 87.8991L128.806 38.098C129.734 36.0298 128.802 33.605 126.725 32.6817Z" fill="white" stroke="#A0ACD0" stroke-width="2" stroke-linecap="round" stroke-linejoin="round"/>
<path d="M66.6306 42.3299C68.4841 39.7385 71.1798 37.8656 74.2609 37.0282C77.342 36.1908 80.6189 36.4402 83.5367 37.7345C86.4541 39.0288 88.8327 41.2884 90.2698 44.1302C91.7065 46.972 92.1127 50.2212 91.42 53.3274" stroke="#A0ACD0" stroke-width="2" stroke-linecap="round" stroke-linejoin="round"/>
<path d="M100.306 39.515C101.371 39.515 102.233 38.6552 102.233 37.5952C102.233 36.5348 101.371 35.6753 100.306 35.6753C99.242 35.6753 98.3793 36.5348 98.3793 37.5952C98.3793 38.6556 99.242 39.515 100.306 39.515Z" fill="#A0ACD0"/>
<path d="M72.3926 27.1013C73.4566 27.1013 74.3196 26.2419 74.3196 25.1815C74.3196 24.1214 73.4566 23.2616 72.3926 23.2616C71.3283 23.2616 70.4656 24.1214 70.4656 25.1815C70.4656 26.2419 71.3283 27.1013 72.3926 27.1013Z" fill="#A0ACD0"/>
<path d="M131.461 137H6.54013C5.06958 136.995 3.66076 136.422 2.6227 135.407C1.58428 134.392 1.00156 133.017 1.00156 131.585V48.5449C0.984072 47.8244 1.11397 47.1078 1.3841 46.4371C1.65423 45.7661 2.05924 45.1548 2.57524 44.6381C3.09088 44.1218 3.7075 43.7108 4.38836 43.4295C5.06922 43.1482 5.80075 43.0022 6.54049 43.0001H50.5657C51.5874 43.0039 52.588 43.2818 53.4583 43.8033C54.3283 44.3252 55.0342 45.0703 55.4977 45.9573L61.776 57.9337C62.2381 58.8221 62.9432 59.5686 63.8139 60.0901C64.6843 60.612 65.6859 60.8892 66.7079 60.8909H131.461C132.929 60.8909 134.339 61.4594 135.378 62.4715C136.416 63.4837 137 64.8564 137 66.2879V131.585C137 133.017 136.418 134.392 135.378 135.407C134.34 136.422 132.931 136.995 131.461 137Z" fill="white" stroke="#A0ACD0" stroke-width="2" stroke-linecap="round" stroke-linejoin="round"/>
<path d="M156.04 17.8217V25.8553" stroke="#A0ACD0" stroke-width="2" stroke-linecap="round" stroke-linejoin="round"/>
<path d="M151.999 21.848H160.062" stroke="#A0ACD0" stroke-width="2" stroke-linecap="round" stroke-linejoin="round"/>
<path d="M27.3737 78.1081C26.8758 78.0792 26.8751 75.983 27.3737 75.983C45.0938 75.983 94.4339 75.983 110.593 75.983C111.136 75.983 111.135 78.084 110.593 78.1081C91.8681 78.9424 46.1545 79.2001 27.3737 78.1081Z" fill="#A0ACD0"/>
<path d="M27.5905 94.7868C27.2005 94.2366 26.4837 86.5163 27.5905 85.5249C28.2754 84.9115 39.9519 84.9777 40.3929 85.5249C41.1846 86.5075 41.2384 94.1772 40.3929 94.7868C39.3975 95.5044 28.0212 95.3944 27.5905 94.7868Z" fill="#A0ACD0"/>
<path d="M27.5905 107.136C27.2005 106.586 26.4837 98.8653 27.5905 97.8739C28.2754 97.2605 39.9519 97.3267 40.3929 97.8739C41.1846 98.8565 41.2384 106.526 40.3929 107.136C39.3975 107.853 28.0212 107.743 27.5905 107.136Z" fill="#A0ACD0"/>
<path d="M27.5905 119.485C27.2005 118.935 26.4837 111.215 27.5905 110.223C28.2754 109.61 39.9519 109.676 40.3929 110.223C41.1846 111.206 41.2384 118.876 40.3929 119.485C39.3975 120.203 28.0212 120.093 27.5905 119.485Z" fill="#A0ACD0"/>
<path d="M45.7108 94.4351C45.3207 93.8849 44.6039 86.1646 45.7108 85.1732C46.3956 84.5599 58.0722 84.626 58.5131 85.1732C59.3049 86.1558 59.3587 93.8255 58.5131 94.4351C57.5177 95.1527 46.1415 95.0427 45.7108 94.4351Z" fill="#E6EAF6"/>
<path d="M45.7108 106.784C45.3207 106.234 44.6039 98.5139 45.7108 97.5225C46.3956 96.9091 58.0722 96.9753 58.5131 97.5225C59.3049 98.505 59.3587 106.175 58.5131 106.784C57.5177 107.502 46.1415 107.392 45.7108 106.784Z" fill="#E6EAF6"/>
<path d="M45.7108 119.134C45.3207 118.583 44.6039 110.863 45.7108 109.872C46.3956 109.258 58.0722 109.325 58.5131 109.872C59.3049 110.854 59.3587 118.524 58.5131 119.134C57.5177 119.851 46.1415 119.741 45.7108 119.134Z" fill="#E6EAF6"/>
<path d="M63.437 93.7099C63.0469 93.1597 62.3301 85.4394 63.437 84.448C64.1218 83.8346 75.7984 83.9008 76.2393 84.448C77.0311 85.4306 77.0849 93.1003 76.2393 93.7099C75.2439 94.4275 63.8677 94.3175 63.437 93.7099Z" fill="#E6EAF6"/>
<path d="M63.437 106.059C63.0469 105.509 62.3301 97.7887 63.437 96.7973C64.1218 96.1839 75.7984 96.2501 76.2393 96.7973C77.0311 97.7798 77.0849 105.45 76.2393 106.059C75.2439 106.777 63.8677 106.667 63.437 106.059Z" fill="#E6EAF6"/>
<path d="M63.437 118.408C63.0469 117.858 62.3301 110.138 63.437 109.146C64.1218 108.533 75.7984 108.599 76.2393 109.146C77.0311 110.129 77.0849 117.799 76.2393 118.408C75.2439 119.126 63.8677 119.016 63.437 118.408Z" fill="#E6EAF6"/>
<path d="M80.6711 93.7099C80.2811 93.1597 79.5643 85.4394 80.6711 84.448C81.3559 83.8346 93.0325 83.9008 93.4735 84.448C94.2652 85.4306 94.319 93.1003 93.4735 93.7099C92.4781 94.4275 81.1018 94.3175 80.6711 93.7099Z" fill="#E6EAF6"/>
<path d="M80.6711 106.059C80.2811 105.509 79.5643 97.7887 80.6711 96.7973C81.3559 96.1839 93.0325 96.2501 93.4735 96.7973C94.2652 97.7798 94.319 105.45 93.4735 106.059C92.4781 106.777 81.1018 106.667 80.6711 106.059Z" fill="#E6EAF6"/>
<path d="M80.6711 118.408C80.2811 117.858 79.5643 110.138 80.6711 109.146C81.3559 108.533 93.0325 108.599 93.4735 109.146C94.2652 110.129 94.319 117.799 93.4735 118.408C92.4781 119.126 81.1018 119.016 80.6711 118.408Z" fill="#E6EAF6"/>
<path d="M97.5835 93.3582C97.1934 92.808 96.4766 85.0877 97.5835 84.0963C98.2683 83.483 109.945 83.5491 110.386 84.0963C111.178 85.0789 111.231 92.7486 110.386 93.3582C109.39 94.0758 98.0141 93.9658 97.5835 93.3582Z" fill="#E6EAF6"/>
<path d="M97.5835 105.707C97.1934 105.157 96.4766 97.437 97.5835 96.4456C98.2683 95.8322 109.945 95.8984 110.386 96.4456C111.178 97.4281 111.231 105.098 110.386 105.707C109.39 106.425 98.0141 106.315 97.5835 105.707Z" fill="#E6EAF6"/>
<path d="M97.5835 118.057C97.1934 117.506 96.4766 109.786 97.5835 108.795C98.2683 108.181 109.945 108.248 110.386 108.795C111.178 109.777 111.231 117.447 110.386 118.057C109.39 118.774 98.0141 118.664 97.5835 118.057Z" fill="#E6EAF6"/>
<path d="M57.4878 93.4123C57.4179 93.4123 57.3474 93.3929 57.2847 93.3525L46.8368 86.6033C46.6666 86.4934 46.6197 86.2692 46.732 86.1026C46.8444 85.9361 47.0734 85.8902 47.2436 86.0001L57.6915 92.7491C57.8617 92.8591 57.9086 93.0833 57.7963 93.2499C57.7253 93.3551 57.6077 93.4123 57.4878 93.4123Z" fill="#9BA7CD"/>
<path d="M47.3387 93.818C47.2291 93.818 47.1207 93.7705 47.0478 93.6796C46.922 93.5225 46.9501 93.2953 47.1106 93.1721L56.9614 85.6117C57.1219 85.4885 57.354 85.516 57.4799 85.6731C57.6058 85.8302 57.5777 86.0573 57.4171 86.1805L47.5663 93.7409C47.4987 93.7928 47.4184 93.818 47.3387 93.818Z" fill="#9BA7CD"/>
<path d="M57.4878 118.437C57.4179 118.437 57.3474 118.417 57.2847 118.377L46.8368 111.628C46.6666 111.518 46.6197 111.294 46.732 111.127C46.8443 110.961 47.0734 110.915 47.2436 111.025L57.6915 117.774C57.8617 117.884 57.9086 118.108 57.7963 118.274C57.7253 118.38 57.6077 118.437 57.4878 118.437Z" fill="#9BA7CD"/>
<path d="M47.3387 118.843C47.2291 118.843 47.1207 118.795 47.0478 118.704C46.922 118.547 46.9501 118.32 47.1106 118.197L56.9614 110.636C57.1219 110.513 57.354 110.541 57.4799 110.698C57.6058 110.855 57.5777 111.082 57.4171 111.205L47.5663 118.766C47.4987 118.817 47.4184 118.843 47.3387 118.843Z" fill="#9BA7CD"/>
<path d="M87.2025 108.183C84.8453 108.183 82.6257 107.479 80.9523 106.201C79.2519 104.902 78.3154 103.167 78.3154 101.316C78.3154 99.4645 79.2519 97.7295 80.9523 96.4308C82.6257 95.1527 84.8453 94.4489 87.2025 94.4489C89.5596 94.4489 91.7793 95.1527 93.4526 96.4308C95.1531 97.7295 96.0895 99.4645 96.0895 101.316C96.0895 103.167 95.1531 104.902 93.4526 106.201C91.7792 107.479 89.5596 108.183 87.2025 108.183ZM87.2025 95.1717C82.7094 95.1717 79.054 97.928 79.054 101.316C79.054 104.704 82.7094 107.46 87.2025 107.46C91.6956 107.46 95.351 104.704 95.351 101.316C95.351 97.928 91.6956 95.1717 87.2025 95.1717Z" fill="#9BA7CD"/>
</svg>
