<svg width="24" height="24" viewBox="0 0 24 24" fill="none" xmlns="http://www.w3.org/2000/svg">
<path d="M12.0617 1.74188e-07C14.6286 -1.15331e-05 16.6446 -2.32371e-05 18.2183 0.211505C19.8301 0.428195 21.1089 0.881713 22.1136 1.88644C23.1183 2.89116 23.5717 4.16994 23.7884 5.78163C24 7.3554 24 9.37133 24 11.9383V12.0617C24 14.6286 24 16.6446 23.7884 18.2183C23.5717 19.8301 23.1183 21.1089 22.1136 22.1136C21.1089 23.1183 19.8301 23.5717 18.2183 23.7884C16.6446 24 14.6286 24 12.0617 24H11.9383C9.37133 24 7.3554 24 5.78163 23.7884C4.16994 23.5717 2.89116 23.1183 1.88644 22.1136C0.881713 21.1089 0.428195 19.8301 0.211505 18.2183C-2.32371e-05 16.6446 -1.15331e-05 14.6286 1.74188e-07 12.0617V11.9383C-1.15331e-05 9.37133 -2.32371e-05 7.3554 0.211505 5.78163C0.428195 4.16994 0.881713 2.89116 1.88644 1.88644C2.89116 0.881713 4.16994 0.428195 5.78163 0.211505C7.3554 -2.32371e-05 9.37133 -1.15331e-05 11.9383 1.74188e-07H12.0617ZM12 15.4985C11.3534 15.4985 10.8293 16.0226 10.8293 16.6692V16.6806C10.8293 17.3272 11.3534 17.8513 12 17.8513C12.6466 17.8513 13.1707 17.3272 13.1707 16.6806V16.6692C13.1707 16.0226 12.6466 15.4985 12 15.4985ZM12 6.14634C11.3534 6.14634 10.8293 6.6705 10.8293 7.31707V12.5854C10.8293 13.232 11.3534 13.7561 12 13.7561C12.6466 13.7561 13.1707 13.232 13.1707 12.5854V7.31707C13.1707 6.6705 12.6466 6.14634 12 6.14634Z" fill="#F52C40"/>
</svg>
