<svg width="18" height="18" viewBox="0 0 18 18" fill="none" xmlns="http://www.w3.org/2000/svg">
<path d="M16.8223 8.33887C17.2363 8.33904 17.5722 8.67484 17.5723 9.08887C17.5723 11.4436 16.7716 13.6137 15.2646 15.2002C13.752 16.7926 11.5717 17.75 8.91113 17.75C6.2506 17.75 4.07031 16.7926 2.55762 15.2002C1.05063 13.6137 0.25 11.4436 0.25 9.08887C0.250099 8.67474 0.585847 8.33887 1 8.33887C1.41415 8.33887 1.7499 8.67474 1.75 9.08887C1.75 11.1048 2.43322 12.8907 3.64551 14.167C4.8522 15.4372 6.62753 16.25 8.91113 16.25C11.1948 16.25 12.9701 15.4372 14.1768 14.167C15.389 12.8907 16.0723 11.1048 16.0723 9.08887C16.0724 8.67474 16.4081 8.33887 16.8223 8.33887Z" fill="#151720"/>
<path d="M8.79199 0.25C9.20621 0.25 9.54199 0.585786 9.54199 1V9.31543L10.793 8.06445C11.0859 7.77156 11.5616 7.77156 11.8545 8.06445C12.147 8.3573 12.1471 8.83219 11.8545 9.125L9.32227 11.6562C9.18163 11.7969 8.99087 11.876 8.79199 11.876C8.59322 11.8759 8.4023 11.7968 8.26172 11.6562L5.73047 9.125C5.43759 8.83212 5.43761 8.35735 5.73047 8.06445C6.02336 7.77156 6.49812 7.77156 6.79102 8.06445L8.04199 9.31543V1C8.04199 0.585868 8.37789 0.250132 8.79199 0.25Z" fill="#151720"/>
</svg>
