<svg width="20" height="20" viewBox="0 0 20 20" fill="none" xmlns="http://www.w3.org/2000/svg">
<rect width="20" height="20" rx="10" fill="#AA3945" fill-opacity="0.14"/>
<path d="M12.6264 5.9594C13.0169 5.56906 13.65 5.56901 14.0405 5.9594C14.4308 6.34988 14.4308 6.98298 14.0405 7.37346L11.4135 9.99944L14.0405 12.6264C14.4306 13.0169 14.4308 13.6501 14.0405 14.0405C13.6501 14.4308 13.0169 14.4306 12.6264 14.0405L9.99944 11.4135L7.37346 14.0405C6.98298 14.4308 6.34988 14.4308 5.9594 14.0405C5.56901 13.65 5.56906 13.0169 5.9594 12.6264L8.58537 9.99944L5.9594 7.37346C5.56887 6.98294 5.56887 6.34992 5.9594 5.9594C6.34992 5.56887 6.98294 5.56887 7.37346 5.9594L9.99944 8.58537L12.6264 5.9594Z" fill="#AA3945"/>
</svg>
