<svg width="60" height="60" viewBox="0 0 60 60" fill="none" xmlns="http://www.w3.org/2000/svg">
<path d="M45.0913 3H14.9427C11.7777 3 8.74226 4.25693 6.50423 6.49428C4.26621 8.73164 3.0089 11.7661 3.0089 14.9302V45.0698C2.99703 45.1108 2.99703 45.1543 3.0089 45.1953C3.04199 48.3376 4.31389 51.34 6.54834 53.5502C8.78279 55.7605 11.7993 57.0002 14.9427 57H45.0913C48.2218 56.9938 51.2244 55.7581 53.452 53.5593C55.6797 51.3605 56.9539 48.3748 57 45.2456V14.9302C57 11.7705 55.7461 8.73978 53.5136 6.50315C51.281 4.26652 48.252 3.00665 45.0913 3ZM53.2565 40.0465L42.7548 28.0409C42.0876 27.3308 41.2819 26.7649 40.3874 26.378C39.493 25.9911 38.5287 25.7915 37.5542 25.7915C36.5796 25.7915 35.6153 25.9911 34.7209 26.378C33.8265 26.7649 33.0208 27.3308 32.3535 28.0409L25.143 36.2791L22.7813 33.4158C22.1306 32.6354 21.3162 32.0075 20.3958 31.5766C19.4753 31.1458 18.4714 30.9224 17.4551 30.9224C16.4388 30.9224 15.4349 31.1458 14.5144 31.5766C13.594 32.0075 12.7796 32.6354 12.1288 33.4158L6.77747 39.8707V14.9302C6.7841 12.7674 7.64649 10.695 9.17634 9.16559C10.7062 7.6362 12.7792 6.77407 14.9427 6.76744H45.0913C47.2548 6.77407 49.3278 7.6362 50.8577 9.16559C52.3875 10.695 53.2499 12.7674 53.2565 14.9302V40.0465Z" fill="#AEB3C7"/>
<path d="M17.4549 22.4652C20.23 22.4652 22.4797 20.2162 22.4797 17.442C22.4797 14.6677 20.23 12.4187 17.4549 12.4187C14.6798 12.4187 12.4302 14.6677 12.4302 17.442C12.4302 20.2162 14.6798 22.4652 17.4549 22.4652Z" fill="#AEB3C7"/>
</svg>
