<svg width="66" height="70" viewBox="0 0 66 70" fill="none" xmlns="http://www.w3.org/2000/svg">
<rect width="66" height="70" rx="8" fill="#E0E3EC"/>
<path d="M37.4782 36.9495C39.9599 36.9496 42.346 38.05 43.7447 39.7056C44.4546 40.546 44.9535 41.586 44.9969 42.7384C45.0412 43.9153 44.6043 45.0637 43.7023 46.0661C41.5045 48.5085 37.9956 49.9999 33.0007 50C28.0053 50 24.4957 48.5086 22.2977 46.0661C21.3959 45.0637 20.9587 43.9153 21.0031 42.7384C21.0465 41.586 21.5454 40.546 22.2553 39.7056C23.6539 38.05 26.0402 36.9496 28.5218 36.9495H37.4782ZM32.9993 21C37.121 21 40.4624 24.2459 40.4624 28.25C40.4624 32.2541 37.121 35.5 32.9993 35.5C28.8779 35.4997 25.5363 32.2539 25.5363 28.25C25.5363 24.2461 28.8779 21.0003 32.9993 21Z" fill="#AEB3C7"/>
</svg>
