<svg width="16" height="16" viewBox="0 0 16 16" fill="none" xmlns="http://www.w3.org/2000/svg">
<path d="M13.7717 6.09199L13.9368 5.95447C14.0934 5.82392 14.184 5.63053 14.184 5.42661V3.68711C14.184 3.30763 13.8764 3 13.4969 3H2.50312C2.12364 3 1.81601 3.30763 1.81601 3.68711V5.42662C1.81601 5.63053 1.90658 5.82392 2.06325 5.95447L5.72618 9.00691C5.86252 9.12056 5.94961 9.28251 5.96921 9.45889L6.5169 14.3881C6.56971 14.8634 7.07975 15.1407 7.50733 14.9267L9.0455 14.1568C9.24668 14.0561 9.38582 13.8633 9.41798 13.6405L9.61497 12.276" stroke="#494A4C" stroke-width="1.5" stroke-linecap="round" stroke-linejoin="round"/>
<path d="M11.7791 6.43555V11.2453M14.184 8.84043H9.37424" stroke="#494A4C" stroke-width="1.5" stroke-linecap="round" stroke-linejoin="round"/>
</svg>
