<svg width="19" height="19" viewBox="0 0 19 19" fill="none" xmlns="http://www.w3.org/2000/svg">
<path fill-rule="evenodd" clip-rule="evenodd" d="M16.4763 0.25C17.4806 0.250278 18.25 1.08191 18.25 2.05175V4.40797C18.25 4.93277 18.0241 5.43772 17.6217 5.78337L12.7928 9.93C12.7854 9.93662 12.7754 9.95064 12.7724 9.97195L11.9763 15.655C11.906 16.1569 11.6298 16.6095 11.2119 16.8955L11.0237 17.0077L9.00164 18.0509C7.86451 18.6374 6.56528 17.8569 6.4341 16.6403L5.71396 9.96401C5.7115 9.9412 5.70164 9.9257 5.69355 9.91866L0.878276 5.78337C0.47594 5.43774 0.250001 4.93281 0.25 4.40797V2.05175C0.25 1.0819 1.01947 0.250278 2.02369 0.25H16.4763ZM2.02029 1.99279C2.02029 1.99279 2.01436 1.99517 2.01008 1.99959C2.00061 2.00942 1.99194 2.02657 1.99194 2.05175V4.40797C1.99194 4.43546 2.0041 4.45433 2.01348 4.46239L6.82875 8.59768C7.17894 8.89859 7.39779 9.32216 7.44682 9.77692L8.16583 16.4544C8.16793 16.4735 8.17372 16.4833 8.17717 16.4884C8.18143 16.4947 8.18657 16.5001 8.19191 16.5031C8.19399 16.5043 8.19758 16.5043 8.19758 16.5043C8.19758 16.5043 8.20076 16.5044 8.20325 16.5031L10.2253 15.46C10.2318 15.4564 10.2473 15.4426 10.2514 15.4135L11.0475 9.73043C11.1082 9.29721 11.3236 8.89686 11.6588 8.60902L16.4865 4.46239C16.4959 4.45436 16.5081 4.4355 16.5081 4.40797V2.05175C16.5081 2.02656 16.4994 2.00941 16.4899 1.99959C16.4856 1.99517 16.4797 1.99279 16.4797 1.99279L16.4763 1.99165H2.02369L2.02029 1.99279Z" fill="#151720"/>
</svg>
