<svg width="19" height="19" viewBox="0 0 19 19" fill="none" xmlns="http://www.w3.org/2000/svg">
<path d="M9.74995 0.75C10.689 0.75 11.5257 0.750191 12.2675 0.76715C12.631 0.775486 12.9188 1.07671 12.9106 1.44026C12.9023 1.80383 12.601 2.09161 12.2375 2.08337C11.5139 2.06682 10.6933 2.06707 9.74995 2.06707C7.76524 2.06707 6.34278 2.06827 5.26112 2.2137C4.19849 2.35659 3.56404 2.62802 3.09602 3.09604C2.62801 3.56405 2.35658 4.19851 2.21369 5.26115C2.06827 6.34282 2.06707 7.76528 2.06707 9.75C2.06707 11.7347 2.06827 13.1572 2.21369 14.2389C2.35658 15.3015 2.62801 15.9359 3.09602 16.404C3.56404 16.872 4.19849 17.1434 5.26112 17.2863C6.34278 17.4317 7.76524 17.4329 9.74995 17.4329C11.7347 17.4329 13.1571 17.4317 14.2388 17.2863C15.3014 17.1434 15.9359 16.872 16.4039 16.404C16.8719 15.9359 17.1433 15.3015 17.2862 14.2389C17.4316 13.1572 17.4328 11.7347 17.4328 9.75C17.4328 8.4268 17.4324 7.34829 17.3874 6.44617C17.3693 6.08299 17.6493 5.77409 18.0125 5.75591C18.3757 5.7378 18.6846 6.01775 18.7027 6.381C18.7497 7.32295 18.7499 8.43809 18.7499 9.75C18.7499 11.6973 18.7512 13.224 18.5913 14.4138C18.4288 15.6225 18.0886 16.5816 17.3351 17.3352C16.5815 18.0887 15.6225 18.4289 14.4137 18.5914C13.2239 18.7513 11.6972 18.75 9.74995 18.75C7.80269 18.75 6.27597 18.7513 5.0862 18.5914C3.87743 18.4289 2.91835 18.0887 2.16482 17.3352C1.41128 16.5816 1.07115 15.6225 0.908631 14.4138C0.748716 13.224 0.75 11.6973 0.75 9.75C0.75 7.80272 0.748716 6.276 0.908631 5.08622C1.07115 3.87745 1.41128 2.91836 2.16482 2.16483C2.91835 1.41129 3.87743 1.07115 5.0862 0.908632C6.27597 0.748716 7.80269 0.75 9.74995 0.75Z" fill="#151720"/>
<path d="M17.8624 2.10823C18.2034 1.98179 18.5822 2.15572 18.7087 2.49667C18.8352 2.83762 18.6613 3.21649 18.3203 3.34299C17.3567 3.70055 16.3418 4.43634 15.3441 5.38977C14.353 6.33681 13.4154 7.46357 12.6019 8.55297C11.7898 9.64049 11.1095 10.6801 10.6323 11.4486C10.3939 11.8325 10.2064 12.1477 10.0792 12.3661C10.0158 12.4751 9.96753 12.5602 9.93516 12.6174C9.91898 12.646 9.90625 12.6683 9.89829 12.6825C9.89443 12.6895 9.89155 12.6947 9.88972 12.698L9.888 12.7014L9.88714 12.7023C9.77214 12.9106 9.554 13.0408 9.31607 13.0427C9.07801 13.0445 8.85712 12.9175 8.739 12.7108C7.89452 11.233 7.18644 10.5481 6.73853 10.2345C6.51554 10.0784 6.35514 10.0134 6.27122 9.98666C6.22892 9.97321 6.20394 9.96865 6.19833 9.9678C6.19833 9.9678 6.20152 9.96845 6.20433 9.96865C6.20752 9.96889 6.2118 9.96931 6.2172 9.96951H6.23606L6.23692 9.96865C5.87362 9.96819 5.57925 9.67439 5.57924 9.31098C5.57924 8.94728 5.87408 8.65244 6.23778 8.65244V9.15577C6.23789 8.65254 6.23949 8.65244 6.23949 8.65244H6.25064C6.25532 8.65252 6.26072 8.6531 6.26607 8.6533C6.27672 8.65369 6.28886 8.65403 6.30208 8.65501C6.32869 8.657 6.36077 8.66061 6.39726 8.66616C6.47047 8.67732 6.56243 8.69685 6.67079 8.73133C6.88865 8.80065 7.16743 8.92783 7.4931 9.15577C8.00008 9.51066 8.61549 10.1077 9.29464 11.1108C9.36214 10.9997 9.4349 10.8803 9.51329 10.7541C10.0044 9.96323 10.7057 8.88984 11.5463 7.7641C12.3856 6.64016 13.3723 5.45277 14.4343 4.43798C15.4895 3.4296 16.6568 2.55555 17.8624 2.10823Z" fill="#151720"/>
</svg>
