<svg width="40" height="41" viewBox="0 0 40 41" fill="none" xmlns="http://www.w3.org/2000/svg">
<path d="M36.7227 20.8418L35.0298 11.6689L32.3371 13.9681L25.1799 20.0702C24.7232 20.456 24.1327 20.6449 23.5422 20.5898C23.4792 20.5819 23.4162 20.5741 23.3532 20.5662C23.3217 20.5662 23.2902 20.5583 23.2587 20.5504C23.2272 20.5426 23.1878 20.5347 23.1642 20.5268C23.1091 20.5111 23.0382 20.4875 22.9753 20.4717L10.7789 16.1333L11.9049 22.2669L11.9442 22.4716C12.6765 23.0464 13.456 23.629 14.2591 24.2117C15.1331 24.8416 16.0543 25.4794 17.007 26.1093C17.5267 26.4478 18.0542 26.7864 18.6054 27.1328C19.0542 27.4084 19.503 27.6761 19.936 27.9438C20.7391 28.4162 21.5265 28.865 22.2981 29.2902L23.1012 29.5737C24.8807 30.2114 26.8648 29.8492 28.3057 28.621L30.3056 26.9202L34.1165 23.6684L36.4077 21.7157C36.6676 21.4874 36.7857 21.1646 36.7227 20.8418Z" fill="#2A428C"/>
<path d="M39.7778 7.62176L35.03 11.6688L32.3372 13.9679L25.18 20.07C24.7233 20.4558 24.1328 20.6448 23.5423 20.5897C23.4793 20.5818 23.4163 20.574 23.3533 20.5661C23.3218 20.5661 23.2903 20.5582 23.2588 20.5503C23.2273 20.5425 23.188 20.5346 23.1644 20.5267C23.1092 20.511 23.0384 20.4873 22.9754 20.4716L10.7791 16.1332L9.8106 15.7868L6.69263 14.6766L4.91318 14.0467C4.4565 13.8892 4.34627 13.2908 4.71633 12.9837L6.31469 11.6137L8.45633 9.77915L19.2984 0.53546C19.9125 0.0157978 20.755 -0.141676 21.5109 0.133903L39.581 6.55882C40.0376 6.71629 40.1479 7.30682 39.7778 7.62176Z" fill="#3C58A0"/>
<path d="M24.8809 39.5417C25.0068 39.707 25.1643 39.8487 25.3533 39.9511C26.5658 40.6282 28.4555 39.5574 29.5736 37.5575C30.6995 35.5497 30.6286 33.3845 29.424 32.6994C29.3216 32.6601 29.2271 32.6128 29.1248 32.5735H29.1169C27.9122 32.1955 26.2273 33.2585 25.1958 35.1009C24.2431 36.7938 24.1565 38.6126 24.8809 39.5417Z" fill="#FC8B4C"/>
<path d="M29.1088 32.5655C28.4395 32.2899 27.66 32.6049 27.0301 33.0379C26.9593 33.0851 26.8884 33.1324 26.8175 33.1875C26.7545 33.2347 26.6837 33.2899 26.6286 33.3371C26.5813 33.3686 26.5341 33.408 26.4947 33.4473C26.4475 33.4946 26.4002 33.5261 26.3609 33.5733C26.3372 33.5969 26.3136 33.6127 26.2979 33.6363C26.2664 33.6678 26.2428 33.6914 26.2191 33.7229C26.1561 33.7859 26.101 33.841 26.038 33.9119C25.9672 33.9906 25.8884 34.0851 25.8176 34.1796C25.7467 34.2741 25.668 34.3686 25.5971 34.4709C25.5263 34.5811 25.4475 34.6914 25.3688 34.8095C25.1011 35.211 24.8727 35.6598 24.6995 36.1165C24.3373 37.085 24.2271 38.1164 24.5893 39.0061C24.6129 39.0613 24.6365 39.1164 24.6602 39.1636C24.6759 39.1951 24.6838 39.2266 24.7074 39.2581C24.7231 39.3053 24.7546 39.3447 24.7783 39.3841C24.8098 39.4392 24.8491 39.4943 24.8885 39.5416C22.5736 37.5338 19.81 35.3764 16.5424 33.2584H16.5345C15.9046 32.8489 15.2747 32.4474 14.6055 32.0379C14.2826 31.8411 13.952 31.6364 13.6213 31.4474C13.5976 31.4317 13.574 31.4159 13.5504 31.4002H13.5425C10.6293 29.6916 7.84198 28.3294 5.30666 27.2429L4.25159 22.1486C4.26733 22.1092 4.29096 22.0778 4.31458 22.0384C4.83424 21.1172 5.51137 20.3928 6.21213 19.9519C7.03099 19.4243 7.88922 19.2747 8.55061 19.6369C8.70809 19.7786 8.86556 19.9204 9.03091 20.0621C9.92851 20.8416 10.9048 21.6447 11.9442 22.4636C12.6764 23.0383 13.4559 23.621 14.259 24.2115C15.133 24.8414 16.0542 25.4792 17.0148 26.1091C17.5345 26.4555 18.062 26.7862 18.6132 27.1327C19.062 27.4082 19.5029 27.6759 19.9438 27.9436C20.7469 28.4161 21.5343 28.8649 22.3138 29.29C23.7547 30.0774 25.1562 30.7782 26.5026 31.4002C27.4002 31.8254 28.2663 32.2112 29.1088 32.5655Z" fill="#FCAD6D"/>
<path d="M26.7389 37.1559C26.7704 37.2032 26.8098 37.2347 26.857 37.2583C27.172 37.4315 27.6602 37.1559 27.9515 36.6363C28.2428 36.1166 28.2271 35.5576 27.9121 35.3765C27.8885 35.3686 27.857 35.3529 27.8334 35.345C27.5184 35.2505 27.0854 35.5182 26.8177 35.9985C26.5736 36.4473 26.55 36.9197 26.7389 37.1559Z" fill="#FF4155"/>
<path d="M19.936 27.9438C19.7943 28.0382 19.6368 28.1485 19.4636 28.2823C19.3691 28.3453 19.2746 28.4241 19.1802 28.5107C18.8022 28.8335 18.3849 29.2508 17.9912 29.7783C16.9755 31.1405 16.6527 32.5184 16.5346 33.2585C15.9598 32.8805 15.3772 32.5105 14.7709 32.1404C14.7158 32.1089 14.6607 32.0774 14.6055 32.0381C14.2827 31.8412 13.952 31.6365 13.6213 31.4475C13.5977 31.4318 13.5741 31.416 13.5505 31.4003H13.5426C13.6135 30.7861 13.8182 29.5421 14.6843 28.2666C15.0465 27.739 15.4402 27.3139 15.8102 26.9753C15.9598 26.8336 16.1173 26.7155 16.2511 26.6131C16.5503 26.3926 16.8181 26.2273 17.0149 26.1092C17.4401 26.3848 17.8731 26.6682 18.314 26.9438C18.4164 27.0068 18.5109 27.0619 18.6132 27.1328C19.0542 27.4083 19.4951 27.6839 19.936 27.9438Z" fill="#E9EFFF"/>
<path d="M16.5347 33.2505C15.897 33.5576 15.149 33.9749 14.3616 34.5654C13.6923 35.0693 13.1491 35.5733 12.716 36.0299C12.3144 35.5575 11.8263 35.0457 11.2357 34.5182C11.1885 34.4788 11.1413 34.4394 11.094 34.4001C10.5507 33.9277 10.0311 33.5497 9.55078 33.2348C10.0862 32.8883 10.7318 32.5183 11.472 32.1797C12.2121 31.8333 12.9128 31.5813 13.527 31.4002H13.5349C13.5585 31.416 13.5821 31.4317 13.6057 31.4475C13.9837 31.6758 14.3616 31.912 14.7395 32.1403C15.3458 32.5104 15.9363 32.8805 16.5347 33.2505Z" fill="#D3DCFB"/>
<path d="M7.03921 35.7072L5.29126 36.0694L1.91345 21.1881L3.97635 20.7708L4.25193 22.1487L5.30701 27.243L7.03921 35.7072Z" fill="#FF4155"/>
<path opacity="0.56" d="M3.9762 20.7708L1.9133 21.1881L0.622016 21.4558L0.251953 19.6842L1.50387 19.4244L3.60614 18.9913L3.9762 20.7708Z" fill="#D3DCFB"/>
<path d="M3.60601 18.9914L1.50373 19.4245L0.897461 16.7553C1.03919 16.6765 1.19666 16.6214 1.36201 16.5821C2.2911 16.3931 3.19657 16.9836 3.37767 17.9127L3.60601 18.9914Z" fill="#FF4155"/>
<path opacity="0.56" d="M7.03912 35.7072L6.07853 39.5338L3.68494 36.4L5.29117 36.0693L7.03912 35.7072Z" fill="#D3DCFB"/>
<path d="M34.9987 29.0697C34.6916 29.0697 34.416 28.8493 34.3609 28.5343L31.7705 14.4483L22.0229 10.9052C21.6843 10.7792 21.5111 10.4091 21.6292 10.0705C21.7552 9.73198 22.1252 9.55876 22.4638 9.67687L22.4796 9.68474L32.5579 13.346C32.7704 13.4247 32.9279 13.6058 32.9752 13.8263C32.9752 13.8342 32.9752 13.842 32.983 13.8499L35.6443 28.2981C35.7073 28.6524 35.4711 28.991 35.1168 29.054C35.0774 29.0697 35.0381 29.0697 34.9987 29.0697Z" fill="#4CE088"/>
<path d="M36.6363 30.4869C36.3686 30.8727 35.967 31.1325 35.5103 31.2113C35.4001 31.227 35.2977 31.2428 35.1954 31.2428C34.3608 31.2428 33.6285 30.6522 33.471 29.8098C33.2978 28.8649 33.9277 27.9516 34.8726 27.7705C35.8174 27.5973 36.7307 28.2272 36.9118 29.172C37.0063 29.6365 36.904 30.1011 36.6363 30.4869Z" fill="#30C16B"/>
<path opacity="0.56" d="M14.771 32.1324C14.7631 32.1403 14.7552 32.1403 14.7473 32.1403C14.0938 32.3607 13.212 32.7387 12.2908 33.4001C11.8262 33.7386 11.4325 34.0772 11.1018 34.4079C10.5586 33.9355 10.0389 33.5575 9.55859 33.2426C10.094 32.8961 10.7396 32.5261 11.4798 32.1875C12.2199 31.8411 12.9207 31.5891 13.5348 31.408H13.5427C13.5663 31.4238 13.5899 31.4395 13.6135 31.4553C13.9442 31.6442 14.2749 31.8489 14.5977 32.0458C14.6607 32.0694 14.7159 32.1009 14.771 32.1324Z" fill="#D3DCFB"/>
<path d="M18.3062 26.9437C17.5424 27.55 16.5582 28.4554 15.8653 29.5262C15.4953 30.0931 15.0622 30.9435 14.8024 32.1246C14.7945 32.1324 14.7866 32.1324 14.7709 32.1324C14.7158 32.1009 14.6607 32.0694 14.6055 32.0301C14.2827 31.8332 13.952 31.6285 13.6213 31.4395C13.5977 31.4238 13.5741 31.4081 13.5505 31.3923H13.5426C13.6135 30.7782 13.8182 29.5341 14.6843 28.2586C15.0465 27.731 15.4402 27.3059 15.8102 26.9673C15.9598 26.8256 16.1173 26.7075 16.2511 26.6051C16.5503 26.3846 16.8181 26.2193 17.0149 26.1012C17.4322 26.3846 17.8652 26.6681 18.3062 26.9437Z" fill="#D3DCFB"/>
<path d="M24.8806 39.5338C22.5658 37.526 19.8021 35.3686 16.5345 33.2506C15.9046 32.8412 15.2747 32.4396 14.6055 32.0302C14.2826 31.8333 13.952 31.6286 13.6213 31.4396C13.5976 31.4239 13.574 31.4082 13.5504 31.3924H13.5425C10.6293 29.6838 7.84198 28.3217 5.30666 27.2351L4.25159 22.1487C4.26733 22.1094 4.29096 22.0779 4.31458 22.0385C4.83424 21.1173 5.51137 20.3929 6.21213 19.952C7.4483 22.1566 9.18838 24.7392 11.6528 27.3138C16.2983 32.1798 21.3375 34.7623 24.6995 36.1087C24.3373 37.0772 24.2271 38.1086 24.5893 38.9984C24.6129 39.0535 24.6365 39.1086 24.6602 39.1558C24.6759 39.1873 24.6838 39.2188 24.7074 39.2503C24.7231 39.2976 24.7546 39.3369 24.7783 39.3763C24.8019 39.4393 24.8412 39.4865 24.8806 39.5338Z" fill="#FD995B"/>
<path d="M5.29116 36.0693L3.68493 36.4C3.33849 34.7308 2.99992 33.0616 2.66135 31.3924C1.97634 28.0854 1.29921 24.7706 0.62207 21.4558L1.91335 21.1881L5.29116 36.0693Z" fill="#E80054"/>
<path d="M1.50387 19.4244L0.251958 19.6842L0.0314947 18.6134C0.00787368 18.4953 0 18.3772 0 18.2669C0 17.6292 0.354315 17.0544 0.905472 16.7552L1.50387 19.4244Z" fill="#E80054"/>
<path d="M1.9133 21.1881L0.622016 21.4558L0.251953 19.6843L1.50387 19.4244L1.9133 21.1881Z" fill="#D3DCFB"/>
<path d="M6.07853 39.5338L3.68494 36.4L5.29117 36.0693L6.07853 39.5338Z" fill="#D3DCFB"/>
</svg>
