<svg width="20" height="20" viewBox="0 0 20 20" fill="none" xmlns="http://www.w3.org/2000/svg">
<path opacity="0.2" d="M10 19C5.02944 19 1 14.9706 1 10C1 5.02944 5.02944 1 10 1C14.9706 1 19 5.02944 19 10C19 14.9706 14.9706 19 10 19Z" fill="#17B26A"/>
<path fill-rule="evenodd" clip-rule="evenodd" d="M13.9476 8.06319C14.2585 7.72392 14.2356 7.19678 13.8963 6.88579C13.5571 6.5748 13.0299 6.59772 12.7189 6.93698L8.72375 11.2954L7.25584 9.8275C6.9304 9.50208 6.40277 9.50208 6.07733 9.8275C5.75189 10.1529 5.75189 10.6806 6.07733 11.006L8.16066 13.0893C8.32139 13.2501 8.54075 13.3382 8.768 13.3332C8.99525 13.3282 9.21059 13.2307 9.36425 13.0632L13.9476 8.06319Z" fill="#17B26A"/>
</svg>
