<svg width="19" height="19" viewBox="0 0 19 19" fill="none" xmlns="http://www.w3.org/2000/svg">
<path fill-rule="evenodd" clip-rule="evenodd" d="M9.25 0.25C11.1677 0.25 12.6838 0.248554 13.8675 0.407701C15.0733 0.569847 16.0489 0.911692 16.8186 1.68136C17.5883 2.45105 17.9302 3.42669 18.0923 4.63248C18.2514 5.8162 18.25 7.33232 18.25 9.25C18.25 11.1677 18.2514 12.6838 18.0923 13.8675C17.9302 15.0733 17.5883 16.0489 16.8186 16.8186C16.0489 17.5883 15.0733 17.9302 13.8675 18.0923C12.6838 18.2514 11.1677 18.25 9.25 18.25C7.33232 18.25 5.8162 18.2514 4.63248 18.0923C3.42669 17.9302 2.45105 17.5883 1.68136 16.8186C0.911692 16.0489 0.569847 15.0733 0.407701 13.8675C0.248554 12.6838 0.25 11.1677 0.25 9.25C0.25 7.33232 0.248554 5.81621 0.407701 4.63248C0.569847 3.42668 0.911677 2.45105 1.68136 1.68136C2.45105 0.911677 3.42668 0.569847 4.63248 0.407701C5.81621 0.248554 7.33232 0.25 9.25 0.25ZM1.80491 11.3212C1.81876 12.2588 1.85049 13.0218 1.9365 13.6616C2.07562 14.6964 2.33692 15.2925 2.77221 15.7278C3.20751 16.1631 3.80356 16.4244 4.83839 16.5635C5.89541 16.7056 7.28877 16.7071 9.25 16.7071C11.2112 16.7071 12.6046 16.7056 13.6616 16.5635C14.6964 16.4244 15.2925 16.1631 15.7278 15.7278C16.1631 15.2925 16.4244 14.6964 16.5635 13.6616C16.6495 13.0218 16.6812 12.2588 16.6951 11.3212H13.2116C12.9677 11.3215 12.6514 11.5235 12.3879 11.951L12.2785 12.1479C11.8129 13.0803 10.8626 13.9198 9.25 13.9198C7.63737 13.9198 6.68705 13.0803 6.22154 12.1479C5.94058 11.5849 5.5662 11.3212 5.28739 11.3212H1.80491ZM9.25 1.79286C7.28876 1.79286 5.89541 1.7944 4.83839 1.9365C3.80356 2.07563 3.20752 2.33691 2.77221 2.77221C2.33691 3.20752 2.07563 3.80356 1.9365 4.83839C1.7944 5.89541 1.79286 7.28876 1.79286 9.25C1.79286 9.43089 1.79373 9.60694 1.79386 9.77835H5.28739C6.46731 9.77835 7.2397 10.7336 7.60168 11.4588L7.70011 11.6326C7.95535 12.0315 8.40481 12.3769 9.25 12.3769C10.2161 12.3769 10.6652 11.9256 10.8983 11.4588L11.053 11.1786C11.4593 10.51 12.1793 9.77858 13.2116 9.77835H16.7061C16.7063 9.60694 16.7071 9.43089 16.7071 9.25C16.7071 7.28877 16.7056 5.89541 16.5635 4.83839C16.4244 3.80356 16.1631 3.20751 15.7278 2.77221C15.2925 2.33692 14.6964 2.07562 13.6616 1.9365C12.6046 1.7944 11.2112 1.79286 9.25 1.79286Z" fill="#151720"/>
</svg>
