<svg width="19" height="19" viewBox="0 0 19 19" fill="none" xmlns="http://www.w3.org/2000/svg">
<path d="M8.62079 7.72656C8.79693 7.72656 8.99905 7.72536 9.16887 7.7482C9.33487 7.77056 9.54713 7.82399 9.73858 7.97806L9.81971 8.05108L9.89183 8.13131C10.0463 8.32298 10.1002 8.53573 10.1226 8.70192C10.1454 8.87171 10.1442 9.07395 10.1442 9.25V13.4038C10.144 13.7858 9.83378 14.0957 9.45192 14.0962C9.06969 14.0962 8.75981 13.786 8.75962 13.4038V9.25C8.75961 9.19844 8.75805 9.15258 8.75781 9.11208C8.71748 9.11185 8.67208 9.11118 8.62079 9.11118C8.23844 9.11118 7.92849 8.80122 7.92849 8.41887C7.92867 8.03668 8.23856 7.72656 8.62079 7.72656Z" fill="#151720"/>
<path d="M9.2509 5.00421C9.7606 5.00433 10.174 5.41756 10.174 5.92728C10.1738 6.43685 9.76049 6.85024 9.2509 6.85036H9.24369C8.734 6.85036 8.3208 6.43693 8.32061 5.92728C8.32061 5.41748 8.73389 5.00421 9.24369 5.00421H9.2509Z" fill="#151720"/>
<path fill-rule="evenodd" clip-rule="evenodd" d="M9.25 0.25C14.2206 0.25 18.25 4.27944 18.25 9.25C18.25 14.2206 14.2206 18.25 9.25 18.25C4.27944 18.25 0.25 14.2206 0.25 9.25C0.25 4.27944 4.27944 0.25 9.25 0.25ZM9.25 1.63462C5.04414 1.63462 1.63462 5.04414 1.63462 9.25C1.63462 13.4559 5.04414 16.8654 9.25 16.8654C13.4559 16.8654 16.8654 13.4559 16.8654 9.25C16.8654 5.04414 13.4559 1.63462 9.25 1.63462Z" fill="#151720"/>
</svg>
