<svg width="24" height="24" viewBox="0 0 24 24" fill="none" xmlns="http://www.w3.org/2000/svg">
<path opacity="0.2" d="M12 21.9999C17.5228 21.9999 22 17.5228 22 11.9999C22 6.47706 17.5228 1.99991 12 1.99991C6.47715 1.99991 2 6.47706 2 11.9999C2 17.5228 6.47715 21.9999 12 21.9999Z" fill="#3560FB"/>
<path d="M12 21.9999C17.5228 21.9999 22 17.5228 22 11.9999C22 6.47706 17.5228 1.99991 12 1.99991C6.47715 1.99991 2 6.47706 2 11.9999C2 17.5228 6.47715 21.9999 12 21.9999Z" stroke="#3560FB" stroke-width="1.5" stroke-linecap="round" stroke-linejoin="round"/>
<path d="M12 15.9999V11.9999" stroke="#3560FB" stroke-width="1.5" stroke-linecap="round" stroke-linejoin="round"/>
<path d="M11.875 8.24994H12M11.75 8.24994C11.75 8.11187 11.8619 7.99994 12 7.99994C12.1381 7.99994 12.25 8.11187 12.25 8.24994C12.25 8.38801 12.1381 8.49994 12 8.49994C11.8619 8.49994 11.75 8.38801 11.75 8.24994Z" stroke="#3560FB" stroke-width="1.5" stroke-linecap="round" stroke-linejoin="round"/>
</svg>
