<svg width="19" height="19" viewBox="0 0 19 19" fill="none" xmlns="http://www.w3.org/2000/svg">
<path d="M5.04596 7.81922C5.33495 7.77345 5.63016 7.77345 5.91914 7.81922C6.31891 7.88262 6.66698 8.05172 7.00408 8.28933C7.28733 8.48913 7.35497 8.88078 7.15534 9.16415C6.95562 9.44746 6.56393 9.51571 6.28052 9.31623C6.04907 9.15308 5.87881 9.08433 5.72211 9.0595C5.5634 9.03439 5.4017 9.03439 5.243 9.0595C5.04883 9.09026 4.83337 9.18806 4.50226 9.4544C4.16185 9.72826 3.75966 10.1291 3.17695 10.7118C2.59425 11.2946 2.19336 11.6967 1.9195 12.0372C1.65318 12.3682 1.55536 12.5837 1.52461 12.7779C1.4995 12.9366 1.49949 13.0983 1.52461 13.257C1.55537 13.4511 1.65319 13.6667 1.9195 13.9977C2.19336 14.3381 2.59427 14.7404 3.17695 15.323C3.75964 15.9057 4.16185 16.3066 4.50226 16.5805C4.83334 16.8468 5.04884 16.9446 5.243 16.9754C5.4017 17.0005 5.56341 17.0005 5.72211 16.9754C5.91626 16.9446 6.13176 16.8468 6.46284 16.5805C6.80325 16.3066 7.20545 15.9058 7.78815 15.323C8.37085 14.7403 8.77174 14.3381 9.0456 13.9977C9.31191 13.6667 9.40973 13.4511 9.4405 13.257C9.46561 13.0983 9.4656 12.9366 9.4405 12.7779C9.41568 12.6212 9.3469 12.4509 9.18378 12.2195C8.98425 11.9361 9.05251 11.5444 9.33585 11.3447C9.61924 11.145 10.0109 11.2126 10.2107 11.4959C10.4483 11.833 10.6174 12.1811 10.6808 12.5809C10.7265 12.8698 10.7265 13.1651 10.6808 13.454C10.6017 13.9529 10.3579 14.3703 10.0243 14.7851C9.69784 15.1908 9.23898 15.648 8.67605 16.2109C8.11313 16.7739 7.65591 17.2327 7.25018 17.5592C6.83541 17.8928 6.418 18.1366 5.91914 18.2157C5.63016 18.2614 5.33494 18.2614 5.04596 18.2157C4.54711 18.1366 4.12969 17.8928 3.71493 17.5592C3.3092 17.2327 2.85197 16.7739 2.28905 16.2109C1.72614 15.648 1.26726 15.1908 0.940847 14.7851C0.607201 14.3703 0.363443 13.9529 0.284324 13.454C0.238555 13.1651 0.238562 12.8698 0.284324 12.5809C0.363429 12.082 0.607197 11.6646 0.940847 11.2498C1.26726 10.8441 1.72612 10.3869 2.28905 9.82395C2.85198 9.26102 3.30919 8.80216 3.71493 8.47574C4.12971 8.14208 4.54709 7.89833 5.04596 7.81922Z" fill="#151720"/>
<path d="M10.8623 6.749C11.1075 6.50407 11.505 6.50399 11.7502 6.749C11.9953 6.99413 11.9951 7.39168 11.7502 7.6369L7.6369 11.7502C7.39169 11.9954 6.9942 11.9954 6.749 11.7502C6.50392 11.505 6.50386 11.1075 6.749 10.8623L10.8623 6.749Z" fill="#151720"/>
<path d="M12.5809 0.284328C12.8698 0.238557 13.1651 0.238558 13.454 0.284328C13.9529 0.363441 14.3703 0.607196 14.7851 0.940851C15.1908 1.26726 15.648 1.72614 16.211 2.28905C16.7739 2.85197 17.2327 3.3092 17.5592 3.71493C17.8928 4.12969 18.1366 4.54711 18.2157 5.04596C18.2614 5.33493 18.2614 5.63018 18.2157 5.91915C18.1366 6.41799 17.8928 6.83542 17.5592 7.25018C17.2327 7.65591 16.7739 8.11313 16.211 8.67605C15.648 9.23898 15.1908 9.69785 14.7851 10.0243C14.3703 10.3579 13.9529 10.6017 13.454 10.6808C13.1651 10.7266 12.8698 10.7265 12.5809 10.6808C12.1811 10.6174 11.833 10.4483 11.4959 10.2107C11.2126 10.0109 11.145 9.61924 11.3447 9.33585C11.5444 9.0525 11.9361 8.98424 12.2195 9.18378C12.4509 9.3469 12.6212 9.41568 12.7779 9.4405C12.9366 9.46561 13.0983 9.46561 13.257 9.4405C13.4512 9.40974 13.6667 9.31193 13.9977 9.0456C14.3382 8.77174 14.7403 8.37086 15.323 7.78815C15.9057 7.20545 16.3066 6.80325 16.5805 6.46284C16.8468 6.13178 16.9446 5.91626 16.9754 5.72211C17.0005 5.56342 17.0005 5.40169 16.9754 5.243C16.9446 5.04885 16.8468 4.83334 16.5805 4.50227C16.3066 4.16186 15.9057 3.75965 15.323 3.17696C14.7404 2.59427 14.3381 2.19337 13.9977 1.9195C13.6667 1.65318 13.4512 1.55537 13.257 1.52461C13.0983 1.49949 12.9366 1.49949 12.7779 1.52461C12.5837 1.55536 12.3683 1.65316 12.0372 1.9195C11.6967 2.19337 11.2946 2.59425 10.7118 3.17696C10.1291 3.75966 9.72826 4.16185 9.4544 4.50227C9.18807 4.83335 9.09025 5.04884 9.0595 5.243C9.0344 5.40169 9.03439 5.56342 9.0595 5.72211C9.08433 5.8788 9.1531 6.04909 9.31622 6.28052C9.51571 6.56394 9.44748 6.95563 9.16415 7.15534C8.88078 7.35495 8.48913 7.28732 8.28933 7.00409C8.05173 6.66699 7.88262 6.31889 7.81922 5.91915C7.77345 5.63018 7.77346 5.33493 7.81922 5.04596C7.89832 4.5471 8.14209 4.1297 8.47574 3.71493C8.80215 3.30919 9.26102 2.85198 9.82395 2.28905C10.3869 1.72613 10.8441 1.26726 11.2498 0.940851C11.6646 0.607188 12.082 0.363435 12.5809 0.284328Z" fill="#151720"/>
</svg>
