<svg width="14" height="19" viewBox="0 0 14 19" fill="none" xmlns="http://www.w3.org/2000/svg">
<path d="M11.7821 15.3198C12.1293 15.32 12.4111 15.601 12.4111 15.9477C12.4111 16.4534 12.1025 16.8356 11.7764 17.0923C11.443 17.3545 10.9987 17.5639 10.5069 17.7276C9.51657 18.057 8.18814 18.25 6.75009 18.25C5.31207 18.25 3.98367 18.057 2.99329 17.7276C2.50147 17.5639 2.05721 17.3545 1.72382 17.0923C1.39764 16.8356 1.08909 16.4535 1.08909 15.9477C1.08909 15.6009 1.3707 15.3198 1.71809 15.3198C2.06146 15.32 2.34015 15.5949 2.34627 15.9362C2.35071 15.9493 2.37761 16.0079 2.5027 16.1063C2.67855 16.2446 2.97213 16.3971 3.39051 16.5363C4.22127 16.8127 5.40953 16.9942 6.75009 16.9942C8.09069 16.9941 9.27898 16.8128 10.1097 16.5363C10.5281 16.3971 10.8217 16.2446 10.9975 16.1063C11.122 16.0083 11.1485 15.9496 11.1531 15.9362C11.1592 15.5947 11.4385 15.3198 11.7821 15.3198Z" fill="#151720"/>
<path fill-rule="evenodd" clip-rule="evenodd" d="M6.75009 4.01744C8.25526 4.01766 9.47576 5.23578 9.47576 6.73837C9.47576 8.24097 8.25526 9.45909 6.75009 9.4593C5.24475 9.4593 4.02442 8.2411 4.02442 6.73837C4.02442 5.23564 5.24475 4.01744 6.75009 4.01744ZM6.75009 5.27326C5.93952 5.27326 5.28242 5.92921 5.28242 6.73837C5.28242 7.54753 5.93952 8.20349 6.75009 8.20349C7.56048 8.20327 8.21776 7.5474 8.21776 6.73837C8.21776 5.92934 7.56048 5.27347 6.75009 5.27326Z" fill="#151720"/>
<path fill-rule="evenodd" clip-rule="evenodd" d="M6.75009 0.25C9.3086 0.250162 11.7391 1.80303 12.7543 4.23983C13.6981 6.50556 13.1859 8.44109 12.1261 10.0897C11.0959 11.692 9.50281 13.0883 8.24069 14.3019C7.8405 14.6865 7.30566 14.9011 6.75009 14.9012C6.19446 14.9011 5.65974 14.6865 5.25949 14.3019L5.25785 14.3002C4.0007 13.0842 2.40731 11.6884 1.37656 10.0888C0.315285 8.44182 -0.199184 6.50853 0.745921 4.23983C1.76115 1.80299 4.19151 0.250052 6.75009 0.25ZM6.75009 1.50581C4.68747 1.50587 2.72356 2.76496 1.9081 4.7222C1.16042 6.51696 1.53534 8.01477 2.4339 9.40943C3.36277 10.8509 4.79918 12.1079 6.13174 13.3968C6.2971 13.5557 6.51915 13.6453 6.75009 13.6453C6.98104 13.6452 7.20313 13.5557 7.36845 13.3968C8.70276 12.1138 10.1395 10.8544 11.0671 9.41188C11.9649 8.01544 12.3395 6.51458 11.5929 4.7222C10.7775 2.76493 8.81268 1.50598 6.75009 1.50581Z" fill="#151720"/>
</svg>
