<svg width="20" height="20" viewBox="0 0 20 20" fill="none" xmlns="http://www.w3.org/2000/svg">
<path d="M12.0833 7.49999C12.0833 8.65058 11.1506 9.58332 9.99999 9.58332C8.8494 9.58332 7.91666 8.65058 7.91666 7.49999C7.91666 6.3494 8.8494 5.41666 9.99999 5.41666C11.1506 5.41666 12.0833 6.3494 12.0833 7.49999Z" stroke="#494A4C" stroke-width="1.5"/>
<path d="M11.0478 14.578C10.7668 14.8487 10.3911 15 10.0001 15C9.60915 15 9.23348 14.8487 8.95241 14.578C6.37857 12.084 2.92931 9.29794 4.61141 5.2531C5.52091 3.06609 7.70411 1.66666 10.0001 1.66666C12.2961 1.66666 14.4793 3.06609 15.3888 5.2531C17.0688 9.29284 13.628 12.0926 11.0478 14.578Z" stroke="#494A4C" stroke-width="1.5"/>
<path d="M15 16.6667C15 17.5871 12.7614 18.3333 10 18.3333C7.23858 18.3333 5 17.5871 5 16.6667" stroke="#494A4C" stroke-width="1.5" stroke-linecap="round"/>
</svg>
