<svg width="13" height="14" viewBox="0 0 13 14" fill="none" xmlns="http://www.w3.org/2000/svg">
<path d="M10.35 6.15002H1.95C1.28726 6.15002 0.75 6.68728 0.75 7.35002V11.55C0.75 12.2128 1.28726 12.75 1.95 12.75H10.35C11.0127 12.75 11.55 12.2128 11.55 11.55V7.35002C11.55 6.68728 11.0127 6.15002 10.35 6.15002Z" stroke="white" stroke-width="1.5" stroke-linecap="round" stroke-linejoin="round"/>
<path d="M3.15027 6.15V3.75C3.15027 2.95435 3.46634 2.19129 4.02895 1.62868C4.59156 1.06607 5.35462 0.75 6.15027 0.75C6.94592 0.75 7.70898 1.06607 8.27159 1.62868C8.8342 2.19129 9.15027 2.95435 9.15027 3.75V6.15" stroke="white" stroke-width="1.5" stroke-linecap="round" stroke-linejoin="round"/>
</svg>
