<svg width="150" height="20" viewBox="0 0 150 20" fill="none" xmlns="http://www.w3.org/2000/svg">
<path d="M16.3037 0.00037384H6.84913H2.48293L7.18799 4.71109C7.77126 5.29507 8.56562 5.62877 9.39331 5.62877H16.4426C17.5313 5.62877 18.5979 6.50751 18.6979 7.59759C18.759 8.30948 18.4868 8.95464 18.0257 9.39401C17.5202 9.87231 17.5202 10.6787 18.0091 11.1737L20.2144 13.3817C20.6977 13.8656 21.4865 13.8711 21.9753 13.3928C23.4918 11.9023 24.4139 9.79445 24.3139 7.46411C24.1362 3.24838 20.5143 0.00037384 16.3037 0.00037384Z" fill="#3560FB"/>
<path d="M12.7542 8.41565C12.1709 7.83168 11.3766 7.49798 10.5489 7.49798H8.76573C7.93804 7.49798 7.14368 7.16984 6.56041 6.58031L3.74404 3.74386H0L3.72738 7.49242L14.9317 18.7103C15.7539 19.5334 16.8649 19.9895 18.0203 19.9895H24.3252L12.7542 8.41565Z" fill="#3560FB"/>
<path d="M5.76036 19.9994C7.57043 19.9994 9.03779 18.5303 9.03779 16.718C9.03779 14.9057 7.57043 13.4366 5.76036 13.4366C3.95029 13.4366 2.48293 14.9057 2.48293 16.718C2.48293 18.5303 3.95029 19.9994 5.76036 19.9994Z" fill="#3560FB"/>
<path d="M61.4371 10.159L69.5254 20H62.7316L58.0404 14.292L54.1221 19.0598C53.6332 19.6549 52.8999 19.9995 52.1333 19.9995H46.556L54.6433 10.159L46.2946 0.000542535H53.0884L58.0404 6.02593L62.2213 0.93967C62.7101 0.344701 63.4435 0 64.21 0H69.7868L61.4371 10.159Z" fill="#3560FB"/>
<path d="M44.5453 3.31364C45.0158 2.88939 45.7355 2.93244 46.1537 3.41228C46.5707 3.89104 46.5276 4.62356 46.057 5.04899L38.5794 11.7941C38.363 11.99 38.0925 12.0871 37.8236 12.0871L37.8246 12.0851C37.5193 12.085 37.2159 11.9613 36.9916 11.7179L35.4212 10.008C34.9918 9.5409 35.015 8.80734 35.474 8.37028C35.9343 7.93325 36.6548 7.9578 37.0843 8.42497L37.8978 9.31071L44.5453 3.31364Z" fill="#00DA99"/>
<path d="M44.5453 3.31364C45.0158 2.88939 45.7355 2.93244 46.1537 3.41228C46.5707 3.89104 46.5276 4.62356 46.057 5.04899L38.5794 11.7941C38.363 11.99 38.0925 12.0871 37.8236 12.0871L37.8246 12.0851C37.5193 12.085 37.2159 11.9613 36.9916 11.7179L35.4212 10.008C34.9918 9.5409 35.015 8.80734 35.474 8.37028C35.9343 7.93325 36.6548 7.9578 37.0843 8.42497L37.8978 9.31071L44.5453 3.31364Z" stroke="#00DA99"/>
<path d="M38.3231 0.00188637C40.0642 0.00190499 41.7029 0.450365 43.1301 1.23777C43.3754 1.3731 43.3723 1.72465 43.1642 1.91219L43.1638 1.91256L40.0892 4.68441C39.6144 5.11239 38.9615 5.25745 38.3224 5.25745H36.4169C33.8056 5.25745 31.6777 7.38698 31.6776 10.0004C31.6776 12.6139 33.8055 14.7437 36.4169 14.7437H38.3224C40.0721 14.7437 41.6046 13.7874 42.4253 12.3701C43.1595 11.1023 43.6707 9.63794 44.7588 8.65694L47.2046 6.45194L47.2049 6.45231L47.2064 6.45083C47.3633 6.30902 47.6252 6.34793 47.6984 6.54636C48.0956 7.62307 48.3128 8.78649 48.3128 10C48.3127 15.5161 43.829 19.9977 38.3231 19.9978H36.4172C30.9058 19.9977 26.4277 15.5161 26.4276 10C26.4276 4.48393 30.9113 0.00194792 36.4172 0.00188637H38.3231Z" fill="#3560FB"/>
<path d="M44.201 3.06201C44.813 2.51071 45.751 2.56723 46.2938 3.18994L46.3875 3.30908C46.8234 3.9242 46.7392 4.78666 46.1688 5.30225H46.1678L38.6893 12.0464C38.4082 12.3006 38.0562 12.4262 37.7059 12.4263C37.702 12.4263 37.698 12.4244 37.6942 12.4243C37.3501 12.4214 37.0093 12.2982 36.7371 12.0591L36.6238 11.9478L35.0516 10.2378C34.4972 9.63461 34.5275 8.68953 35.1209 8.12451L35.1219 8.12354C35.7199 7.55623 36.6585 7.58806 37.2166 8.19482L37.8016 8.83154L44.201 3.06201Z" fill="#00DA99" stroke="#00DA99" stroke-width="0.679872" stroke-linejoin="round"/>
<path d="M85.2677 12.2773C85.8175 12.2773 86.3254 12.3761 86.7906 12.5735C87.2556 12.7639 87.6607 13.0354 88.006 13.3879C88.3584 13.7334 88.6335 14.1389 88.8309 14.6042C89.0281 15.0695 89.127 15.5703 89.127 16.106C89.1269 16.6417 89.0282 17.1425 88.8309 17.6077C88.6335 18.073 88.3583 18.4819 88.006 18.8344C87.6607 19.1798 87.2556 19.4513 86.7906 19.6487C86.3325 19.8462 85.8316 19.945 85.2889 19.945C84.7463 19.9449 84.2387 19.8461 83.7666 19.6487C83.3015 19.4513 82.8927 19.1798 82.5403 18.8344C82.195 18.4819 81.9236 18.073 81.7263 17.6077C81.529 17.1353 81.4302 16.631 81.4302 16.0951C81.4302 15.5594 81.5258 15.0625 81.716 14.6042C81.9133 14.1389 82.1847 13.7334 82.53 13.3879C82.8824 13.0354 83.2911 12.7639 83.7562 12.5735C84.2213 12.3762 84.7251 12.2773 85.2677 12.2773ZM93.8165 12.2773C94.3662 12.2773 94.8737 12.3762 95.3389 12.5735C95.8039 12.7639 96.2089 13.0354 96.5542 13.3879C96.9066 13.7334 97.1818 14.1389 97.3791 14.6042C97.5764 15.0695 97.6752 15.5702 97.6752 16.106C97.6752 16.6417 97.5764 17.1425 97.3791 17.6077C97.1818 18.073 96.9066 18.4819 96.5542 18.8344C96.2089 19.1798 95.8039 19.4514 95.3389 19.6487C94.8808 19.8461 94.3803 19.9449 93.8377 19.945C93.2951 19.945 92.7875 19.8461 92.3153 19.6487C91.8502 19.4513 91.441 19.1799 91.0886 18.8344C90.7433 18.4819 90.4719 18.073 90.2745 17.6077C90.0772 17.1353 89.979 16.631 89.979 16.0951C89.979 15.5594 90.074 15.0625 90.2642 14.6042C90.4616 14.1389 90.7329 13.7334 91.0783 13.3879C91.4307 13.0354 91.8394 12.7639 92.3045 12.5735C92.7697 12.3761 93.2738 12.2773 93.8165 12.2773ZM120.072 12.2773C120.685 12.2773 121.249 12.3935 121.763 12.6262C122.278 12.8518 122.705 13.1726 123.043 13.5886L122.07 14.5619C121.837 14.2588 121.549 14.0258 121.203 13.8637C120.858 13.7015 120.477 13.6206 120.061 13.6206C119.589 13.6207 119.17 13.7261 118.803 13.9375C118.444 14.1419 118.162 14.4313 117.957 14.805C117.753 15.1716 117.651 15.6017 117.651 16.0951C117.651 16.5886 117.75 17.0257 117.947 17.4064C118.151 17.7801 118.426 18.0728 118.771 18.2843C119.124 18.4957 119.526 18.6016 119.976 18.6016C120.442 18.6016 120.84 18.5169 121.171 18.3477C121.502 18.1715 121.756 17.9179 121.933 17.5866C122.026 17.4068 122.094 17.2058 122.138 16.9843L119.892 16.9626V15.7143H123.677V15.9156C123.677 16.8038 123.518 17.5477 123.201 18.147C122.884 18.7391 122.447 19.1866 121.89 19.4898C121.341 19.7859 120.706 19.9341 119.987 19.9341C119.459 19.9341 118.962 19.8391 118.496 19.6487C118.038 19.4513 117.633 19.176 117.281 18.8235C116.936 18.4711 116.664 18.0659 116.467 17.6077C116.277 17.1425 116.181 16.6417 116.181 16.106C116.181 15.5632 116.28 15.0625 116.477 14.6042C116.675 14.1389 116.95 13.7334 117.302 13.3879C117.655 13.0354 118.067 12.7639 118.539 12.5735C119.011 12.3761 119.522 12.2773 120.072 12.2773ZM78.1442 12.3934C78.6374 12.3934 79.0495 12.4853 79.3807 12.6685C79.719 12.8447 79.973 13.081 80.1421 13.377C80.3113 13.6661 80.396 13.9837 80.396 14.3292C80.3959 14.7521 80.2656 15.1187 80.0049 15.4289C79.8688 15.5916 79.697 15.7303 79.4919 15.8483C79.7851 15.9946 80.0265 16.1825 80.2159 16.4125C80.519 16.765 80.6709 17.1918 80.6709 17.6924C80.6709 18.0871 80.5721 18.4467 80.3748 18.7709C80.1845 19.0882 79.9023 19.3455 79.5288 19.5429C79.1623 19.7332 78.7149 19.8283 78.1865 19.8283H75.1418V12.3934H78.1442ZM100.252 15.7555L103.223 12.3934H105.021L101.819 15.9248L105.137 19.8283H103.308L100.252 16.1505V19.8283H98.8147V12.3934H100.252V15.7555ZM107.345 19.8283H105.907V12.3934H107.345V19.8283ZM113.596 17.2144V12.3934H115.045V19.8283H114.008L110.308 15.035V19.8283H108.871V12.3934H109.874L113.596 17.2144ZM76.5687 18.6543H78.1333C78.4787 18.6543 78.7468 18.5489 78.9371 18.3374C79.1344 18.126 79.2332 17.8755 79.2332 17.5866C79.2332 17.3891 79.1909 17.2089 79.1063 17.0467C79.0217 16.8847 78.8946 16.7581 78.7256 16.6664C78.5635 16.5677 78.3659 16.5183 78.1333 16.5183H76.5687V18.6543ZM85.2677 13.6098C84.8027 13.6098 84.3906 13.7157 84.0312 13.9272C83.6789 14.1316 83.4004 14.4206 83.196 14.7941C82.9987 15.1678 82.8999 15.6016 82.8999 16.0951C82.8999 16.4688 82.9563 16.8108 83.0691 17.1211C83.1889 17.4313 83.3512 17.6957 83.5556 17.9143C83.767 18.1327 84.0173 18.3022 84.3062 18.4221C84.602 18.5418 84.9226 18.6016 85.2677 18.6016C85.747 18.6016 86.1632 18.4958 86.5156 18.2843C86.8679 18.0728 87.1427 17.7801 87.34 17.4064C87.5443 17.0328 87.6464 16.5957 87.6464 16.0951C87.6464 15.7285 87.5905 15.3935 87.4777 15.0904C87.365 14.7873 87.2026 14.5266 86.9913 14.308C86.7799 14.0824 86.5296 13.9098 86.2407 13.7899C85.9517 13.67 85.6272 13.6098 85.2677 13.6098ZM93.8165 13.6098C93.3514 13.6098 92.9389 13.7157 92.5795 13.9272C92.2271 14.1316 91.9486 14.4205 91.7443 14.7941C91.5469 15.1678 91.4482 15.6016 91.4482 16.0951C91.4482 16.4688 91.5046 16.8108 91.6174 17.1211C91.7372 17.4313 91.8995 17.6957 92.1038 17.9143C92.3153 18.1328 92.5655 18.3022 92.8544 18.4221C93.1504 18.5419 93.4713 18.6016 93.8165 18.6016C94.2957 18.6016 94.7115 18.4957 95.0639 18.2843C95.4162 18.0728 95.6909 17.7801 95.8882 17.4064C96.0926 17.0328 96.1952 16.5957 96.1952 16.0951C96.1952 15.7285 96.1387 15.3935 96.026 15.0904C95.9132 14.7872 95.7509 14.5266 95.5395 14.308C95.3281 14.0824 95.0779 13.9098 94.7889 13.7899C94.5 13.6701 94.1759 13.6098 93.8165 13.6098ZM76.5687 15.3551H77.975C78.2709 15.3551 78.5071 15.2807 78.6833 15.1327C78.8665 14.9846 78.9582 14.7625 78.9582 14.4664C78.9582 14.1634 78.8664 13.938 78.6833 13.7899C78.5071 13.6419 78.2709 13.5675 77.975 13.5675H76.5687V15.3551ZM99.03 0.0550938C99.5797 0.0550938 100.087 0.153903 100.552 0.351318C101.017 0.541681 101.423 0.813142 101.768 1.16566C102.121 1.51111 102.395 1.91675 102.593 2.38203C102.79 2.84731 102.889 3.34799 102.889 3.88376C102.889 4.41951 102.79 4.92023 102.593 5.3855C102.395 5.85073 102.121 6.2597 101.768 6.61217C101.423 6.95764 101.017 7.2291 100.552 7.42651C100.094 7.62391 99.5938 7.72274 99.0511 7.72274C98.5084 7.72274 98.001 7.62391 97.5288 7.42651C97.0637 7.22912 96.6549 6.95759 96.3026 6.61217C95.9573 6.2597 95.6859 5.85074 95.4885 5.3855C95.2912 4.91311 95.1924 4.40875 95.1924 3.87291C95.1924 3.33719 95.2875 2.84022 95.4777 2.38203C95.675 1.91675 95.9464 1.51111 96.2917 1.16566C96.6441 0.813199 97.0529 0.541677 97.5179 0.351318C97.9831 0.153903 98.4873 0.0550938 99.03 0.0550938ZM81.7382 7.60609H80.2056L79.6822 6.221H76.6235L76.0931 7.60609H74.5919L77.584 0.171196H78.757L81.7382 7.60609ZM85.5449 0.171196C86.017 0.171223 86.4399 0.266775 86.8134 0.457112C87.1939 0.647473 87.4936 0.91897 87.712 1.27146C87.9304 1.61684 88.0396 2.02918 88.0396 2.50844C88.0396 2.98787 87.9305 3.40428 87.712 3.75681C87.4936 4.10222 87.1939 4.36996 86.8134 4.5603C86.4399 4.75064 86.017 4.84565 85.5449 4.84568H84.054V7.60609H82.6163V0.171196H85.5449ZM91.9867 0.171196C92.4589 0.171196 92.8822 0.266748 93.2557 0.457112C93.6362 0.64747 93.936 0.919003 94.1544 1.27146C94.3727 1.61683 94.4819 2.02921 94.482 2.50844C94.482 2.98787 94.3729 3.40428 94.1544 3.75681C93.936 4.10221 93.6362 4.36995 93.2557 4.5603C92.8822 4.75067 92.4589 4.84568 91.9867 4.84568H90.4964V7.60609H89.0586V0.171196H91.9867ZM105.466 7.60609H104.029V0.171196H105.466V7.60609ZM111.717 4.99108V0.171196H113.165V7.60609H112.129L108.429 2.8128V7.60609H106.991V0.171196H107.996L111.717 4.99108ZM120.328 1.45104H117.96V7.60609H116.512V1.45104H114.144V0.171196H120.328V1.45104ZM125.058 4.52721L127.77 0.171196H128.785V7.60609H127.358V3.16165L125.539 6.0832H124.567L122.759 3.17901V7.60609H121.321V0.171196H122.336L125.058 4.52721ZM135.42 1.44073H131.741V3.19637H135.103V4.42304H131.741V6.3371H135.473V7.60609H130.303V0.171196H135.42V1.44073ZM141.388 4.99216V0.171196H142.837V7.60609H141.8L138.101 2.8128V7.60609H136.663V0.171196H137.667L141.388 4.99216ZM150 1.45104H147.632V7.60609H146.184V1.45104H143.815V0.171196H150V1.45104ZM99.03 1.38756C98.5648 1.38756 98.1523 1.49343 97.7929 1.70494C97.4406 1.90939 97.1621 2.19833 96.9577 2.57191C96.7604 2.94558 96.6621 3.37939 96.6621 3.87291C96.6621 4.24658 96.718 4.58863 96.8308 4.89884C96.9506 5.20907 97.1129 5.47346 97.3173 5.69203C97.5287 5.9106 97.7789 6.07998 98.0679 6.19984C98.3639 6.31969 98.6846 6.37942 99.03 6.37942C99.5092 6.37942 99.9249 6.27354 100.277 6.06204C100.63 5.85052 100.905 5.55789 101.102 5.18422C101.307 4.81058 101.409 4.37342 101.409 3.87291C101.409 3.5063 101.352 3.1713 101.239 2.86814C101.127 2.56501 100.964 2.30434 100.753 2.0858C100.542 1.8602 100.291 1.68754 100.002 1.56768C99.7134 1.44785 99.3894 1.38756 99.03 1.38756ZM77.085 5.01495H79.2267L78.1632 2.19919L77.085 5.01495ZM84.054 3.67217H85.3968C85.6222 3.67215 85.8265 3.62598 86.0096 3.53437C86.1929 3.44271 86.3378 3.31241 86.4435 3.1432C86.5492 2.96696 86.6019 2.75515 86.6019 2.50844C86.6018 2.26882 86.5492 2.06072 86.4435 1.88452C86.3378 1.70828 86.1929 1.5747 86.0096 1.48305C85.8265 1.39143 85.6223 1.34526 85.3968 1.34524H84.054V3.67217ZM90.4964 3.67217H91.8386C92.0642 3.67217 92.2688 3.62603 92.452 3.53437C92.6352 3.44272 92.7796 3.31238 92.8853 3.1432C92.9911 2.96694 93.0442 2.7552 93.0442 2.50844C93.0442 2.26882 92.991 2.06072 92.8853 1.88452C92.7796 1.70838 92.6352 1.57466 92.452 1.48305C92.2688 1.39139 92.0642 1.34524 91.8386 1.34524H90.4964V3.67217Z" fill="#151720"/>
</svg>
