<svg width="16" height="16" viewBox="0 0 16 16" fill="none" xmlns="http://www.w3.org/2000/svg">
<g clip-path="url(#clip0_79_2002)">
<path d="M8.69671 0.69043C9.85861 0.690442 10.958 0.963853 11.9344 1.44935C12.0637 1.51363 12.0745 1.69247 11.9672 1.78914L11.9668 1.78958L9.0804 4.39222C8.97563 4.48669 8.83719 4.53274 8.69612 4.53274H7.30314C5.39409 4.53274 3.83829 6.08957 3.83819 8.00019C3.83819 9.91089 5.39403 11.4681 7.30314 11.4681H8.69612C10.1775 11.4681 11.4455 10.5305 11.9395 9.21772C12.0507 8.92202 12.2049 8.63916 12.4408 8.42896L15.2098 5.96116C15.3931 5.79556 15.6827 5.85375 15.7473 6.09217C15.9119 6.70047 16 7.34 16 7.9999C15.9999 12.0326 12.722 15.3092 8.69671 15.3092H7.30329C3.27395 15.3091 5.80831e-05 12.0326 0 7.9999C3.95348e-05 3.96718 3.278 0.690501 7.30329 0.69043H8.69671Z" fill="#9CA2A7"/>
<path d="M14.5448 3.00311C14.1378 2.5362 13.4342 2.49381 12.9753 2.90737L8.31754 7.10749L7.90768 6.66159C7.48916 6.2066 6.78557 6.18283 6.3372 6.60836L6.29646 6.64909C5.89081 7.07612 5.88199 7.75482 6.28484 8.19281L7.43384 9.44255L7.43414 9.44299C7.64499 9.67153 7.92923 9.79241 8.21813 9.79977C8.22708 9.80065 8.23622 9.80124 8.24534 9.80124C8.50795 9.80121 8.7719 9.7071 8.98256 9.51667L14.4507 4.58595L14.4509 4.5858C14.8926 4.18661 14.9454 3.51027 14.5812 3.04723L14.5448 3.00311Z" fill="#9CA2A7"/>
</g>
<defs>
<clipPath id="clip0_79_2002">
<rect width="16" height="16" fill="white"/>
</clipPath>
</defs>
</svg>
