<svg width="15" height="15" viewBox="0 0 15 15" fill="none" xmlns="http://www.w3.org/2000/svg">
<path d="M1.25586 12C1.94622 12 2.50586 12.5596 2.50586 13.25C2.50586 13.9404 1.94622 14.5 1.25586 14.5H1.25C0.559644 14.5 0 13.9404 0 13.25C0 12.5596 0.559644 12 1.25 12H1.25586ZM7.25293 12C7.94329 12 8.50293 12.5596 8.50293 13.25C8.50293 13.9404 7.94329 14.5 7.25293 14.5H7.24707C6.55671 14.5 5.99707 13.9404 5.99707 13.25C5.99707 12.5596 6.55671 12 7.24707 12H7.25293ZM13.25 12C13.9404 12 14.5 12.5596 14.5 13.25C14.5 13.9404 13.9404 14.5 13.25 14.5H13.2441C12.5538 14.5 11.9941 13.9404 11.9941 13.25C11.9941 12.5596 12.5538 12 13.2441 12H13.25ZM1.25586 6C1.94622 6 2.50586 6.55964 2.50586 7.25C2.50586 7.94036 1.94622 8.5 1.25586 8.5H1.25C0.559644 8.5 0 7.94036 0 7.25C0 6.55964 0.559644 6 1.25 6H1.25586ZM7.25293 6C7.94329 6 8.50293 6.55964 8.50293 7.25C8.50293 7.94036 7.94329 8.5 7.25293 8.5H7.24707C6.55671 8.5 5.99707 7.94036 5.99707 7.25C5.99707 6.55964 6.55671 6 7.24707 6H7.25293ZM13.25 6C13.9404 6 14.5 6.55964 14.5 7.25C14.5 7.94036 13.9404 8.5 13.25 8.5H13.2441C12.5538 8.5 11.9941 7.94036 11.9941 7.25C11.9941 6.55964 12.5538 6 13.2441 6H13.25ZM1.25586 0C1.94622 0 2.50586 0.559644 2.50586 1.25C2.50586 1.94036 1.94622 2.5 1.25586 2.5H1.25C0.559644 2.5 0 1.94036 0 1.25C0 0.559644 0.559644 0 1.25 0H1.25586ZM7.25293 0C7.94329 0 8.50293 0.559644 8.50293 1.25C8.50293 1.94036 7.94329 2.5 7.25293 2.5H7.24707C6.55671 2.5 5.99707 1.94036 5.99707 1.25C5.99707 0.559644 6.55671 0 7.24707 0H7.25293ZM13.25 0C13.9404 0 14.5 0.559644 14.5 1.25C14.5 1.94036 13.9404 2.5 13.25 2.5H13.2441C12.5538 2.5 11.9941 1.94036 11.9941 1.25C11.9941 0.559644 12.5538 0 13.2441 0H13.25Z" fill="#151720"/>
</svg>
