<svg width="34" height="34" viewBox="0 0 34 34" fill="none" xmlns="http://www.w3.org/2000/svg">
<path d="M20.5417 14.1667C19.9321 12.1185 17.8295 10.625 15.5833 10.625C12.8449 10.625 10.625 12.8449 10.625 15.5833C10.625 18.0812 12.4721 20.198 14.875 20.5417" stroke="#3560FB" stroke-width="1.875" stroke-linecap="round"/>
<path d="M28.2631 14.1666C27.5821 7.84047 22.0428 2.83331 15.5833 2.83331C8.68337 2.83331 2.83333 8.5467 2.83333 15.4782C2.83333 22.5444 8.78886 27.4289 14.2701 30.822C14.6703 31.0479 15.1229 31.1666 15.5833 31.1666C16.0438 31.1666 16.4964 31.0479 16.8966 30.822C17.2573 30.6013 17.6199 30.3737 17.9827 30.1393" stroke="#3560FB" stroke-width="1.875" stroke-linecap="round"/>
<path opacity="0.2" fill-rule="evenodd" clip-rule="evenodd" d="M15.5833 2.83331C22.4834 2.83331 28.3333 8.5467 28.3333 15.4782C28.3333 16.3268 28.2471 17.1448 28.0856 17.9333C27.1168 17.3421 25.9856 17 24.7917 17C21.3417 17 18.4167 19.8567 18.4167 23.3224C18.4167 25.2936 19.3436 26.9253 20.6391 28.2774C19.4184 29.2114 18.1457 30.0575 16.8966 30.822C16.4964 31.0479 16.0437 31.1666 15.5833 31.1666C15.1229 31.1666 14.6703 31.0479 14.2701 30.822C8.78886 27.4289 2.83333 22.5444 2.83333 15.4782C2.83333 8.5467 8.68337 2.83331 15.5833 2.83331ZM20.5417 15.5833C20.5417 18.3217 18.3217 20.5416 15.5833 20.5416C12.8449 20.5416 10.625 18.3217 10.625 15.5833C10.625 12.8449 12.8449 10.625 15.5833 10.625C18.3217 10.625 20.5417 12.8449 20.5417 15.5833Z" fill="#3560FB"/>
<path d="M24.7917 17C28.2417 17 31.1667 19.8567 31.1667 23.3224C31.1667 26.8433 28.1941 29.3142 25.4483 30.9943C25.2483 31.1073 25.0219 31.1667 24.7917 31.1667C24.5615 31.1667 24.3351 31.1073 24.135 30.9943C21.3944 29.2978 18.4167 26.8555 18.4167 23.3224C18.4167 19.8567 21.3417 17 24.7917 17Z" stroke="#3560FB" stroke-width="1.875"/>
<path d="M24.9687 23.375H24.7917M25.1458 23.375C25.1458 23.5706 24.9873 23.7291 24.7917 23.7291C24.596 23.7291 24.4375 23.5706 24.4375 23.375C24.4375 23.1793 24.596 23.0208 24.7917 23.0208C24.9873 23.0208 25.1458 23.1793 25.1458 23.375Z" stroke="#3560FB" stroke-width="1.875" stroke-linecap="round" stroke-linejoin="round"/>
</svg>
