<svg width="80" height="80" viewBox="0 0 80 80" fill="none" xmlns="http://www.w3.org/2000/svg">
<path opacity="0.4" d="M48.968 69.9996H32.3015C22.8734 69.9996 18.1594 69.9996 15.2304 67.0706C12.3015 64.1416 12.3015 59.4276 12.3015 49.9996V32.8514C13.2174 33.1624 14.2037 33.3316 15.2315 33.3316C20.0566 33.3316 23.9682 29.6007 23.9682 24.9983C23.9682 29.6007 27.6991 33.3316 32.3015 33.3316C36.904 33.3316 40.6347 29.6007 40.6347 24.9983C40.6347 29.6007 44.3657 33.3316 48.968 33.3316C53.5707 33.3316 57.3014 29.6069 57.3014 25.0045C57.3014 29.6069 61.2131 33.3379 66.0381 33.3379C67.0661 33.3379 68.0524 33.1686 68.968 32.8576V49.9996C68.968 59.4276 68.9681 64.1416 66.0394 67.0706C63.1104 69.9996 58.3964 69.9996 48.968 69.9996Z" fill="#A0ACD0"/>
<path d="M12.3015 33.333V49.9997C12.3015 59.4277 12.3015 64.1417 15.2304 67.0707C18.1594 69.9997 22.8734 69.9997 32.3015 69.9997H48.968C58.3964 69.9997 63.1104 69.9997 66.0394 67.0707C68.9681 64.1417 68.968 59.4277 68.968 49.9997V33.333" stroke="#A0ACD0" stroke-width="2.5" stroke-linecap="round" stroke-linejoin="round"/>
<path d="M57.3014 25.0056C57.3014 29.608 53.5707 33.3328 48.968 33.3328C44.3657 33.3328 40.6347 29.6018 40.6347 24.9994C40.6347 29.6018 36.904 33.3328 32.3015 33.3328C27.6991 33.3328 23.9682 29.6018 23.9682 24.9994C23.9682 29.6018 20.0566 33.3328 15.2315 33.3328C12.6343 33.3328 10.3017 32.2518 8.70146 30.5358C5.95019 27.5855 7.72016 23.2463 10.0164 19.9609L11.3082 18.1946C14.2477 14.1752 15.7174 12.1655 17.8512 11.0827C19.9851 9.9998 22.4748 10.0001 27.4544 10.0008L53.8187 10.0043C58.7964 10.005 61.2854 10.0053 63.4187 11.0881C65.5517 12.171 67.021 14.18 69.9594 18.1981L71.253 19.9672C73.5494 23.2525 75.3194 27.5917 72.568 30.542C70.9677 32.258 68.6354 33.3389 66.038 33.3389C61.213 33.3389 57.3014 29.608 57.3014 25.0056Z" stroke="#A0ACD0" stroke-width="2.5" stroke-linecap="round" stroke-linejoin="round"/>
<path d="M50.625 59.9995C48.3457 57.9755 44.7173 56.6662 40.63 56.6662C36.5427 56.6662 32.914 57.9755 30.6348 59.9995" stroke="#A0ACD0" stroke-width="2.5" stroke-linecap="round" stroke-linejoin="round"/>
</svg>
