<svg width="80" height="80" viewBox="0 0 80 80" fill="none" xmlns="http://www.w3.org/2000/svg">
<path d="M48.3333 33.3333C46.899 28.5142 41.9517 25 36.6667 25C30.2233 25 25 30.2233 25 36.6667C25 42.544 29.3462 47.5247 35 48.3333" stroke="#A0ACD0" stroke-width="2.5" stroke-linecap="round"/>
<path d="M66.5013 33.3334C64.899 18.4483 51.8653 6.66675 36.6666 6.66675C20.4314 6.66675 6.66663 20.11 6.66663 36.4194C6.66663 53.0457 20.6796 64.5387 33.5766 72.5224C34.5183 73.0541 35.5833 73.3334 36.6666 73.3334C37.75 73.3334 38.815 73.0541 39.7566 72.5224C40.6053 72.0031 41.4586 71.4677 42.3123 70.9161" stroke="#A0ACD0" stroke-width="2.5" stroke-linecap="round"/>
<path opacity="0.4" fill-rule="evenodd" clip-rule="evenodd" d="M36.6666 6.66675C52.902 6.66675 66.6666 20.11 66.6666 36.4194C66.6666 38.4161 66.4636 40.3407 66.0836 42.1961C63.8043 40.8051 61.1426 40.0001 58.3333 40.0001C50.2156 40.0001 43.3333 46.7217 43.3333 54.8764C43.3333 59.5144 45.5143 63.3537 48.5626 66.5351C45.6903 68.7327 42.6956 70.7237 39.7566 72.5224C38.815 73.0541 37.75 73.3334 36.6666 73.3334C35.5833 73.3334 34.5183 73.0541 33.5766 72.5224C20.6796 64.5387 6.66663 53.0457 6.66663 36.4194C6.66663 20.11 20.4314 6.66675 36.6666 6.66675ZM48.3333 36.6667C48.3333 43.1101 43.11 48.3334 36.6666 48.3334C30.2233 48.3334 25 43.1101 25 36.6667C25 30.2234 30.2233 25.0001 36.6666 25.0001C43.11 25.0001 48.3333 30.2234 48.3333 36.6667Z" fill="#A0ACD0"/>
<path d="M58.3334 40C66.451 40 73.3334 46.7217 73.3334 54.8763C73.3334 63.1607 66.339 68.9747 59.8784 72.9277C59.4077 73.1937 58.875 73.3333 58.3334 73.3333C57.7917 73.3333 57.259 73.1937 56.7884 72.9277C50.3397 68.936 43.3334 63.1893 43.3334 54.8763C43.3334 46.7217 50.2157 40 58.3334 40Z" stroke="#A0ACD0" stroke-width="2.5"/>
<path d="M58.75 55.0001H58.3333M59.1667 55.0001C59.1667 55.4604 58.7937 55.8334 58.3333 55.8334C57.873 55.8334 57.5 55.4604 57.5 55.0001C57.5 54.5397 57.873 54.1667 58.3333 54.1667C58.7937 54.1667 59.1667 54.5397 59.1667 55.0001Z" stroke="#A0ACD0" stroke-width="2.5" stroke-linecap="round" stroke-linejoin="round"/>
</svg>
