<svg width="80" height="80" viewBox="0 0 80 80" fill="none" xmlns="http://www.w3.org/2000/svg">
<path opacity="0.4" d="M50.6842 35.7271C45.9822 32.0041 36.6665 23.4927 36.6665 15.8333C36.6665 10.7708 40.1752 6.66675 44.9998 6.66675C47.4998 6.66675 49.9998 7.54908 53.3332 11.0785C56.6665 7.54908 59.1665 6.66675 61.6665 6.66675C66.4912 6.66675 69.9998 10.7708 69.9998 15.8333C69.9998 23.4927 60.6842 32.0041 55.9822 35.7271C54.3998 36.9801 52.2665 36.9801 50.6842 35.7271Z" fill="#A0ACD0"/>
<path opacity="0.4" d="M6.6665 63.3334V43.3334C6.6665 41.7834 6.6665 41.0084 6.83687 40.3727C7.2992 38.6471 8.64694 37.2994 10.3724 36.8371C11.0082 36.6667 11.7832 36.6667 13.3332 36.6667C14.8831 36.6667 15.6581 36.6667 16.2939 36.8371C18.0194 37.2994 19.3671 38.6471 19.8295 40.3727C19.9998 41.0084 19.9998 41.7834 19.9998 43.3334V63.3334C19.9998 64.8834 19.9998 65.6584 19.8295 66.2941C19.3671 68.0198 18.0194 69.3674 16.2939 69.8297C15.6581 70.0001 14.8831 70.0001 13.3332 70.0001C11.7832 70.0001 11.0082 70.0001 10.3724 69.8297C8.64694 69.3674 7.2992 68.0198 6.83687 66.2941C6.6665 65.6584 6.6665 64.8834 6.6665 63.3334Z" fill="#A0ACD0"/>
<path d="M50.6842 35.7271C45.9822 32.0041 36.6665 23.4927 36.6665 15.8333C36.6665 10.7708 40.1752 6.66675 44.9998 6.66675C47.4998 6.66675 49.9998 7.54908 53.3332 11.0785C56.6665 7.54908 59.1665 6.66675 61.6665 6.66675C66.4912 6.66675 69.9998 10.7708 69.9998 15.8333C69.9998 23.4927 60.6842 32.0041 55.9822 35.7271C54.3998 36.9801 52.2665 36.9801 50.6842 35.7271Z" stroke="#A0ACD0" stroke-width="2.5" stroke-linecap="round" stroke-linejoin="round"/>
<path d="M6.6665 63.3334V43.3334C6.6665 41.7834 6.6665 41.0084 6.83687 40.3727C7.2992 38.6471 8.64694 37.2994 10.3724 36.8371C11.0082 36.6667 11.7832 36.6667 13.3332 36.6667C14.8831 36.6667 15.6581 36.6667 16.2939 36.8371C18.0194 37.2994 19.3671 38.6471 19.8295 40.3727C19.9998 41.0084 19.9998 41.7834 19.9998 43.3334V63.3334C19.9998 64.8834 19.9998 65.6584 19.8295 66.2941C19.3671 68.0197 18.0194 69.3674 16.2939 69.8297C15.6581 70.0001 14.8831 70.0001 13.3332 70.0001C11.7832 70.0001 11.0082 70.0001 10.3724 69.8297C8.64694 69.3674 7.2992 68.0197 6.83687 66.2941C6.6665 65.6584 6.6665 64.8834 6.6665 63.3334Z" stroke="#A0ACD0" stroke-width="2.5" stroke-linecap="round" stroke-linejoin="round"/>
<path d="M20 40H25.8948C28.6034 40 31.2837 40.55 33.7733 41.617L49.5247 48.3677C51.8353 49.358 53.3333 51.63 53.3333 54.1437C53.3333 56.4577 51.4577 58.3333 49.1437 58.3333H46.9953C44.5763 58.3333 42.1793 57.8717 39.9333 56.9733L35 55" stroke="#A0ACD0" stroke-width="2.5" stroke-linecap="round" stroke-linejoin="round"/>
<path d="M46.6667 58.3333H68.583C71.2067 58.3333 73.3333 60.4599 73.3333 63.0836C73.3333 65.2043 71.9273 67.0683 69.888 67.6509L52.4837 72.6236C50.836 73.0943 49.1307 73.3333 47.417 73.3333C45.8123 73.3333 44.215 73.1239 42.6647 72.7106L20 66.6666" stroke="#A0ACD0" stroke-width="2.5" stroke-linecap="round" stroke-linejoin="round"/>
</svg>
