<svg width="20" height="20" viewBox="0 0 20 20" fill="none" xmlns="http://www.w3.org/2000/svg">
<rect width="20" height="20" rx="10" fill="#EC1592" fill-opacity="0.14"/>
<path d="M4.46968 4.46967C4.76257 4.17678 5.23733 4.17678 5.53022 4.46967L15.5302 14.4697C15.8231 14.7626 15.8231 15.2373 15.5302 15.5302C15.2373 15.8231 14.7626 15.8231 14.4697 15.5302L12.6025 13.663C11.818 14.1193 10.9274 14.3707 10.0126 14.3857H9.99995C8.10954 14.3857 6.67501 13.3073 5.75972 12.331C5.29534 11.8356 4.94171 11.3425 4.70405 10.9746C4.58481 10.7899 4.4931 10.6345 4.43061 10.5234C4.39952 10.4681 4.37523 10.4234 4.35835 10.3915C4.34994 10.3756 4.34267 10.3619 4.33784 10.3525C4.33563 10.3482 4.3334 10.3445 4.33198 10.3417C4.33129 10.3404 4.33052 10.3388 4.33003 10.3378V10.3359L4.32905 10.3349C4.22034 10.1172 4.22391 9.85997 4.33882 9.64545C4.82001 8.74877 5.44752 7.94077 6.19233 7.25287L4.46968 5.53022C4.17678 5.23732 4.17678 4.76256 4.46968 4.46967ZM7.25386 8.3144C6.71299 8.80584 6.24431 9.37196 5.86421 9.99701C5.89466 10.0468 5.92633 10.103 5.96382 10.1611C6.16639 10.4747 6.46596 10.8912 6.85347 11.3046C7.64093 12.1446 8.70385 12.8814 9.99116 12.8847C10.5113 12.8757 11.0199 12.7596 11.4892 12.5497L10.8769 11.9374C10.8597 11.9457 10.8435 11.956 10.8261 11.9638C10.5669 12.0793 10.2867 12.1424 10.0029 12.1474C9.71929 12.1524 9.43776 12.0993 9.17476 11.9931C8.91169 11.8868 8.67227 11.7289 8.47163 11.5283C8.271 11.3276 8.11209 11.0883 8.00581 10.8251C7.89962 10.5621 7.84748 10.2797 7.85249 9.99604C7.85757 9.71258 7.91978 9.43275 8.03511 9.17377C8.04305 9.15594 8.05207 9.13862 8.0605 9.12104L7.25386 8.3144ZM10.0009 5.6142C11.8909 5.61457 13.325 6.6928 14.2402 7.66889C14.7044 8.16406 15.0582 8.65642 15.2958 9.02436C15.415 9.20891 15.5068 9.36442 15.5693 9.47553C15.6005 9.531 15.6246 9.57636 15.6416 9.60834C15.6499 9.62409 15.6572 9.63706 15.6621 9.64643L15.6708 9.66401L15.706 9.74701C15.7768 9.94492 15.7614 10.1656 15.6611 10.3535C15.3606 10.9155 15.0021 11.4449 14.5917 11.9326C14.325 12.2493 13.852 12.29 13.5351 12.0234C13.2184 11.7566 13.1777 11.2836 13.4443 10.9667C13.6996 10.6633 13.9296 10.3398 14.1347 10.0009C14.1045 9.9515 14.0732 9.89536 14.0361 9.83783C13.8335 9.52416 13.5339 9.10761 13.1464 8.69428C12.3572 7.85247 11.2911 7.11322 9.99995 7.11322H9.998C9.73498 7.11262 9.47285 7.14315 9.21675 7.20307C8.81353 7.29745 8.4099 7.04665 8.31538 6.6435C8.22117 6.24028 8.47174 5.83651 8.87495 5.74213C9.2437 5.65586 9.62222 5.61345 10.0009 5.6142Z" fill="#EC1592"/>
</svg>
