<svg width="20" height="20" viewBox="0 0 20 20" fill="none" xmlns="http://www.w3.org/2000/svg">
<rect width="20" height="20" rx="10" fill="#494A4C" fill-opacity="0.14"/>
<path d="M14 5.25C14.9665 5.25 15.75 6.03351 15.75 7V9.5C15.75 9.91421 15.4142 10.25 15 10.25C14.5858 10.25 14.25 9.91421 14.25 9.5V9.25H5.75V13C5.75 13.1381 5.86192 13.25 6 13.25H10.25C10.6642 13.25 11 13.5858 11 14C11 14.4142 10.6642 14.75 10.25 14.75H6C5.03351 14.75 4.25 13.9665 4.25 13V7C4.25 6.0335 5.0335 5.25 6 5.25H14ZM14.4697 10.4697C14.7626 10.1768 15.2374 10.1768 15.5303 10.4697C15.8231 10.7626 15.8231 11.2374 15.5303 11.5303L14.5605 12.5L15.5303 13.4697C15.8231 13.7626 15.8231 14.2374 15.5303 14.5303C15.2374 14.8231 14.7626 14.8231 14.4697 14.5303L13.5 13.5605L12.5303 14.5303C12.2374 14.8231 11.7626 14.8231 11.4697 14.5303C11.1768 14.2374 11.1768 13.7626 11.4697 13.4697L12.4395 12.5L11.4697 11.5303C11.1768 11.2374 11.1768 10.7626 11.4697 10.4697C11.7626 10.1768 12.2374 10.1768 12.5303 10.4697L13.5 11.4395L14.4697 10.4697ZM6 6.75C5.86193 6.75 5.75 6.86193 5.75 7V7.75H14.25V7C14.25 6.86192 14.1381 6.75 14 6.75H6Z" fill="#494A4C"/>
</svg>
