<svg width="36" height="36" viewBox="0 0 36 36" fill="none" xmlns="http://www.w3.org/2000/svg">
<path opacity="0.2" d="M22.8587 10.6848L21.013 6.96965C19.6983 4.32322 19.041 3 18 3C16.959 3 16.3017 4.32322 14.987 6.96965L13.1414 10.6848C12.3018 12.3749 11.882 13.22 11.1329 13.4101C11.0808 13.4234 11.0281 13.4341 10.975 13.4422C10.2113 13.5595 9.49863 12.9446 8.0732 11.7149C4.68732 8.79392 2.99437 7.3334 1.96722 7.91498C1.90073 7.95262 1.83687 7.99477 1.77607 8.04112C0.836599 8.75732 1.49233 10.9023 2.8038 15.1922L4.74637 21.5465C5.45162 23.8535 5.80423 25.007 6.69643 25.6702C7.58862 26.3333 8.78767 26.3333 11.1858 26.3333L24.8143 26.3332C27.2123 26.3332 28.4113 26.3332 29.3035 25.67C30.1958 25.0068 30.5483 23.8533 31.2537 21.5465L33.1962 15.1922C34.5077 10.9023 35.1633 8.75733 34.224 8.04113C34.1632 7.99478 34.0992 7.95263 34.0328 7.91498C33.0056 7.33343 31.3127 8.79393 27.9268 11.7149C26.5013 12.9446 25.7887 13.5595 25.025 13.4422C24.9718 13.4341 24.9191 13.4233 24.867 13.4101C24.118 13.2199 23.6982 12.3749 22.8587 10.6848Z" fill="#FEB602"/>
<path d="M6.33331 33H29.6666" stroke="#FEB602" stroke-width="2.5" stroke-linecap="round" stroke-linejoin="round"/>
<path d="M18.2083 19.25H18M18.4166 19.25C18.4166 19.4802 18.2301 19.6667 18 19.6667C17.7698 19.6667 17.5833 19.4802 17.5833 19.25C17.5833 19.0199 17.7698 18.8334 18 18.8334C18.2301 18.8334 18.4166 19.0199 18.4166 19.25Z" stroke="#FEB602" stroke-width="2.5" stroke-linecap="round" stroke-linejoin="round"/>
<path d="M22.8587 10.6848L21.013 6.96965C19.6983 4.32322 19.041 3 18 3C16.959 3 16.3016 4.32322 14.987 6.96965L13.1414 10.6848C12.3018 12.3749 11.882 13.22 11.1329 13.4101C11.0808 13.4234 11.0281 13.4341 10.975 13.4422C10.2113 13.5595 9.49863 12.9446 8.0732 11.7149C4.68732 8.79392 2.99437 7.3334 1.96722 7.91498C1.90073 7.95262 1.83687 7.99477 1.77607 8.04112C0.836599 8.75732 1.49233 10.9023 2.8038 15.1922L4.74637 21.5465C5.45162 23.8535 5.80423 25.007 6.69643 25.6702C7.58862 26.3333 8.78767 26.3333 11.1858 26.3333L24.8143 26.3332C27.2123 26.3332 28.4113 26.3332 29.3035 25.67C30.1958 25.0068 30.5483 23.8533 31.2537 21.5465L33.1962 15.1922C34.5077 10.9023 35.1633 8.75733 34.224 8.04113C34.1632 7.99478 34.0992 7.95263 34.0328 7.91498C33.0057 7.33343 31.3127 8.79393 27.9268 11.7149C26.5013 12.9446 25.7887 13.5595 25.025 13.4422C24.9718 13.4341 24.9191 13.4233 24.867 13.4101C24.118 13.2199 23.6982 12.3749 22.8587 10.6848Z" stroke="#FEB602" stroke-width="2.5" stroke-linecap="round" stroke-linejoin="round"/>
</svg>
