<svg width="19" height="19" viewBox="0 0 19 19" fill="none" xmlns="http://www.w3.org/2000/svg">
<path fill-rule="evenodd" clip-rule="evenodd" d="M14.8889 10.3374C15.2133 10.215 15.575 10.3785 15.6975 10.7029C15.8199 11.0272 15.6564 11.3889 15.332 11.5114C15.0745 11.6088 14.7642 11.8248 14.4253 12.1418C14.0937 12.4521 13.7694 12.8261 13.481 13.1949C13.1938 13.5621 12.9496 13.9144 12.7771 14.1751C12.6911 14.3051 12.6233 14.4118 12.5776 14.485C12.5548 14.5215 12.5374 14.5497 12.5261 14.5684C12.5205 14.5775 12.5165 14.5844 12.5138 14.5888C12.5125 14.591 12.5111 14.5928 12.5105 14.5937C12.3916 14.7934 12.172 14.9118 11.9399 14.9003C11.7078 14.8888 11.5014 14.7501 11.4027 14.5398C11.1744 14.0528 10.9743 13.8697 10.8876 13.808C10.8627 13.7903 10.845 13.7819 10.8361 13.7778C10.5313 13.7348 10.2966 13.4739 10.2965 13.1572C10.2965 12.8105 10.5776 12.5293 10.9244 12.5293V13.0305C10.9245 12.5291 10.9254 12.5293 10.9261 12.5293H10.9473C10.9555 12.5296 10.9642 12.5303 10.9735 12.531C10.9922 12.5323 11.0133 12.5342 11.0364 12.5375C11.0827 12.5441 11.1369 12.555 11.1975 12.5735C11.3197 12.6107 11.4625 12.6758 11.6153 12.7844C11.735 12.8695 11.8568 12.9796 11.9791 13.1188C12.1274 12.9066 12.2995 12.6672 12.4917 12.4214C12.8035 12.0228 13.1722 11.5944 13.5677 11.2245C13.9559 10.8613 14.4078 10.5191 14.8889 10.3374ZM10.8876 13.7835C10.8929 13.7839 10.8987 13.7841 10.9048 13.7843C10.9079 13.7844 10.9114 13.7851 10.9146 13.7852H10.9228L10.9236 13.7843C10.9096 13.7843 10.8957 13.7836 10.8819 13.7827C10.8837 13.7828 10.8858 13.7834 10.8876 13.7835Z" fill="#151720"/>
<path fill-rule="evenodd" clip-rule="evenodd" d="M12.5988 6.94767C15.7199 6.94767 18.25 9.47779 18.25 12.5988C18.25 15.7199 15.7199 18.25 12.5988 18.25C9.47779 18.25 6.94767 15.7199 6.94767 12.5988C6.94767 9.47779 9.47779 6.94767 12.5988 6.94767ZM12.5988 8.20349C10.1714 8.20349 8.20349 10.1714 8.20349 12.5988C8.20349 15.0263 10.1714 16.9942 12.5988 16.9942C15.0263 16.9942 16.9942 15.0263 16.9942 12.5988C16.9942 10.1714 15.0263 8.20349 12.5988 8.20349Z" fill="#151720"/>
<path d="M13.436 0.25C14.207 0.25 14.8273 0.249741 15.3263 0.294967C15.8338 0.340978 16.2774 0.437721 16.6802 0.67024C17.1575 0.945792 17.5542 1.3425 17.8298 1.81977L17.9107 1.97266C18.0858 2.33436 18.1648 2.72958 18.205 3.17369C18.2503 3.6727 18.25 4.29304 18.25 5.06395C18.25 5.85874 18.2509 6.49453 18.2009 7.00327C18.1669 7.3482 17.8592 7.60046 17.5142 7.56659C17.1692 7.53254 16.917 7.22483 16.9509 6.87981C16.9933 6.44679 16.9942 5.88395 16.9942 5.06395C16.9942 4.27001 16.9938 3.71649 16.9549 3.28734C16.9264 2.97195 16.879 2.75852 16.8135 2.59566L16.7416 2.44767C16.5762 2.1614 16.3386 1.92375 16.0523 1.75845C15.8724 1.65457 15.6332 1.58317 15.2127 1.54506C14.7835 1.50617 14.23 1.50581 13.436 1.50581H5.06395C4.27001 1.50581 3.71649 1.50617 3.28734 1.54506C2.8668 1.58317 2.62759 1.65457 2.44767 1.75845C2.1614 1.92375 1.92375 2.1614 1.75845 2.44767C1.65457 2.62759 1.58317 2.8668 1.54506 3.28734C1.50617 3.71649 1.50581 4.27001 1.50581 5.06395C1.50581 5.85789 1.50617 6.41142 1.54506 6.84057C1.58317 7.26111 1.65457 7.50031 1.75845 7.68023L1.82386 7.7857C1.98399 8.02509 2.19731 8.22489 2.44767 8.36946L2.59566 8.44141C2.75852 8.50695 2.97195 8.55426 3.28734 8.58285C3.71649 8.62173 4.27001 8.62209 5.06395 8.62209H5.8472C6.19397 8.6221 6.47511 8.90322 6.47511 9.25C6.47511 9.59678 6.19397 9.87789 5.8472 9.87791H5.06395C4.29304 9.87791 3.6727 9.87817 3.17369 9.83294C2.66621 9.78693 2.22258 9.69019 1.81977 9.45767C1.40216 9.21656 1.04678 8.88245 0.779797 8.4831L0.67024 8.30814C0.43772 7.90533 0.340978 7.4617 0.294967 6.95421C0.249741 6.45521 0.25 5.83487 0.25 5.06395C0.25 4.29304 0.249741 3.6727 0.294967 3.17369C0.340978 2.66621 0.43772 2.22258 0.67024 1.81977C0.945792 1.3425 1.3425 0.945792 1.81977 0.67024C2.22258 0.43772 2.66621 0.340978 3.17369 0.294967C3.6727 0.249741 4.29304 0.25 5.06395 0.25H13.436Z" fill="#151720"/>
<path d="M5.07131 4.22674C5.53369 4.22674 5.90852 4.60158 5.90852 5.06395C5.90852 5.52633 5.53369 5.90116 5.07131 5.90116H5.06395C4.60158 5.90116 4.22674 5.52633 4.22674 5.06395C4.22674 4.60158 4.60158 4.22674 5.06395 4.22674H5.07131Z" fill="#151720"/>
<path d="M9.25736 4.22674C9.71974 4.22674 10.0946 4.60158 10.0946 5.06395C10.0946 5.52633 9.71974 5.90116 9.25736 5.90116H9.25C8.78762 5.90116 8.41279 5.52633 8.41279 5.06395C8.41279 4.60158 8.78762 4.22674 9.25 4.22674H9.25736Z" fill="#151720"/>
<path d="M13.4434 4.22674C13.9058 4.22674 14.2806 4.60158 14.2806 5.06395C14.2806 5.52633 13.9058 5.90116 13.4434 5.90116H13.436C12.9737 5.90116 12.5988 5.52633 12.5988 5.06395C12.5988 4.60158 12.9737 4.22674 13.436 4.22674H13.4434Z" fill="#151720"/>
</svg>
