<svg width="32" height="32" viewBox="0 0 32 32" fill="none" xmlns="http://www.w3.org/2000/svg">
<path opacity="0.4" d="M15.3335 9.33333C15.3335 5.65144 18.3183 2.66667 22.0002 2.66667H6.00016C4.5274 2.66667 3.3335 3.86057 3.3335 5.33333V26.6667C3.3335 28.1395 4.5274 29.3333 6.00016 29.3333H24.6668C26.1396 29.3333 27.3335 28.1395 27.3335 26.6667V13.332C26.1172 14.9516 24.1815 16 22.0002 16C18.3183 16 15.3335 13.0152 15.3335 9.33333Z" fill="#3560FB"/>
<path d="M10 17.3333H15.3333" stroke="#3560FB" stroke-width="1.5" stroke-linecap="round" stroke-linejoin="round"/>
<path d="M10 22.6667H20.6667" stroke="#3560FB" stroke-width="1.5" stroke-linecap="round" stroke-linejoin="round"/>
<path d="M12.0002 2.66667H6.00016C4.5274 2.66667 3.3335 3.86057 3.3335 5.33333V26.6667C3.3335 28.1395 4.5274 29.3333 6.00016 29.3333H24.6668C26.1396 29.3333 27.3335 28.1395 27.3335 26.6667V18.6667" stroke="#3560FB" stroke-width="1.5" stroke-linecap="round" stroke-linejoin="round"/>
<path d="M22.0002 2.66667C25.682 2.66667 28.6668 5.65144 28.6668 9.33333C28.6668 13.0152 25.682 16 22.0002 16C18.3183 16 15.3335 13.0152 15.3335 9.33333C15.3335 5.65144 18.3183 2.66667 22.0002 2.66667Z" stroke="#3560FB" stroke-width="1.5" stroke-linecap="round" stroke-linejoin="round"/>
<path d="M19.3335 9.33333L21.3335 11.3333L24.6668 7.33333" stroke="#3560FB" stroke-width="1.5" stroke-linecap="round" stroke-linejoin="round"/>
<path d="M19.3335 9.33333L21.3335 11.3333L24.6668 7.33333" stroke="#3560FB" stroke-width="1.5" stroke-linecap="round" stroke-linejoin="round"/>
</svg>
