<svg width="18" height="18" viewBox="0 0 18 18" fill="none" xmlns="http://www.w3.org/2000/svg">
<path d="M1.5 3.375H6.56802C7.16476 3.375 7.73708 3.61205 8.15903 4.03401L10.5 6.375" stroke="#727478" stroke-width="1.5" stroke-linecap="round" stroke-linejoin="round"/>
<path d="M3.75 10.125H1.5" stroke="#727478" stroke-width="1.5" stroke-linecap="round" stroke-linejoin="round"/>
<path d="M6.375 5.625L7.875 7.125C8.28922 7.53922 8.28922 8.21078 7.875 8.625C7.46079 9.03922 6.78922 9.03922 6.375 8.625L5.25 7.5C4.60448 8.14553 3.58253 8.21812 2.8522 7.6704L2.625 7.5" stroke="#727478" stroke-width="1.5" stroke-linecap="round" stroke-linejoin="round"/>
<path d="M3.75 8.25V11.625C3.75 13.0392 3.75 13.7463 4.18934 14.1856C4.62868 14.625 5.33579 14.625 6.75 14.625H13.5C14.9142 14.625 15.6213 14.625 16.0606 14.1856C16.5 13.7463 16.5 13.0392 16.5 11.625V9.375C16.5 7.9608 16.5 7.25368 16.0606 6.81434C15.6213 6.375 14.9142 6.375 13.5 6.375H7.125" stroke="#727478" stroke-width="1.5" stroke-linecap="round" stroke-linejoin="round"/>
<path d="M11.4375 10.5C11.4375 11.2249 10.8499 11.8125 10.125 11.8125C9.40013 11.8125 8.8125 11.2249 8.8125 10.5C8.8125 9.77513 9.40013 9.1875 10.125 9.1875C10.8499 9.1875 11.4375 9.77513 11.4375 10.5Z" stroke="#727478" stroke-width="1.5" stroke-linecap="round" stroke-linejoin="round"/>
</svg>
