<svg width="18" height="19" viewBox="0 0 18 19" fill="none" xmlns="http://www.w3.org/2000/svg">
<path fill-rule="evenodd" clip-rule="evenodd" d="M11.1176 0.29282C11.8644 0.229754 13.0928 0.0895935 13.9067 1.07601C14.492 1.78551 14.6395 2.77688 14.6346 3.64306C14.6311 4.25565 14.5491 4.86947 14.4422 5.39912L14.4448 5.39994C15.2272 5.54403 15.8828 5.78416 16.3722 6.29105C16.8567 6.79279 17.0613 7.41911 17.1572 8.15829C17.2514 8.88423 17.25 9.81145 17.25 10.969V12.6547C17.25 13.8441 17.2517 14.8054 17.1359 15.5602C17.0163 16.3395 16.76 16.9886 16.1798 17.4978C15.6061 18.0013 14.9374 18.1921 14.1502 18.2368C13.3954 18.2796 12.4585 18.19 11.3109 18.0823C10.1812 17.9763 8.98461 17.8316 7.76923 17.6351C7.4134 17.5774 7.17392 17.2534 7.23372 16.9116C7.29374 16.5697 7.63113 16.339 7.98718 16.3966C9.16868 16.5876 10.3348 16.7295 11.4386 16.8331C12.6282 16.9447 13.4445 17.0192 14.0727 16.9835C14.6687 16.9497 15.014 16.8198 15.2978 16.5707C15.5751 16.3273 15.7471 15.9946 15.8418 15.3771C15.9403 14.7349 15.9423 13.8828 15.9423 12.6547V10.969C15.9423 9.7785 15.9415 8.94385 15.8597 8.31362C15.7797 7.69699 15.6317 7.37216 15.4128 7.14537C15.1987 6.92367 14.8655 6.75638 14.1987 6.63359C13.522 6.50898 12.6138 6.4472 11.3237 6.36136C7.182 6.08577 3.65345 5.53514 1.55769 5.04268V11.8118C1.55765 12.1586 1.26493 12.4397 0.903846 12.4397C0.542761 12.4397 0.25004 12.1586 0.25 11.8118V4.22596L0.251703 4.19244H0.25C0.250245 3.18368 0.888764 2.23001 1.92633 1.92379C3.66703 1.41008 6.75697 0.661108 11.1176 0.29282ZM12.8817 1.85594C12.5703 1.47866 12.1255 1.46824 11.2326 1.54364C6.97355 1.90333 3.97387 2.63378 2.3103 3.12475C2.0086 3.21383 1.7573 3.45037 1.63602 3.76651C3.58463 4.24653 7.14655 4.82495 11.4139 5.1089C12.0556 5.15159 12.6308 5.18981 13.143 5.23561C13.2444 4.75351 13.3238 4.18816 13.3269 3.63652C13.3314 2.85269 13.1838 2.22235 12.8817 1.85594Z" fill="#151720"/>
<path fill-rule="evenodd" clip-rule="evenodd" d="M7.66026 11.1684C8.00051 11.0529 8.37403 11.2244 8.49459 11.551C8.61492 11.8778 8.43641 12.2365 8.09615 12.3522C7.59359 12.5232 7.03205 12.8832 6.45388 13.3701C5.88229 13.8514 5.32927 14.4274 4.84225 14.9879C4.35646 15.5471 3.94386 16.0825 3.65289 16.4783C3.50769 16.6758 3.39341 16.8381 3.31575 16.95C3.27698 17.0059 3.24682 17.0494 3.22721 17.0784C3.2177 17.0924 3.21062 17.1032 3.20593 17.1103C3.20362 17.1137 3.20187 17.1168 3.20082 17.1184L3.19912 17.1201C3.07277 17.3109 2.84941 17.4218 2.61423 17.4103C2.37889 17.3987 2.16794 17.2661 2.06255 17.0637C1.66552 16.3013 1.29802 15.9763 1.08604 15.8406C0.97943 15.7724 0.904995 15.7469 0.874048 15.7384C0.865557 15.7361 0.859773 15.7349 0.857021 15.7344C0.517801 15.7113 0.25 15.4406 0.25 15.1089C0.250075 14.7622 0.542783 14.4811 0.903846 14.4811V14.9822C0.903929 14.4813 0.905549 14.4811 0.905549 14.4811H0.926833C0.935478 14.4813 0.945337 14.4821 0.955779 14.4827C0.976802 14.484 1.00198 14.4865 1.02985 14.4901C1.08557 14.4972 1.15415 14.51 1.23332 14.5318C1.39304 14.5756 1.59119 14.6549 1.8114 14.7958C2.08458 14.9707 2.38145 15.2335 2.68064 15.624C2.97793 15.2249 3.37537 14.7156 3.83764 14.1835C4.35052 13.5931 4.95165 12.9654 5.59145 12.4266C6.22452 11.8935 6.93228 11.416 7.66026 11.1684ZM0.871494 15.736C0.875407 15.7362 0.880627 15.7366 0.885967 15.7368H0.902995L0.903846 15.736C0.888656 15.736 0.873656 15.7353 0.858724 15.7344C0.861432 15.7347 0.865629 15.7356 0.871494 15.736Z" fill="#151720"/>
<path fill-rule="evenodd" clip-rule="evenodd" d="M12.6731 9.87674C13.7564 9.87674 14.6345 10.7201 14.6346 11.7603C14.6346 12.8006 13.7564 13.6439 12.6731 13.6439C11.5897 13.6439 10.7115 12.8006 10.7115 11.7603C10.7116 10.7201 11.5898 9.87674 12.6731 9.87674ZM12.6731 11.1325C12.312 11.1325 12.0193 11.4136 12.0192 11.7603C12.0192 12.1071 12.312 12.3882 12.6731 12.3882C13.0342 12.3882 13.3269 12.1071 13.3269 11.7603C13.3268 11.4136 13.0341 11.1325 12.6731 11.1325Z" fill="#151720"/>
</svg>
