<svg width="16" height="16" viewBox="0 0 16 16" fill="none" xmlns="http://www.w3.org/2000/svg">
<path d="M9.38251 2.59031C9.87931 2.05206 10.1277 1.78294 10.3916 1.62596C11.0285 1.24718 11.8128 1.2354 12.4603 1.59489C12.7286 1.74388 12.9846 2.00542 13.4967 2.52852C14.0088 3.05161 14.2648 3.31316 14.4106 3.5873C14.7626 4.24876 14.751 5.04987 14.3802 5.70048C14.2266 5.97012 13.9631 6.22386 13.4362 6.73134L7.16711 12.7695C6.16863 13.7313 5.66938 14.2121 5.04542 14.4558C4.42145 14.6995 3.73551 14.6816 2.36361 14.6457L2.17696 14.6409C1.75931 14.6299 1.55049 14.6245 1.4291 14.4867C1.30771 14.3489 1.32428 14.1362 1.35743 13.7108L1.37543 13.4798C1.46871 12.2823 1.51535 11.6837 1.74918 11.1455C1.983 10.6073 2.38633 10.1703 3.19299 9.29634L9.38251 2.59031Z" stroke="#151720" stroke-width="1.5" stroke-linejoin="round"/>
<path d="M8.66663 2.66666L13.3333 7.33332" stroke="#151720" stroke-width="1.5" stroke-linejoin="round"/>
<path d="M9.33337 14.6667H14.6667" stroke="#151720" stroke-width="1.5" stroke-linecap="round" stroke-linejoin="round"/>
</svg>
