<svg width="20" height="20" viewBox="0 0 20 20" fill="none" xmlns="http://www.w3.org/2000/svg">
<rect width="20" height="20" rx="10" fill="#DA9408" fill-opacity="0.16"/>
<path d="M10 4.25C13.1756 4.25 15.75 6.82436 15.75 10C15.75 13.1756 13.1756 15.75 10 15.75C6.82436 15.75 4.25 13.1756 4.25 10C4.25 6.82436 6.82436 4.25 10 4.25ZM10 5.75C7.65279 5.75 5.75 7.65279 5.75 10C5.75 12.3472 7.65279 14.25 10 14.25C12.3472 14.25 14.25 12.3472 14.25 10C14.25 7.65279 12.3472 5.75 10 5.75ZM10 6.25C10.4142 6.25 10.75 6.5858 10.75 7V9.53613L12.335 10.3291C12.7053 10.5143 12.8558 10.9646 12.6709 11.335C12.4857 11.7053 12.0354 11.8558 11.665 11.6709L9.66504 10.6709C9.41096 10.5439 9.25 10.2841 9.25 10V7C9.25002 6.5858 9.5858 6.25 10 6.25Z" fill="#DA9408"/>
</svg>
