<svg width="20" height="20" viewBox="0 0 20 20" fill="none" xmlns="http://www.w3.org/2000/svg">
<rect width="20" height="20" rx="10" fill="#DA9408" fill-opacity="0.16"/>
<path d="M14.167 9.25C14.5809 9.25026 14.9169 9.58606 14.917 10C14.9168 12.7138 12.7147 14.9156 10.001 14.916C8.75507 14.916 7.7528 14.3617 7.04688 13.7891V13.9326C7.04688 14.3465 6.71068 14.6821 6.29688 14.6826C5.88266 14.6826 5.54688 14.3468 5.54688 13.9326V11.8496C5.54704 11.4355 5.88276 11.0996 6.29688 11.0996H8.17969C8.59357 11.0999 8.92952 11.4357 8.92969 11.8496C8.92969 12.2637 8.59368 12.5993 8.17969 12.5996H7.96289C8.50741 13.0492 9.19843 13.416 10.001 13.416C11.8863 13.4156 13.4168 11.8854 13.417 10C13.4171 9.58601 13.753 9.25018 14.167 9.25ZM10.001 5.08301C11.4895 5.08322 12.6305 5.66094 13.417 6.2666V6.06641C13.4171 5.65241 13.753 5.31658 14.167 5.31641C14.5809 5.31667 14.9169 5.65247 14.917 6.06641V8.14941C14.917 8.56346 14.581 8.89915 14.167 8.89941H12.3174C11.9032 8.89941 11.5674 8.56363 11.5674 8.14941C11.5677 7.73543 11.9033 7.39941 12.3174 7.39941H12.4307C11.8424 6.96399 11.0355 6.58321 10.001 6.58301C8.10056 6.58301 6.58412 8.11237 6.58398 10C6.58381 10.4139 6.24787 10.7497 5.83398 10.75C5.41988 10.75 5.08318 10.4141 5.08301 10C5.08314 7.28786 7.26822 5.08301 10.001 5.08301Z" fill="#DA9408"/>
</svg>
