<svg width="16" height="16" viewBox="0 0 16 16" fill="none" xmlns="http://www.w3.org/2000/svg">
<path d="M13.9634 8.66667C13.9876 8.4478 14 8.22533 14 8C14 4.68629 11.3137 2 8 2C6.11515 2 4.43331 2.86911 3.33333 4.22845M2.03662 7.33333C2.01242 7.5522 2 7.77467 2 8C2 11.3137 4.68629 14 8 14C9.88487 14 11.5667 13.1309 12.6667 11.7715" stroke="#494A4C" stroke-width="1.5" stroke-linecap="round" stroke-linejoin="round"/>
<path d="M5.33329 4.66667H4.66663C3.72382 4.66667 3.25241 4.66667 2.95952 4.37377C2.66663 4.08088 2.66663 3.60947 2.66663 2.66667V2" stroke="#494A4C" stroke-width="1.5" stroke-linecap="round" stroke-linejoin="round"/>
<path d="M10.6666 11.3333H11.3333C12.2761 11.3333 12.7475 11.3333 13.0404 11.6261C13.3333 11.9191 13.3333 12.3905 13.3333 13.3333V13.9999" stroke="#494A4C" stroke-width="1.5" stroke-linecap="round" stroke-linejoin="round"/>
</svg>
