<svg width="20" height="20" viewBox="0 0 20 20" fill="none" xmlns="http://www.w3.org/2000/svg">
<rect width="20" height="20" rx="10" fill="#3E7D29" fill-opacity="0.14"/>
<path d="M14 4.25C14.4142 4.25 14.75 4.58579 14.75 5V7C14.75 7.32272 14.5434 7.60975 14.2373 7.71191C13.9313 7.81376 13.5941 7.70807 13.4004 7.4502C12.6237 6.41639 11.3898 5.75 10 5.75C7.65279 5.75 5.75 7.65279 5.75 10C5.75 12.3472 7.65279 14.25 10 14.25C12.3472 14.25 14.25 12.3472 14.25 10C14.25 9.58579 14.5858 9.25 15 9.25C15.4142 9.25 15.75 9.58579 15.75 10C15.75 13.1756 13.1756 15.75 10 15.75C6.82436 15.75 4.25 13.1756 4.25 10C4.25 6.82436 6.82436 4.25 10 4.25C11.2066 4.25 12.3256 4.62313 13.25 5.25781V5C13.25 4.5859 13.5859 4.25019 14 4.25ZM10 6.25C10.4139 6.25 10.7485 6.58526 10.749 6.99902C11.1014 7.07754 11.4293 7.21096 11.709 7.39551C12.1737 7.70226 12.583 8.21055 12.583 8.87695C12.5829 9.24231 12.3216 9.54578 11.9756 9.6123C12.2025 9.76375 12.3972 9.96005 12.5342 10.2129C12.6888 10.4986 12.75 10.8113 12.75 11.124C12.7498 11.8578 12.3667 12.398 11.7988 12.71C11.4866 12.8813 11.1254 12.9812 10.748 13.0342C10.7302 13.4325 10.4027 13.75 10 13.75C9.59265 13.75 9.26185 13.4252 9.25098 13.0205C8.85632 12.9521 8.49187 12.8283 8.18262 12.6465C7.68566 12.3542 7.2501 11.8528 7.25 11.167C7.25 10.7528 7.58579 10.417 8 10.417C8.41421 10.417 8.75 10.7528 8.75 11.167C8.74997 11.1699 8.74973 11.181 8.76758 11.207C8.78958 11.2389 8.84026 11.2934 8.94238 11.3535C9.15133 11.4764 9.50727 11.5812 9.9873 11.583H10.0137C10.5367 11.5816 10.8846 11.5005 11.0762 11.3955C11.1632 11.3478 11.1997 11.305 11.2158 11.2793C11.2299 11.2568 11.2499 11.2138 11.25 11.124C11.25 11.0051 11.2278 10.949 11.2158 10.9268C11.2058 10.9082 11.1847 10.8793 11.1221 10.8428C10.9659 10.7517 10.6322 10.6641 10 10.6641C9.29369 10.6641 8.66645 10.5713 8.19629 10.2881C7.9468 10.1377 7.74088 9.93247 7.60254 9.66992C7.46635 9.41131 7.41703 9.13748 7.41699 8.87695C7.41699 8.21054 7.82626 7.70226 8.29102 7.39551C8.5705 7.21112 8.89794 7.07757 9.25 6.99902C9.25053 6.58526 9.58611 6.25 10 6.25ZM10 8.41699C9.6198 8.41699 9.30998 8.52032 9.11719 8.64746C8.91857 8.77857 8.91699 8.87695 8.91699 8.87695C8.91701 8.91364 8.91976 8.93801 8.92285 8.95215C8.92581 8.96551 8.92871 8.97168 8.92871 8.97168C8.92871 8.97168 8.93041 8.97329 8.93262 8.97559C8.93645 8.9795 8.94785 8.99014 8.9707 9.00391C9.08421 9.07206 9.37394 9.16406 10 9.16406C10.4234 9.16406 10.8338 9.19595 11.2051 9.28613C11.1283 9.1685 11.0831 9.02789 11.083 8.87695C11.083 8.87695 11.0814 8.77857 10.8828 8.64746C10.69 8.52032 10.3802 8.41699 10 8.41699Z" fill="#3E7D29"/>
</svg>
