<svg width="12" height="12" viewBox="0 0 12 12" fill="none" xmlns="http://www.w3.org/2000/svg">
<path d="M10.625 5.625C10.625 8.3864 8.3864 10.625 5.625 10.625C2.86357 10.625 0.625 8.3864 0.625 5.625C0.625 2.86357 2.86357 0.625 5.625 0.625C7.2608 0.625 8.71315 1.41056 9.62535 2.625V0.625" stroke="#3E7D29" stroke-width="1.25" stroke-linecap="round" stroke-linejoin="round"/>
<path d="M7.45833 4.5015C7.45833 3.83331 6.63753 3.29163 5.625 3.29163C4.61248 3.29163 3.79167 3.83331 3.79167 4.5015C3.79167 5.16969 4.29167 5.53853 5.625 5.53853C6.95833 5.53853 7.625 5.88423 7.625 6.74843C7.625 7.61263 6.79167 7.95829 5.625 7.95829C4.45833 7.95829 3.625 7.45829 3.625 6.79163" stroke="#3E7D29" stroke-width="1.25" stroke-linecap="round"/>
<path d="M5.625 2.625V3.29167M5.625 8.625V7.95833" stroke="#3E7D29" stroke-width="1.25" stroke-linecap="round"/>
</svg>
