<svg width="20" height="20" viewBox="0 0 20 20" fill="none" xmlns="http://www.w3.org/2000/svg">
<rect width="20" height="20" rx="10" fill="#3E7D29" fill-opacity="0.14"/>
<path fill-rule="evenodd" clip-rule="evenodd" d="M10 4.25C13.1756 4.25001 15.75 6.82437 15.75 10C15.75 10.3929 15.7102 10.7776 15.6348 11.1494C15.5523 11.5551 15.1567 11.8176 14.751 11.7354C14.345 11.653 14.0827 11.2565 14.165 10.8506C14.2207 10.5763 14.25 10.2919 14.25 10C14.25 7.6528 12.3472 5.75001 10 5.75C7.65279 5.75 5.75 7.65279 5.75 10C5.75001 12.3472 7.6528 14.25 10 14.25C10.1477 14.25 10.2933 14.2421 10.4365 14.2275C10.8415 14.1862 11.2026 14.4758 11.2549 14.877C11.26 14.8216 11.2694 14.7653 11.2871 14.709L11.7471 13.2471L11.2871 11.791C11.2266 11.5989 11.2432 11.4087 11.3125 11.2441C11.3019 11.2562 11.2918 11.2688 11.2803 11.2803C10.9874 11.5732 10.5126 11.5732 10.2197 11.2803L9.46973 10.5303C9.32908 10.3896 9.25 10.1989 9.25 10V8C9.25 7.58579 9.58579 7.25 10 7.25C10.4142 7.25 10.75 7.58579 10.75 8V9.68945L11.2803 10.2197C11.4992 10.4387 11.5538 10.759 11.4453 11.0293C11.6505 10.7884 11.9896 10.6659 12.3291 10.7988L12.4531 10.8594L15.3535 12.5557L15.3545 12.5566C15.8812 12.8654 15.8818 13.628 15.3545 13.9375L12.4541 15.6396C11.9108 15.9583 11.3272 15.5714 11.2588 15.0498C11.2237 15.3967 10.9493 15.683 10.5889 15.7197C10.395 15.7395 10.1985 15.75 10 15.75C6.82437 15.75 4.25001 13.1756 4.25 10C4.25 6.82437 6.82437 4.25 10 4.25ZM13.2588 13.0674C13.2883 13.1864 13.2877 13.3097 13.2578 13.4287L13.5654 13.2471L13.2588 13.0674Z" fill="#3E7D29"/>
</svg>
