<svg width="14" height="15" viewBox="0 0 14 15" fill="none" xmlns="http://www.w3.org/2000/svg">
<g clip-path="url(#clip0_1374_8542)">
<path d="M13.7002 6.29997C13.7002 6.29997 13.7002 6.19997 13.7002 6.09997C13.7002 6.09997 13.7002 5.89997 13.6002 5.89997L8.7002 0.999967C8.7002 0.999967 8.6002 0.899967 8.5002 0.899967C8.5002 0.899967 8.4002 0.899967 8.3002 0.899967H5.3002C1.8002 0.699967 0.200195 2.29997 0.200195 5.69997V9.29997C0.200195 12.7 1.7002 14.3 5.1002 14.3H8.7002C12.1002 14.3 13.7002 12.8 13.7002 9.29997V6.29997ZM9.0002 3.29997L11.2002 5.49997H10.6002C9.2002 5.49997 8.9002 5.19997 8.9002 3.89997V3.29997H9.0002ZM12.2002 9.29997C12.2002 11.9 11.3002 12.8 8.7002 12.8H5.1002C2.5002 12.8 1.7002 11.9 1.7002 9.29997V5.69997C1.7002 3.09997 2.6002 2.19997 5.1002 2.19997H7.4002V3.79997C7.4002 5.99997 8.3002 6.89997 10.6002 6.89997H12.2002V9.09997V9.29997ZM7.6002 7.39997H4.0002C3.6002 7.39997 3.2002 7.69997 3.2002 8.19997C3.2002 8.69997 3.5002 8.89997 4.0002 8.89997H7.6002C8.0002 8.89997 8.3002 8.59997 8.3002 8.19997C8.3002 7.79997 8.0002 7.39997 7.6002 7.39997ZM6.4002 9.69997H4.0002C3.6002 9.69997 3.2002 9.99997 3.2002 10.5C3.2002 11 3.5002 11.3 4.0002 11.3H6.4002C6.8002 11.3 7.2002 11 7.2002 10.5C7.2002 9.99997 6.9002 9.69997 6.4002 9.69997Z" fill="#727377"/>
</g>
<defs>
<clipPath id="clip0_1374_8542">
<rect width="14" height="14" fill="white" transform="translate(0 0.5)"/>
</clipPath>
</defs>
</svg>
