<svg width="19" height="19" viewBox="0 0 19 19" fill="none" xmlns="http://www.w3.org/2000/svg">
<path fill-rule="evenodd" clip-rule="evenodd" d="M12.0527 9.46637C12.5802 9.48168 13.0462 9.5227 13.4516 9.60536C13.9968 9.71659 14.4764 9.91152 14.8537 10.2619C15.4866 10.8496 15.6781 11.7321 15.7236 12.8111C16.0395 12.8147 16.3185 12.8235 16.5584 12.8503C16.9516 12.8944 17.3352 12.9923 17.6564 13.2599C17.9941 13.5414 18.135 13.9025 18.196 14.2803C18.2519 14.6267 18.25 15.0566 18.25 15.5287C18.25 16.0008 18.2519 16.4307 18.196 16.7772C18.1351 17.155 17.9941 17.516 17.6564 17.7975C17.3352 18.0652 16.9516 18.1631 16.5584 18.2071C16.1733 18.2503 15.6876 18.2496 15.1105 18.2496C14.5333 18.2496 14.0476 18.2503 13.6625 18.2071C13.2693 18.1631 12.8858 18.0652 12.5645 17.7975C12.2269 17.516 12.0859 17.155 12.0249 16.7772C11.969 16.4307 11.9709 16.0008 11.9709 15.5287C11.9709 15.0566 11.969 14.6267 12.0249 14.2803C12.0859 13.9025 12.2268 13.5414 12.5645 13.2599C12.8858 12.9923 13.2694 12.8944 13.6625 12.8503C13.8946 12.8243 14.1631 12.815 14.4662 12.8111C14.4186 11.8528 14.2546 11.4202 13.9985 11.1825C13.8472 11.0421 13.611 10.9195 13.2006 10.8358C12.8891 10.7723 12.503 10.7363 12.02 10.7222L11.5041 10.7148H6.99591C6.26266 10.7148 5.71465 10.7511 5.29942 10.8358C4.88903 10.9195 4.65275 11.0421 4.50146 11.1825C4.24542 11.4202 4.08054 11.8528 4.03298 12.8111C4.33638 12.815 4.60523 12.8243 4.83749 12.8503C5.23063 12.8944 5.61425 12.9923 5.9355 13.2599C6.27315 13.5414 6.41411 13.9025 6.47511 14.2803C6.531 14.6267 6.52907 15.0566 6.52907 15.5287C6.52907 16.0008 6.53098 16.4307 6.47511 16.7772C6.41413 17.155 6.27315 17.516 5.9355 17.7975C5.61423 18.0652 5.23066 18.1631 4.83749 18.2071C4.45235 18.2503 3.96668 18.2496 3.38954 18.2496C2.8124 18.2496 2.32673 18.2503 1.94159 18.2071C1.54842 18.1631 1.16484 18.0652 0.843576 17.7975C0.505941 17.516 0.364949 17.155 0.303969 16.7772C0.248097 16.4307 0.250008 16.0008 0.250008 15.5287C0.250008 15.0566 0.248077 14.6267 0.303969 14.2803C0.364967 13.9025 0.505927 13.5414 0.843576 13.2599C1.16483 12.9923 1.54844 12.8944 1.94159 12.8503C2.18134 12.8235 2.46006 12.8147 2.77553 12.8111C2.82105 11.732 3.01334 10.8496 3.64626 10.2619C4.02361 9.91152 4.50315 9.71659 5.04842 9.60536C5.58903 9.49511 6.2376 9.45901 6.99591 9.45901H11.5041L12.0527 9.46637ZM3.38954 14.0636C2.7827 14.0636 2.38022 14.0645 2.0814 14.098C1.79125 14.1305 1.69469 14.1859 1.64808 14.2247C1.61811 14.2497 1.5744 14.2887 1.54343 14.4806C1.50741 14.704 1.50582 15.0145 1.50582 15.5287C1.50582 16.043 1.50743 16.3534 1.54343 16.5769C1.57437 16.7687 1.6181 16.8078 1.64808 16.8328C1.69466 16.8715 1.79112 16.927 2.0814 16.9595C2.38022 16.993 2.7827 16.9938 3.38954 16.9938C3.99639 16.9938 4.39886 16.993 4.69768 16.9595C4.98798 16.927 5.08441 16.8715 5.131 16.8328C5.16098 16.8078 5.2047 16.7687 5.23565 16.5769C5.27165 16.3534 5.27326 16.043 5.27326 15.5287C5.27326 15.0145 5.27167 14.704 5.23565 14.4806C5.20468 14.2888 5.16097 14.2497 5.131 14.2247C5.08438 14.1859 4.98781 14.1305 4.69768 14.098C4.39887 14.0645 3.99637 14.0636 3.38954 14.0636ZM15.1105 14.0636C14.5036 14.0636 14.1011 14.0645 13.8023 14.098C13.5122 14.1305 13.4156 14.1859 13.369 14.2247C13.339 14.2497 13.2953 14.2887 13.2643 14.4806C13.2283 14.704 13.2267 15.0145 13.2267 15.5287C13.2267 16.043 13.2283 16.3534 13.2643 16.5769C13.2953 16.7687 13.339 16.8078 13.369 16.8328C13.4156 16.8715 13.512 16.927 13.8023 16.9595C14.1011 16.993 14.5036 16.9938 15.1105 16.9938C15.7173 16.9938 16.1198 16.993 16.4186 16.9595C16.7089 16.927 16.8053 16.8715 16.8519 16.8328C16.8819 16.8078 16.9256 16.7687 16.9566 16.5769C16.9926 16.3534 16.9942 16.043 16.9942 15.5287C16.9942 15.0145 16.9926 14.704 16.9566 14.4806C16.9256 14.2888 16.8819 14.2497 16.8519 14.2247C16.8053 14.1859 16.7087 14.1305 16.4186 14.098C16.1198 14.0645 15.7173 14.0636 15.1105 14.0636Z" fill="#151720"/>
<path fill-rule="evenodd" clip-rule="evenodd" d="M7.34502 0.249792C7.7345 0.249792 8.09017 0.240706 8.41279 0.360165C9.12477 0.623856 9.4048 1.2821 9.57131 1.61106C9.59681 1.66143 9.6107 1.68818 9.62118 1.70754C9.63019 1.72415 9.63 1.72272 9.62445 1.7149C9.63121 1.72437 9.64482 1.73484 9.66452 1.73779H11.0397C11.4234 1.73779 11.758 1.7374 12.0306 1.76477C12.3134 1.79318 12.5988 1.85732 12.8613 2.03048C13.053 2.15705 13.2181 2.32006 13.3469 2.5104C13.5238 2.77182 13.5893 3.05626 13.6184 3.33779C13.6463 3.60855 13.6453 3.94106 13.6453 4.31971C13.6453 4.95955 13.6458 5.48751 13.602 5.91235C13.5571 6.34803 13.4605 6.74495 13.2202 7.10029C13.0364 7.37204 12.8002 7.60532 12.5261 7.78624C12.1687 8.02198 11.7702 8.11659 11.3316 8.1607C10.9028 8.20377 10.3694 8.20321 9.72093 8.20321H9.25C8.37963 8.20321 7.66445 8.20448 7.10057 8.12963C6.5194 8.05245 6.0052 7.88437 5.59294 7.4772C5.17967 7.06898 5.00769 6.55784 4.92906 5.98021C4.85306 5.42149 4.85466 4.71326 4.85466 3.8545V2.71725C4.85465 2.3908 4.85412 2.1044 4.87509 1.86942C4.89685 1.62591 4.94579 1.37758 5.07949 1.14095C5.2393 0.858292 5.47474 0.625523 5.75891 0.468904C5.99588 0.338346 6.24437 0.29153 6.48901 0.270232C6.72565 0.249639 7.01411 0.249792 7.34502 0.249792ZM7.34502 1.5056C6.99193 1.5056 6.76733 1.50637 6.59775 1.52113C6.4363 1.53519 6.38449 1.55849 6.36474 1.56937C6.2832 1.6144 6.217 1.68053 6.1726 1.75904C6.16305 1.77598 6.14006 1.82408 6.126 1.98143C6.11119 2.14763 6.11047 2.36831 6.11047 2.71725V3.8545C6.11047 4.74921 6.11161 5.35659 6.17342 5.81097C6.2327 6.24645 6.33759 6.44692 6.47593 6.58358C6.61538 6.72123 6.82119 6.82542 7.26572 6.88445C7.72773 6.9458 8.34447 6.94741 9.25 6.94741H9.72093C10.3952 6.94741 10.8543 6.94674 11.2057 6.91143C11.547 6.87714 11.7168 6.81492 11.8344 6.73729C11.9715 6.64677 12.0893 6.5308 12.1802 6.39636C12.2571 6.28259 12.3191 6.11808 12.3536 5.78399C12.3891 5.4384 12.3895 4.98597 12.3895 4.31971C12.3895 3.91475 12.3888 3.65845 12.3691 3.46697C12.3506 3.28725 12.3206 3.2345 12.307 3.21434C12.271 3.16125 12.2243 3.1148 12.1696 3.07862C12.1469 3.06368 12.0904 3.03262 11.9055 3.01403C11.7102 2.99441 11.4493 2.99359 11.0397 2.99359H9.78797C9.69847 2.99359 9.59013 2.9958 9.48465 2.98051C9.13048 2.92914 8.80976 2.73591 8.60084 2.44172C8.53856 2.35399 8.49049 2.25605 8.45122 2.17846C8.34181 1.96234 8.27422 1.82445 8.18959 1.71081C8.11801 1.61478 8.05475 1.56631 7.97702 1.53748C7.91588 1.51485 7.83222 1.5056 7.34502 1.5056Z" fill="#151720"/>
</svg>
