<svg width="20" height="20" viewBox="0 0 20 20" fill="none" xmlns="http://www.w3.org/2000/svg">
<path d="M17.7646 5.95114L17.3533 5.23731C17.0422 4.69745 16.8866 4.42752 16.622 4.31988C16.3573 4.21224 16.058 4.29718 15.4594 4.46705L14.4426 4.75346C14.0604 4.84159 13.6594 4.7916 13.3105 4.61231L13.0297 4.45033C12.7305 4.25868 12.5003 3.97609 12.3729 3.64393L12.0946 2.81278C11.9117 2.26276 11.8202 1.98775 11.6024 1.83045C11.3846 1.67316 11.0952 1.67316 10.5166 1.67316H9.58762C9.00899 1.67316 8.71968 1.67316 8.50186 1.83045C8.28405 1.98775 8.19256 2.26276 8.00958 2.81278L7.73129 3.64393C7.60388 3.97609 7.37372 4.25868 7.07448 4.45033L6.79375 4.61231C6.44479 4.7916 6.04383 4.84159 5.66166 4.75346L4.6448 4.46705C4.04619 4.29718 3.74688 4.21224 3.48224 4.31988C3.21759 4.42752 3.06205 4.69745 2.75097 5.23731L2.33965 5.95114C2.04806 6.45718 1.90226 6.7102 1.93056 6.97955C1.95886 7.2489 2.15403 7.46596 2.54439 7.90008L3.4036 8.86067C3.61359 9.12652 3.76268 9.58982 3.76268 10.0064C3.76268 10.4232 3.61364 10.8863 3.40362 11.1522L2.5444 12.1128C2.15404 12.5469 1.95886 12.764 1.93056 13.0334C1.90226 13.3027 2.04806 13.5557 2.33965 14.0618L2.75096 14.7756C3.06203 15.3154 3.21759 15.5854 3.48224 15.693C3.74689 15.8007 4.0462 15.7157 4.64482 15.5458L5.66163 15.2594C6.04387 15.1713 6.4449 15.2213 6.7939 15.4006L7.07459 15.5626C7.37377 15.7543 7.60388 16.0369 7.73126 16.369L8.00958 17.2002C8.19256 17.7502 8.28405 18.0252 8.50186 18.1825C8.71968 18.3398 9.00899 18.3398 9.58762 18.3398H10.5166C11.0952 18.3398 11.3846 18.3398 11.6024 18.1825C11.8202 18.0252 11.9117 17.7502 12.0946 17.2002L12.373 16.369C12.5003 16.0369 12.7305 15.7543 13.0296 15.5626L13.3103 15.4006C13.6593 15.2213 14.0604 15.1713 14.4426 15.2594L15.4594 15.5458C16.058 15.7157 16.3573 15.8007 16.622 15.693C16.8866 15.5854 17.0422 15.3154 17.3533 14.7756L17.3533 14.7756L17.7646 14.0618C18.0562 13.5557 18.202 13.3027 18.1737 13.0334C18.1454 12.764 17.9502 12.5469 17.5598 12.1128L16.7006 11.1522C16.4906 10.8863 16.3415 10.4232 16.3415 10.0064C16.3415 9.58982 16.4906 9.12652 16.7006 8.86067L17.5598 7.90008C17.9502 7.46596 18.1454 7.2489 18.1737 6.97955C18.202 6.7102 18.0562 6.45718 17.7646 5.95114Z" stroke="#494A4C" stroke-width="1.5" stroke-linecap="round"/>
<path d="M12.9329 9.99998C12.9329 11.6108 11.6271 12.9166 10.0163 12.9166C8.40545 12.9166 7.09961 11.6108 7.09961 9.99998C7.09961 8.38915 8.40545 7.08331 10.0163 7.08331C11.6271 7.08331 12.9329 8.38915 12.9329 9.99998Z" stroke="#494A4C" stroke-width="1.5"/>
</svg>
