<svg width="20" height="20" viewBox="0 0 20 20" fill="none" xmlns="http://www.w3.org/2000/svg">
<rect width="20" height="20" fill="white"/>
<path d="M12.7896 10C12.7896 11.5464 11.536 12.8 9.98958 12.8C8.44318 12.8 7.18958 11.5464 7.18958 10C7.18958 8.45364 8.44318 7.20004 9.98958 7.20004C11.536 7.20004 12.7896 8.45364 12.7896 10Z" stroke="#151720" stroke-width="1.5"/>
<path d="M8.20727 2.54702L7.5896 4.4L6.34173 5.18925L4.29997 4.68405C3.95768 4.59936 3.6003 4.74876 3.42013 5.05187L2.32877 6.88794C2.13211 7.21882 2.19894 7.64285 2.48785 7.89718L3.91996 9.15792V10.8421L2.4883 12.1028C2.19945 12.3571 2.13266 12.7811 2.32931 13.1119L3.42071 14.9481C3.60088 15.2512 3.95826 15.4006 4.30055 15.3159L6.34231 14.8107L7.52447 15.4737L8.08876 17.4225C8.1878 17.7646 8.50104 18 8.8572 18H11.1226C11.4787 18 11.792 17.7646 11.891 17.4225L12.4554 15.4737L13.6369 14.8107L15.6786 15.3159C16.021 15.4006 16.3783 15.2512 16.5585 14.9481L17.6705 13.0773C17.8578 12.7622 17.807 12.3602 17.5473 12.1016L16.1023 10.663L16.1029 9.33704L17.5478 7.89838C17.8076 7.63979 17.8584 7.23777 17.6711 6.92271L16.559 5.05187C16.3789 4.74876 16.0215 4.59936 15.6792 4.68405L13.6374 5.18925L12.3896 4.4L11.7719 2.54702C11.663 2.22034 11.3574 2 11.013 2H8.96624C8.62184 2 8.31616 2.22034 8.20727 2.54702Z" stroke="#151720" stroke-width="1.5" stroke-linecap="round" stroke-linejoin="round"/>
</svg>
