<svg width="18" height="19" viewBox="0 0 18 19" fill="none" xmlns="http://www.w3.org/2000/svg">
<path fill-rule="evenodd" clip-rule="evenodd" d="M9.02674 5.69313C10.9268 5.69313 12.4671 7.28617 12.4671 9.25127C12.4671 11.2164 10.9268 12.8094 9.02674 12.8094C7.12686 12.8092 5.58641 11.2163 5.58641 9.25127C5.58641 7.28629 7.12687 5.69334 9.02674 5.69313ZM9.02674 6.94895C7.79747 6.94915 6.80065 7.97986 6.80064 9.25127C6.80064 10.5227 7.79747 11.5534 9.02674 11.5536C10.2562 11.5536 11.2528 10.5228 11.2528 9.25127C11.2528 7.97974 10.2562 6.94895 9.02674 6.94895Z" fill="#151720"/>
<path fill-rule="evenodd" clip-rule="evenodd" d="M9.51291 0.257819C9.77958 0.257818 10.031 0.256841 10.2402 0.281529C10.4651 0.308138 10.7025 0.370212 10.9232 0.53498C11.1435 0.699648 11.2745 0.912312 11.3698 1.12446C11.4586 1.32226 11.5376 1.56995 11.622 1.83249L11.8845 2.64599C11.9606 2.84803 12.0959 3.02 12.2702 3.13899L12.5169 3.28616C12.723 3.39199 12.9579 3.42122 13.1825 3.36955L14.1485 3.0883L14.5477 2.97466C14.6744 2.94079 14.7944 2.91191 14.905 2.89372C15.1427 2.8547 15.403 2.8503 15.6718 2.96321C15.9405 3.07625 16.1239 3.2675 16.2679 3.46685C16.4022 3.65281 16.5361 3.89495 16.6797 4.1528L17.0797 4.86982C17.2143 5.11138 17.3416 5.33874 17.426 5.54025C17.5165 5.75656 17.5834 6.00102 17.5548 6.28261C17.5262 6.56433 17.4111 6.78868 17.2789 6.98083C17.1561 7.15942 16.986 7.35292 16.8062 7.55968L15.9896 8.504C15.8866 8.64576 15.7778 8.96059 15.7778 9.25781C15.7778 9.55498 15.8867 9.86883 15.9896 10.0108L16.8062 10.9543L17.0639 11.2552C17.1443 11.3519 17.2175 11.4454 17.2789 11.5348C17.4111 11.7269 17.5262 11.9513 17.5548 12.233C17.5834 12.5146 17.5165 12.7591 17.426 12.9754C17.3416 13.1769 17.2143 13.4042 17.0797 13.6458L16.6797 14.3628C16.5361 14.6206 16.4022 14.8628 16.2679 15.0488C16.1239 15.2481 15.9405 15.4394 15.6718 15.5524C15.403 15.6653 15.1427 15.6609 14.905 15.6219C14.6835 15.5855 14.4247 15.5084 14.1485 15.4273L13.1825 15.1453C12.958 15.0937 12.7229 15.123 12.5169 15.2286L12.2702 15.3758C12.096 15.4947 11.9606 15.6669 11.8845 15.8688L11.6212 16.6823L11.622 16.6831C11.5376 16.9457 11.4586 17.1934 11.3698 17.3912C11.2745 17.6033 11.1435 17.816 10.9232 17.9806C10.7025 18.1454 10.4651 18.2075 10.2402 18.2341C10.031 18.2588 9.77958 18.2578 9.51291 18.2578H8.61014C8.34344 18.2578 8.09206 18.2588 7.88286 18.2341C7.65797 18.2075 7.42051 18.1455 7.19985 17.9806C6.97963 17.816 6.84847 17.6033 6.75321 17.3912C6.66443 17.1934 6.58548 16.9457 6.50104 16.6831L6.23779 15.8688C6.16147 15.6668 6.02656 15.4946 5.85202 15.3758L5.60538 15.2286C5.39921 15.1232 5.16422 15.0934 4.93976 15.1453L3.97375 15.4265L3.97454 15.4273C3.69827 15.5084 3.43949 15.5855 3.21802 15.6219C2.98038 15.6609 2.72001 15.6654 2.45122 15.5524C2.18259 15.4393 1.99915 15.2481 1.85517 15.0488C1.72089 14.8628 1.58694 14.6206 1.44331 14.3628L1.0441 13.6458C0.909519 13.4043 0.781423 13.1769 0.69706 12.9754C0.606563 12.7591 0.539612 12.5146 0.568206 12.233C0.596838 11.9514 0.712013 11.7269 0.844096 11.5348C0.967059 11.356 1.13678 11.1614 1.31683 10.9543L2.13264 10.0108C2.2357 9.86911 2.34525 9.55539 2.34529 9.25781C2.34528 8.96019 2.23581 8.64549 2.13264 8.504L1.31603 7.5605C1.1364 7.3539 0.966804 7.15929 0.844096 6.98083C0.712015 6.78871 0.596851 6.56425 0.568206 6.28261C0.539622 6.0011 0.606573 5.75652 0.69706 5.54025C0.781425 5.33874 0.909514 5.11138 1.0441 4.86982L1.44331 4.1528C1.58696 3.89496 1.72088 3.65283 1.85517 3.46685C1.99916 3.2675 2.18257 3.0763 2.45122 2.96321C2.72001 2.85021 2.98038 2.85473 3.21802 2.89372C3.43949 2.9301 3.69827 3.00722 3.97454 3.0883L4.93976 3.36955C5.16436 3.4215 5.39909 3.39177 5.60538 3.28616L5.85202 3.13899C6.0266 3.02006 6.16155 2.84818 6.23779 2.64599L6.50104 1.83249L6.62594 1.45395C6.66717 1.33481 6.70888 1.22322 6.75321 1.12446C6.84847 0.912337 6.97963 0.699663 7.19985 0.53498C7.42052 0.370167 7.65797 0.308168 7.88286 0.281529C8.09206 0.256808 8.34344 0.257817 8.61014 0.257819H9.51291ZM8.61014 1.51363C8.31542 1.51363 8.14486 1.51444 8.02041 1.52917C7.96456 1.5358 7.93533 1.54408 7.9216 1.54879C7.91636 1.55058 7.91315 1.55154 7.91211 1.55206L7.91053 1.55369C7.90967 1.55452 7.90697 1.55692 7.90341 1.56187C7.8946 1.57416 7.87811 1.60063 7.8544 1.65344C7.80146 1.77139 7.74686 1.93913 7.65361 2.22902L7.65282 2.22984L7.38246 3.06541L7.37851 3.07767L7.37377 3.09076C7.20363 3.54927 6.89611 3.93947 6.49629 4.20431L6.48444 4.21248L6.47258 4.21984L6.19985 4.38254L6.1872 4.3899L6.17376 4.39726C5.70739 4.64495 5.17077 4.71368 4.65992 4.59185L4.64648 4.58857L4.63225 4.58449L3.64411 4.2967C3.33935 4.20725 3.16083 4.15589 3.0275 4.134C2.96739 4.12414 2.93453 4.12404 2.9192 4.125C2.91258 4.12546 2.90935 4.12654 2.90893 4.12664C2.90803 4.12717 2.90407 4.12907 2.89944 4.13318C2.88761 4.14377 2.86396 4.16773 2.8275 4.21821C2.74653 4.33037 2.65383 4.49569 2.49549 4.77989L2.09548 5.49691C1.9469 5.76361 1.86205 5.91869 1.81169 6.03897C1.78903 6.09313 1.78069 6.12362 1.7777 6.13872C1.77632 6.14568 1.77616 6.1494 1.77612 6.15017V6.15262C1.77637 6.15357 1.77751 6.15717 1.78007 6.16325C1.78605 6.17736 1.80024 6.20545 1.83303 6.25318C1.86971 6.30652 1.91672 6.36694 1.97928 6.44204L2.22039 6.72166L2.22118 6.72329L3.05596 7.68805L3.07968 7.71748C3.38275 8.11432 3.55952 8.72426 3.55952 9.25781C3.55949 9.79157 3.38279 10.4013 3.07968 10.7981L3.05596 10.8276L2.22118 11.7923L2.22039 11.794C2.02148 12.0227 1.90643 12.1557 1.83303 12.2624C1.80021 12.3102 1.78603 12.3383 1.78007 12.3524C1.77744 12.3586 1.77635 12.3621 1.77612 12.363V12.3655C1.77616 12.3662 1.77633 12.37 1.7777 12.3769C1.7807 12.392 1.78905 12.4226 1.81169 12.4767C1.86205 12.5969 1.9469 12.752 2.09548 13.0187L2.49549 13.7357C2.65379 14.0199 2.74654 14.1853 2.8275 14.2974C2.86385 14.3477 2.88758 14.371 2.89944 14.3816L2.90814 14.389C2.90859 14.3891 2.91262 14.3902 2.9192 14.3906C2.93453 14.3916 2.96739 14.3915 3.0275 14.3816C3.16084 14.3597 3.33855 14.3084 3.64332 14.2189L4.63225 13.9311L4.64569 13.927L4.65992 13.923C5.1708 13.8011 5.70738 13.8706 6.17376 14.1184L6.1872 14.1257L6.19985 14.1331L6.47258 14.2958L6.48523 14.3031L6.49708 14.3113C6.89665 14.5762 7.20372 14.9665 7.37377 15.4249L7.37851 15.4379L7.38246 15.4502L7.65282 16.2858L7.65361 16.2866C7.74685 16.5765 7.80147 16.7442 7.8544 16.8622C7.8781 16.915 7.89459 16.9415 7.90341 16.9538C7.90696 16.9587 7.90966 16.9611 7.91053 16.9619L7.91211 16.9636C7.91315 16.9641 7.91637 16.9651 7.9216 16.9668C7.93533 16.9715 7.96456 16.9798 8.02041 16.9865C8.14486 17.0012 8.31542 17.002 8.61014 17.002H9.51291C9.80759 17.002 9.97815 17.0012 10.1026 16.9865C10.1583 16.9799 10.1876 16.9716 10.2014 16.9668C10.2064 16.9651 10.2097 16.9641 10.2109 16.9636L10.2125 16.9619C10.2131 16.9613 10.2158 16.959 10.2196 16.9538C10.2284 16.9415 10.2448 16.9152 10.2686 16.8622C10.3216 16.7442 10.3762 16.5765 10.4694 16.2866L10.4702 16.2858L10.7406 15.4502L10.7445 15.4379L10.7493 15.4249C10.9193 14.9664 11.2271 14.5762 11.6267 14.3113L11.6386 14.3031L11.6505 14.2958L11.9232 14.1331L11.9358 14.1257L11.9493 14.1184C12.3573 13.9016 12.819 13.8212 13.2702 13.8862L13.4631 13.923L13.4773 13.927L13.4908 13.9311L14.4789 14.2189C14.7836 14.3084 14.9622 14.3597 15.0955 14.3816C15.1554 14.3915 15.1883 14.3916 15.2038 14.3906C15.2097 14.3902 15.2131 14.3893 15.2141 14.389L15.2236 14.3816C15.2354 14.3711 15.259 14.3479 15.2955 14.2974C15.3765 14.1853 15.4692 14.0199 15.6276 13.7357L16.0276 13.0187C16.1761 12.752 16.261 12.5969 16.3114 12.4767C16.334 12.4225 16.3423 12.3921 16.3453 12.3769C16.3467 12.3699 16.3469 12.3662 16.3469 12.3655V12.363C16.3466 12.362 16.3455 12.3584 16.343 12.3524C16.337 12.3382 16.3228 12.3102 16.29 12.2624C16.2166 12.1557 16.1015 12.0227 15.9027 11.794L15.9019 11.7923L15.0671 10.8276L15.0434 10.7981C14.7403 10.4013 14.5635 9.79149 14.5635 9.25781C14.5635 8.72434 14.7404 8.11432 15.0434 7.71748L15.0671 7.68805L15.9019 6.72329L15.9027 6.72166C16.1016 6.49289 16.2166 6.35992 16.29 6.25318C16.3228 6.20549 16.337 6.17743 16.343 6.16325C16.3455 6.15726 16.3466 6.15369 16.3469 6.15262V6.15017C16.3469 6.14933 16.3467 6.14562 16.3453 6.13872C16.3423 6.12358 16.334 6.09311 16.3114 6.03897C16.261 5.91869 16.1761 5.7636 16.0276 5.49691L15.6276 4.77989C15.4692 4.49566 15.3765 4.33035 15.2955 4.21821C15.259 4.1676 15.2354 4.14367 15.2236 4.13318L15.2149 4.12664C15.2139 4.12635 15.2098 4.12538 15.2038 4.125C15.1883 4.12406 15.1554 4.12416 15.0955 4.134C14.9622 4.15593 14.7844 4.20728 14.4797 4.2967L13.4908 4.58449L13.4773 4.58857L13.4631 4.59185C12.9523 4.71361 12.4156 4.64503 11.9493 4.39726L11.9358 4.3899L11.9232 4.38254L11.6505 4.21984L11.6386 4.21248L11.6267 4.20431C11.227 3.93945 10.9194 3.54923 10.7493 3.09076L10.7445 3.07767L10.7406 3.06541L10.4702 2.22984L10.4694 2.22902C10.3762 1.9391 10.3216 1.77139 10.2686 1.65344C10.2449 1.60049 10.2284 1.57407 10.2196 1.56187C10.2158 1.55661 10.2131 1.55432 10.2125 1.55369L10.2109 1.55206C10.2097 1.55151 10.2064 1.55049 10.2014 1.54879C10.1876 1.54406 10.1583 1.53576 10.1026 1.52917C9.97816 1.51447 9.80759 1.51363 9.51291 1.51363H8.61014Z" fill="#151720"/>
</svg>
