<svg width="20" height="20" viewBox="0 0 20 20" fill="none" xmlns="http://www.w3.org/2000/svg">
<g clip-path="url(#clip0_3366_5176)">
<path d="M7.5 3.75C4.58702 4.75087 2.5 7.45146 2.5 10.6259C2.5 11.6315 2.70945 12.5896 3.08826 13.4612M12.5 3.75C15.413 4.75087 17.5 7.45146 17.5 10.6259C17.5 11.478 17.3496 12.296 17.0732 13.0562M13.75 16.9413C12.6468 17.5616 11.3661 17.9167 10 17.9167C8.63392 17.9167 7.35315 17.5616 6.25 16.9413" stroke="#494A4C" stroke-width="1.5"/>
<path d="M12.5 4.16669C12.5 5.5474 11.3807 6.66669 10 6.66669C8.61929 6.66669 7.5 5.5474 7.5 4.16669C7.5 2.78598 8.61929 1.66669 10 1.66669C11.3807 1.66669 12.5 2.78598 12.5 4.16669Z" stroke="#494A4C" stroke-width="1.5"/>
<ellipse cx="4.16666" cy="15.8333" rx="2.5" ry="2.5" stroke="#494A4C" stroke-width="1.5"/>
<circle cx="15.8333" cy="15.8333" r="2.5" stroke="#494A4C" stroke-width="1.5"/>
</g>
<defs>
<clipPath id="clip0_3366_5176">
<rect width="20" height="20" fill="white"/>
</clipPath>
</defs>
</svg>
