<svg width="118" height="90" viewBox="0 0 118 90" fill="none" xmlns="http://www.w3.org/2000/svg">
<path d="M89.8762 81.9236C93.2959 81.9236 96.0681 76.2673 96.0681 69.2898C96.0681 62.3123 93.2959 56.6559 89.8762 56.6559C86.4565 56.6559 83.6843 62.3123 83.6843 69.2898C83.6843 76.2673 86.4565 81.9236 89.8762 81.9236Z" fill="#090814"/>
<path d="M89.3044 89.9695C91.7843 75.0906 89.3299 60.2654 89.3044 60.1176L88.822 60.1993C88.8475 60.3464 91.2877 75.0937 88.822 89.8892L89.3044 89.9695Z" fill="#CACACA"/>
<path d="M84.4242 66.5736L84.1934 67.0051L89.7925 70L90.0233 69.5685L84.4242 66.5736Z" fill="#CACACA"/>
<path d="M95.702 68.0738L90.1036 71.0704L90.3345 71.5018L95.933 68.5052L95.702 68.0738Z" fill="#CACACA"/>
<path d="M104.753 74.0053C111.442 74.0053 116.864 62.9421 116.864 49.295C116.864 35.6478 111.442 24.5847 104.753 24.5847C98.0649 24.5847 92.6428 35.6478 92.6428 49.295C92.6428 62.9421 98.0649 74.0053 104.753 74.0053Z" fill="#E6E6E6"/>
<path d="M103.404 89.7034C108.248 60.6404 103.453 31.6831 103.404 31.3941L102.922 31.4758C102.971 31.7642 107.752 60.6435 102.922 89.6231L103.404 89.7034Z" fill="#CACACA"/>
<path d="M93.9802 44.1879L93.7494 44.6194L104.701 50.4772L104.932 50.0457L93.9802 44.1879Z" fill="#CACACA"/>
<path d="M116.259 47.121L105.309 52.9819L105.54 53.4133L116.49 47.5524L116.259 47.121Z" fill="#CACACA"/>
<path d="M76.6268 89.781H12.2097C11.9728 89.7808 11.7457 89.6865 11.5781 89.519C11.4106 89.3515 11.3164 89.1243 11.3161 88.8874V48.1838C11.3164 47.9469 11.4106 47.7197 11.5781 47.5522C11.7457 47.3847 11.9728 47.2904 12.2097 47.2902H76.6268C76.8637 47.2904 77.0908 47.3847 77.2584 47.5522C77.4259 47.7197 77.5201 47.9469 77.5204 48.1838V88.8874C77.5201 89.1243 77.4258 89.3515 77.2583 89.519C77.0908 89.6865 76.8637 89.7807 76.6268 89.781Z" fill="#E4E4E4"/>
<path d="M18.1341 52.2226C18.0326 52.2226 17.9352 52.2629 17.8633 52.3348C17.7915 52.4066 17.7512 52.504 17.7512 52.6056V84.4658C17.7512 84.5674 17.7915 84.6648 17.8633 84.7367C17.9352 84.8085 18.0326 84.8488 18.1341 84.8488H70.7027C70.8043 84.8488 70.9017 84.8085 70.9735 84.7367C71.0453 84.6648 71.0857 84.5674 71.0857 84.4658V52.6056C71.0857 52.504 71.0453 52.4066 70.9735 52.3348C70.9017 52.2629 70.8043 52.2226 70.7027 52.2226H18.1341Z" fill="white"/>
<path d="M71.2134 60.4285V58.4096H63.7792V52.0949H61.7603V58.4096H48.5252V52.0949H46.5064V58.4096H26.0928V52.0949H24.0739V58.4096H17.015V60.4285H24.0738V68.2796H17.015V70.2985H24.0738V78.7113H17.015V80.7302H34.9536V84.9763H36.9725V80.7299H46.5062V84.9763H48.5251V80.7299H71.2134V78.7109H48.5252V70.2982H71.2134V68.2799H63.7792V60.4288L71.2134 60.4285ZM46.5064 60.4285V62.8961H26.0928V60.4285H46.5064ZM26.0928 64.9146H46.5064V68.2795H26.0928V64.9146ZM26.0928 78.7105V70.2978H34.9537V78.7105H26.0928ZM46.5064 78.7105H36.9725V70.2978H46.5062L46.5064 78.7105ZM61.7604 68.2795H48.5252V60.4284H61.7603L61.7604 68.2795Z" fill="#E6E6E6"/>
<path d="M47.5158 72.1245C48.9405 72.1245 50.0955 70.9695 50.0955 69.5447C50.0955 68.12 48.9405 66.965 47.5158 66.965C46.091 66.965 44.936 68.12 44.936 69.5447C44.936 70.9695 46.091 72.1245 47.5158 72.1245Z" fill="#7795FF"/>
<path d="M117.093 90H0.856934V89.7214H117.143L117.093 90Z" fill="#CACACA"/>
<path d="M47.825 54.2198C56.6137 54.2198 63.7384 47.0952 63.7384 38.3064C63.7384 29.5177 56.6137 22.393 47.825 22.393C39.0362 22.393 31.9116 29.5177 31.9116 38.3064C31.9116 47.0952 39.0362 54.2198 47.825 54.2198Z" fill="#7795FF"/>
<path d="M47.6194 64.1754L42.5919 55.5872L37.5645 46.999L47.5158 46.9391L57.4671 46.8793L52.5426 55.5273L47.6194 64.1754Z" fill="#7795FF"/>
<path d="M47.9526 43.9156C51.1059 43.9156 53.6621 41.3594 53.6621 38.2062C53.6621 35.0529 51.1059 32.4967 47.9526 32.4967C44.7994 32.4967 42.2432 35.0529 42.2432 38.2062C42.2432 41.3594 44.7994 43.9156 47.9526 43.9156Z" fill="white"/>
<path d="M47.4569 0.0817747C47.4569 0.0817747 44.0517 -0.87746 43.0446 3.77471C42.0375 8.42689 42.6772 7.84067 42.6772 7.84067L50.2788 6.95344C50.2788 6.95344 52.5646 1.4965 47.4569 0.0817747Z" fill="#090814"/>
<path d="M42.5048 20.4906C42.5048 20.4906 37.3675 20.7284 38.2571 22.7449C38.32 22.8875 38.3786 23.021 38.4328 23.1455C39.0687 24.6061 39.8007 26.023 40.624 27.3868L43.7814 32.6183L44.9303 31.98L41.6971 23.5752L44.6032 23.338L42.5048 20.4906Z" fill="#FFB6B6"/>
<path d="M48.5956 5.79669C48.5956 5.79669 49.0701 8.28771 49.4853 8.6435C49.9004 8.99929 46.3419 9.53316 46.3419 9.53316C46.3419 9.53316 46.8757 7.8132 46.2233 6.92354C45.571 6.03388 48.5956 5.79669 48.5956 5.79669Z" fill="#FFB9B9"/>
<path d="M56.0499 22.6263L57.7105 26.2442C57.7105 26.2442 58.956 27.4897 60.3201 32.4717C61.6843 37.4538 61.9807 37.2758 61.9807 37.2758L60.6324 37.7249L55.1009 27.6677L52.3727 24.2278L53.2025 22.3895L56.0499 22.6263Z" fill="#FFB6B6"/>
<path d="M54.0334 18.4747L56.4198 22.9163C56.4198 22.9163 60.7938 31.6505 60.2346 31.6152C59.606 31.5755 58.1466 32.3152 57.6048 33.0264C57.3431 33.3697 54.2499 26.8732 52.9069 24.9988L50 22.7449C50 22.7449 41.7486 24.1338 41.7385 23.6821C41.7335 23.4609 43.6936 27.4962 43.132 27.261C42.4922 26.9929 41.2747 28.4687 40.6111 28.1988C40.3373 28.0875 38.8921 24.4976 38.109 22.5757C38.0108 22.3358 38.0057 22.0678 38.0947 21.8243C38.1837 21.5808 38.3605 21.3793 38.5903 21.2594C39.1788 20.953 47.3557 19.0862 47.3557 19.0862L47.2127 18.3559L47.8059 17.1699L54.0334 18.4747Z" fill="#090814"/>
<path d="M49.1401 5.38174C49.3448 4.12076 48.4884 2.93266 47.2274 2.72804C45.9665 2.52342 44.7784 3.37977 44.5737 4.64075C44.3691 5.90173 45.2255 7.08983 46.4864 7.29444C47.7474 7.49906 48.9355 6.64271 49.1401 5.38174Z" fill="#FFB6B6"/>
<path d="M54.2494 18.831C54.3771 19.214 53.55 19.4343 52.3969 19.219C51.3994 19.0327 50.3075 18.8115 49.4463 18.6324C48.5241 18.4402 47.8651 18.2966 47.8651 18.2966C47.8651 18.2966 47.628 19.7794 46.8566 19.6014C46.1928 19.4482 44.2073 12.5147 43.6705 10.5984C43.6313 10.4584 43.6388 10.3095 43.692 10.1743C43.7453 10.0391 43.8412 9.92493 43.9653 9.84926L46.6917 8.18445C46.6917 8.18445 48.5706 7.53913 49.2556 7.52062C49.9406 7.50211 51.1269 7.32428 51.1269 7.32428C51.1269 7.32428 52.4909 7.44288 52.7282 8.45113C52.9655 9.45939 53.9554 15.4374 53.9737 16.873C53.9941 18.448 53.8664 17.6821 54.2494 18.831Z" fill="#D6D6E3"/>
<path d="M47.7218 2.04034C47.7218 2.04034 46.7626 4.58217 44.4126 5.63728L44.0289 3.38269L47.7218 2.04034Z" fill="#2F2E41"/>
<path d="M49.1107 4.74465C49.2909 4.74465 49.4369 4.46585 49.4369 4.12193C49.4369 3.77801 49.2909 3.49921 49.1107 3.49921C48.9306 3.49921 48.7845 3.77801 48.7845 4.12193C48.7845 4.46585 48.9306 4.74465 49.1107 4.74465Z" fill="#FFB6B6"/>
<path d="M48.5917 24.3742C48.7054 24.2472 48.7899 24.0968 48.8393 23.9336C48.8886 23.7704 48.9016 23.5984 48.8772 23.4296C48.8529 23.2609 48.7918 23.0995 48.6984 22.9569C48.6049 22.8143 48.4814 22.6939 48.3364 22.6042L46.2736 12.1839L43.9048 13.0903L46.6774 23.0477C46.5422 23.3014 46.5049 23.5959 46.5726 23.8753C46.6403 24.1547 46.8082 24.3995 47.0446 24.5632C47.2809 24.7268 47.5691 24.798 47.8544 24.7631C48.1398 24.7283 48.4024 24.5898 48.5923 24.374L48.5917 24.3742Z" fill="#FFB6B6"/>
<path d="M46.7958 13.9401L44.1947 14.3983C44.1207 14.4112 44.0448 14.4081 43.9721 14.3891C43.8995 14.3701 43.8317 14.3357 43.7735 14.2882C43.7153 14.2407 43.6681 14.1812 43.6349 14.1138C43.6017 14.0464 43.5834 13.9727 43.5813 13.8976L43.5096 11.2654C43.477 11.0774 43.4818 10.885 43.5237 10.6989C43.5656 10.5128 43.6437 10.3368 43.7535 10.1809C43.8634 10.025 44.0029 9.8923 44.1641 9.79032C44.3253 9.68835 44.505 9.61912 44.6929 9.58659C44.8808 9.55406 45.0733 9.55886 45.2594 9.60072C45.4455 9.64259 45.6215 9.72069 45.7774 9.83057C45.9333 9.94046 46.066 10.08 46.168 10.2411C46.2699 10.4023 46.3392 10.582 46.3717 10.7699L47.2015 13.2599C47.2251 13.3313 47.2332 13.4068 47.225 13.4815C47.2168 13.5562 47.1927 13.6283 47.1542 13.6928C47.1157 13.7573 47.0638 13.8128 47.0019 13.8555C46.9401 13.8982 46.8698 13.927 46.7958 13.9401Z" fill="#D6D6E3"/>
<path d="M50.586 24.1912C50.7344 24.1074 50.8627 23.992 50.9618 23.8532C51.0608 23.7145 51.1283 23.5557 51.1593 23.388C51.1904 23.2204 51.1843 23.048 51.1415 22.8829C51.0988 22.7179 51.0203 22.5642 50.9117 22.4328L52.2993 11.9009L49.7648 11.9997L49.1979 22.3208C48.9887 22.5178 48.8591 22.7847 48.8337 23.0709C48.8083 23.3571 48.8888 23.6426 49.0601 23.8734C49.2313 24.1041 49.4813 24.2639 49.7626 24.3225C50.0438 24.3811 50.3369 24.3344 50.586 24.1912Z" fill="#FFB6B6"/>
<path d="M52.2306 13.7318L49.62 13.3317C49.5457 13.3202 49.4748 13.2929 49.4121 13.2516C49.3493 13.2103 49.2962 13.156 49.2563 13.0923C49.2164 13.0287 49.1907 12.9572 49.1809 12.8827C49.1711 12.8082 49.1774 12.7325 49.1995 12.6607L49.9755 10.1445C50.035 9.76397 50.2432 9.42262 50.5543 9.19558C50.8655 8.96854 51.2541 8.87439 51.6346 8.93386C52.0152 8.99333 52.3565 9.20154 52.5836 9.51269C52.8106 9.82384 52.9048 10.2124 52.8453 10.593L52.8325 13.2175C52.8321 13.2927 52.8154 13.3668 52.7838 13.4349C52.7521 13.5031 52.7062 13.5636 52.649 13.6123C52.5919 13.6611 52.5249 13.697 52.4527 13.7176C52.3805 13.7383 52.3046 13.7431 52.2304 13.7318H52.2306Z" fill="#D6D6E3"/>
<path d="M44.1272 32.4336C44.1272 32.4336 43.112 31.8373 43.0041 32.9104L42.7884 35.0564C42.7884 35.0564 41.2768 36.7253 42.5743 36.7377C43.8719 36.7502 45.6906 34.3214 45.6906 34.3214C45.6906 34.3214 47.0109 32.4356 46.5309 32.2417C46.051 32.0477 44.6603 31.1141 44.6912 31.4984C44.7221 31.8826 44.1272 32.4336 44.1272 32.4336Z" fill="#090814"/>
<path d="M61.9843 37.0273C61.9843 37.0273 60.6278 36.6786 60.3177 37.2211C60.0077 37.7637 60.0851 39.5466 60.0851 39.5853C60.0851 39.6239 60.5503 40.0122 60.706 40.0122C60.8616 40.0122 61.8294 41.7562 63.1477 41.1356C64.466 40.5149 61.9843 37.0273 61.9843 37.0273Z" fill="#090814"/>
</svg>
