<svg width="34" height="34" viewBox="0 0 34 34" fill="none" xmlns="http://www.w3.org/2000/svg">
<path opacity="0.2" fill-rule="evenodd" clip-rule="evenodd" d="M28.486 28.4875C27.521 29.4525 26.268 29.945 24.4954 30.1964L3.80729 9.46844C4.15607 8.33458 4.98515 5.95603 5.51126 5.51261C7.48218 3.54169 10.6543 3.54169 16.9987 3.54169C23.343 3.54169 26.5152 3.54169 28.486 5.51261C30.4571 7.48355 30.4571 10.6557 30.4571 17C30.4571 23.3443 30.4571 26.5165 28.486 28.4875ZM20.5404 19.8334C20.8727 19.8334 21.1921 19.7047 21.4309 19.4747C21.5978 19.314 21.7688 19.1517 21.9419 18.9876C24.0438 16.9939 26.4401 14.721 25.1208 11.5485C24.3477 9.68954 22.492 8.50002 20.5404 8.50002C18.5888 8.50002 16.7331 9.68954 15.96 11.5485C14.6459 14.7083 17.0159 16.9642 19.1064 18.9543C19.2906 19.1297 19.4726 19.303 19.6499 19.4747C19.8887 19.7047 20.208 19.8334 20.5404 19.8334Z" fill="#3560FB"/>
<path d="M21.4323 19.4746C21.1934 19.7047 20.8741 19.8333 20.5418 19.8333C20.2094 19.8333 19.8901 19.7047 19.6512 19.4746C17.4635 17.3547 14.5316 14.9866 15.9614 11.5485C16.7345 9.68952 18.5902 8.5 20.5418 8.5C22.4934 8.5 24.3491 9.68952 25.1221 11.5485C26.5501 14.9822 23.6254 17.362 21.4323 19.4746Z" stroke="#3560FB" stroke-width="1.875"/>
<path d="M3.54167 17C3.54167 10.6557 3.54167 7.48355 5.51259 5.51261C7.48353 3.54169 10.6557 3.54169 17 3.54169C23.3443 3.54169 26.5165 3.54169 28.4875 5.51261C30.4583 7.48355 30.4583 10.6557 30.4583 17C30.4583 23.3443 30.4583 26.5165 28.4875 28.4875C26.5165 30.4584 23.3443 30.4584 17 30.4584C10.6557 30.4584 7.48353 30.4584 5.51259 28.4875C3.54167 26.5165 3.54167 23.3443 3.54167 17Z" stroke="#3560FB" stroke-width="1.875"/>
<path d="M22.6667 29.75L4.25 11.3333" stroke="#3560FB" stroke-width="1.875" stroke-linecap="round" stroke-linejoin="round"/>
<path d="M13.4583 20.5417L5.66667 28.3334" stroke="#3560FB" stroke-width="1.875" stroke-linecap="round" stroke-linejoin="round"/>
<path d="M20.7187 13.4584H20.5417M20.8958 13.4584C20.8958 13.654 20.7373 13.8125 20.5417 13.8125C20.346 13.8125 20.1875 13.654 20.1875 13.4584C20.1875 13.2628 20.346 13.1042 20.5417 13.1042C20.7373 13.1042 20.8958 13.2628 20.8958 13.4584Z" stroke="#3560FB" stroke-width="1.875" stroke-linecap="round" stroke-linejoin="round"/>
</svg>
