<svg width="18" height="18" viewBox="0 0 18 18" fill="none" xmlns="http://www.w3.org/2000/svg">
<path d="M10.125 11.25H4.5C3.08578 11.25 2.37868 11.25 1.93934 10.8106C1.5 10.3713 1.5 9.6642 1.5 8.25V5.25C1.5 3.83579 1.5 3.12868 1.93934 2.68934C2.37868 2.25 3.08578 2.25 4.5 2.25H13.5C14.9142 2.25 15.6213 2.25 16.0606 2.68934C16.5 3.12868 16.5 3.83579 16.5 5.25V9C16.5 9.69893 16.5 10.0483 16.3858 10.324C16.2336 10.6915 15.9415 10.9836 15.574 11.1359C15.2983 11.25 14.9489 11.25 14.25 11.25" stroke="#727478" stroke-width="1.5" stroke-linecap="round" stroke-linejoin="round"/>
<path d="M10.5 6.75C10.5 7.57838 9.82845 8.25 9 8.25C8.17155 8.25 7.5 7.57838 7.5 6.75C7.5 5.92157 8.17155 5.25 9 5.25C9.82845 5.25 10.5 5.92157 10.5 6.75Z" stroke="#727478" stroke-width="1.5" stroke-linecap="round" stroke-linejoin="round"/>
<path d="M9.75 12.75C9.75 11.5073 10.7573 10.5 12 10.5V9C12 7.75732 13.0073 6.75 14.25 6.75V10.875C14.25 12.6259 14.25 13.5014 13.8958 14.1642C13.6161 14.6875 13.1875 15.1161 12.6642 15.3958C12.0014 15.75 11.1259 15.75 9.375 15.75H9C7.60215 15.75 6.90326 15.75 6.35195 15.5216C5.61686 15.2171 5.03285 14.6331 4.72836 13.898C4.5 13.3467 4.5 12.6479 4.5 11.25" stroke="#727478" stroke-width="1.5" stroke-linecap="round" stroke-linejoin="round"/>
</svg>
