<svg width="17" height="18" viewBox="0 0 17 18" fill="none" xmlns="http://www.w3.org/2000/svg">
<path d="M6.78717 7.40592C7.22601 7.40592 7.58177 7.7513 7.58177 8.17734V13.1143C7.58166 13.5402 7.22595 13.8857 6.78717 13.8857C6.34839 13.8857 5.99268 13.5402 5.99257 13.1143V8.17734C5.99257 7.7513 6.34833 7.40592 6.78717 7.40592Z" fill="#151720"/>
<path d="M10.2128 7.40592C10.6514 7.40619 11.0074 7.75146 11.0074 8.17734V13.1143C11.0073 13.5401 10.6514 13.8854 10.2128 13.8857C9.77405 13.8857 9.41834 13.5402 9.41823 13.1143V8.17734C9.41823 7.7513 9.77399 7.40592 10.2128 7.40592Z" fill="#151720"/>
<path fill-rule="evenodd" clip-rule="evenodd" d="M10.2118 0C10.874 0 11.5113 0.252781 11.982 0.705134C12.4529 1.15773 12.7186 1.77332 12.7187 2.41674V3.29163H16.2054C16.644 3.29188 17 3.63716 17 4.06306C17 4.48893 16.644 4.83424 16.2054 4.83449H15.2877V15.5833C15.2876 16.2267 15.0209 16.8423 14.55 17.2949C14.0794 17.747 13.4428 17.9999 12.7808 18H4.21922C3.55702 17.9999 2.91963 17.7472 2.44897 17.2949C1.97825 16.8423 1.71242 16.2266 1.71231 15.5833V4.83449H0.794596C0.355774 4.83449 3.49452e-05 4.48908 0 4.06306C0 3.63701 0.355753 3.29163 0.794596 3.29163H4.28026V2.41674C4.28037 1.77336 4.54714 1.15772 5.01795 0.705134C5.48851 0.252934 6.12517 0.000164213 6.78717 0H10.2118ZM3.3015 15.5833C3.30161 15.8123 3.39649 16.0336 3.5674 16.198C3.73884 16.3628 3.97337 16.4571 4.21922 16.4571H12.7808C13.0265 16.4571 13.2612 16.3627 13.4326 16.198C13.6035 16.0336 13.6984 15.8123 13.6985 15.5833V4.83449H3.3015V15.5833ZM6.78717 1.54286C6.54146 1.54302 6.3067 1.63732 6.13535 1.80201C5.96458 1.96643 5.86956 2.18777 5.86945 2.41674V3.29163H11.1295V2.41674C11.1294 2.18756 11.0347 1.96648 10.8636 1.80201C10.6921 1.63726 10.4577 1.54286 10.2118 1.54286H6.78717Z" fill="#151720"/>
</svg>
