<svg width="49" height="40" viewBox="0 0 49 40" fill="none" xmlns="http://www.w3.org/2000/svg">
<path d="M24.4135 7.38022C24.0186 7.37803 23.7003 7.05609 23.7025 6.66122L23.7362 0.710911C23.7384 0.315946 24.0603 -0.00227573 24.4552 1.22609e-05C24.8501 0.00220492 25.1684 0.324145 25.1661 0.719014L25.1324 6.66932C25.1303 7.06419 24.8085 7.38242 24.4135 7.38022Z" fill="#665E66"/>
<path d="M24.5375 3.98249C24.5158 3.94541 24.4762 3.92253 24.4333 3.92224C24.3904 3.92196 24.3504 3.94446 24.3284 3.98126L16.7043 16.7048L18.4908 17.6682L29.5282 17.7306L32.0171 16.7913L24.5375 3.98249Z" fill="#AA7A63"/>
<path d="M24.5374 3.98249C24.5157 3.94541 24.4761 3.92253 24.4332 3.92224C24.3903 3.92196 24.3503 3.94446 24.3283 3.98126L23.4684 5.4163L30.1044 16.7805L32.017 16.7913L24.5374 3.98249Z" fill="#986B54"/>
<path d="M26.6847 14.9609H22.1265C21.7315 14.9609 21.4115 14.6408 21.4115 14.2459C21.4115 13.8509 21.7315 13.5309 22.1265 13.5309H26.6847C27.0796 13.5309 27.3997 13.8509 27.3997 14.2459C27.3997 14.6408 27.0796 14.9609 26.6847 14.9609Z" fill="#F4D8A5"/>
<path d="M46.3723 39.285H30.566V25.7288H46.3723V39.285Z" fill="#D8AA8B"/>
<path d="M2.43823 25.7287H18.2613V39.2849H2.43823V25.7287Z" fill="#D8AA8B"/>
<path d="M32.0619 39.2849H16.7488V19.024L17.8932 18.0707H30.458L32.0619 19.024V39.2849Z" fill="#F9F6F9"/>
<path d="M32.0618 25.7287H33.5919V39.2849H32.0618V25.7287Z" fill="#CE9875"/>
<path d="M15.2188 25.7287H16.7488V39.2849H15.2188V25.7287Z" fill="#CE9875"/>
<path d="M30.566 19.0242H32.0619V39.2851H30.566V19.0242Z" fill="#E2DFE2"/>
<path d="M33.6675 16.7484H15.1432C14.9279 16.7484 14.8177 17.0065 14.9665 17.1621L16.7488 19.0242H32.0618L33.844 17.1621C33.9929 17.0065 33.8827 16.7484 33.6675 16.7484Z" fill="#D8AA8B"/>
<path d="M32.3272 16.7484L30.149 19.0242H32.0617L33.844 17.1621C33.9928 17.0066 33.8826 16.7484 33.6673 16.7484H32.3272Z" fill="#CE9875"/>
<path d="M26.8433 38.9563H21.9674V35.7643C21.9674 34.4178 23.0589 33.3264 24.4054 33.3264C25.7518 33.3264 26.8433 34.4178 26.8433 35.7643V38.9563Z" fill="#756E78"/>
<path d="M24.4054 33.3264C24.1208 33.3264 23.8479 33.3756 23.594 33.4653C24.5414 33.7997 25.2205 34.7025 25.2205 35.7643V38.9563H26.8433V35.7643C26.8433 34.4178 25.7519 33.3264 24.4054 33.3264Z" fill="#665E66"/>
<path d="M2.43823 36.1412H16.7487V39.285H2.43823V36.1412Z" fill="#F4D8A5"/>
<path d="M15.2188 36.1412H16.7488V39.285H15.2188V36.1412Z" fill="#F1CB86"/>
<path d="M16.7489 23.4478H1.14228C0.906326 23.4478 0.715088 23.6391 0.715088 23.875V25.3017C0.715088 25.5376 0.906326 25.7288 1.14228 25.7288H16.7489V23.4478Z" fill="#AA7A63"/>
<path d="M15.2188 23.4478H16.7488V25.7288H15.2188V23.4478Z" fill="#986B54"/>
<path d="M2.91333 20.8549H5.95646V23.4476H2.91333V20.8549Z" fill="#F9F6F9"/>
<path d="M6.88578 21.5698H1.98355C1.58859 21.5698 1.26855 21.2498 1.26855 20.8548C1.26855 20.4599 1.58859 20.1398 1.98355 20.1398H6.88578C7.28074 20.1398 7.60078 20.4599 7.60078 20.8548C7.60078 21.2498 7.28074 21.5698 6.88578 21.5698Z" fill="#E2DFE2"/>
<path d="M20.0428 30.189C19.6478 30.189 19.3278 29.869 19.3278 29.474V27.8715C19.3278 27.4765 19.6478 27.1565 20.0428 27.1565C20.4377 27.1565 20.7578 27.4765 20.7578 27.8715V29.474C20.7578 29.8689 20.4377 30.189 20.0428 30.189Z" fill="#8993DA"/>
<path d="M24.4053 30.189C24.0103 30.189 23.6903 29.8689 23.6903 29.474V27.8714C23.6903 27.4765 24.0103 27.1564 24.4053 27.1564C24.8003 27.1564 25.1203 27.4765 25.1203 27.8714V29.474C25.1203 29.8688 24.8003 30.189 24.4053 30.189Z" fill="#8993DA"/>
<path d="M28.7679 30.189C28.3729 30.189 28.0529 29.8689 28.0529 29.474V27.8714C28.0529 27.4765 28.3729 27.1564 28.7679 27.1564C29.1628 27.1564 29.4829 27.4765 29.4829 27.8714V29.474C29.4829 29.8688 29.1627 30.189 28.7679 30.189Z" fill="#8993DA"/>
<path d="M5.97013 33.8119C5.57516 33.8119 5.25513 33.4919 5.25513 33.097V32.426C5.25513 32.031 5.57516 31.711 5.97013 31.711C6.36509 31.711 6.68512 32.031 6.68512 32.426V33.097C6.68512 33.4918 6.36509 33.8119 5.97013 33.8119Z" fill="#B1E4F9"/>
<path d="M9.59366 33.8119C9.1987 33.8119 8.87866 33.4919 8.87866 33.097V32.426C8.87866 32.031 9.1987 31.711 9.59366 31.711C9.98863 31.711 10.3087 32.031 10.3087 32.426V33.097C10.3087 33.4918 9.98853 33.8119 9.59366 33.8119Z" fill="#B1E4F9"/>
<path d="M13.2172 33.8119C12.8222 33.8119 12.5022 33.4919 12.5022 33.097V32.426C12.5022 32.031 12.8222 31.711 13.2172 31.711C13.6122 31.711 13.9322 32.031 13.9322 32.426V33.097C13.9322 33.4918 13.6121 33.8119 13.2172 33.8119Z" fill="#B1E4F9"/>
<path d="M5.97013 30.0092C5.57516 30.0092 5.25513 29.6892 5.25513 29.2942V28.6233C5.25513 28.2283 5.57516 27.9083 5.97013 27.9083C6.36509 27.9083 6.68512 28.2283 6.68512 28.6233V29.2942C6.68512 29.6892 6.36509 30.0092 5.97013 30.0092Z" fill="#B1E4F9"/>
<path d="M9.59366 30.0092C9.1987 30.0092 8.87866 29.6892 8.87866 29.2942V28.6233C8.87866 28.2283 9.1987 27.9083 9.59366 27.9083C9.98863 27.9083 10.3087 28.2283 10.3087 28.6233V29.2942C10.3087 29.6892 9.98853 30.0092 9.59366 30.0092Z" fill="#B1E4F9"/>
<path d="M13.2172 30.0092C12.8222 30.0092 12.5022 29.6892 12.5022 29.2942V28.6233C12.5022 28.2283 12.8222 27.9083 13.2172 27.9083C13.6122 27.9083 13.9322 28.2283 13.9322 28.6233V29.2942C13.9322 29.6892 13.6121 30.0092 13.2172 30.0092Z" fill="#B1E4F9"/>
<path d="M20.0428 24.9641C19.6478 24.9641 19.3278 24.644 19.3278 24.2491V22.6465C19.3278 22.2516 19.6478 21.9315 20.0428 21.9315C20.4377 21.9315 20.7578 22.2516 20.7578 22.6465V24.2491C20.7578 24.644 20.4377 24.9641 20.0428 24.9641Z" fill="#8993DA"/>
<path d="M24.4053 24.9641C24.0103 24.9641 23.6903 24.6441 23.6903 24.2491V22.6466C23.6903 22.2516 24.0103 21.9316 24.4053 21.9316C24.8003 21.9316 25.1203 22.2516 25.1203 22.6466V24.2491C25.1203 24.6441 24.8003 24.9641 24.4053 24.9641Z" fill="#8993DA"/>
<path d="M28.7679 24.9641C28.3729 24.9641 28.0529 24.6441 28.0529 24.2491V22.6466C28.0529 22.2516 28.3729 21.9316 28.7679 21.9316C29.1628 21.9316 29.4829 22.2516 29.4829 22.6466V24.2491C29.4829 24.6441 29.1627 24.9641 28.7679 24.9641Z" fill="#8993DA"/>
<path d="M42.8406 33.8119C42.4456 33.8119 42.1256 33.4919 42.1256 33.097V32.426C42.1256 32.031 42.4456 31.711 42.8406 31.711C43.2356 31.711 43.5556 32.031 43.5556 32.426V33.097C43.5556 33.4918 43.2356 33.8119 42.8406 33.8119Z" fill="#B1E4F9"/>
<path d="M39.217 33.8119C38.822 33.8119 38.502 33.4919 38.502 33.097V32.426C38.502 32.031 38.822 31.711 39.217 31.711C39.6119 31.711 39.932 32.031 39.932 32.426V33.097C39.932 33.4918 39.6119 33.8119 39.217 33.8119Z" fill="#B1E4F9"/>
<path d="M35.5937 33.8119C35.1987 33.8119 34.8787 33.4919 34.8787 33.097V32.426C34.8787 32.031 35.1987 31.711 35.5937 31.711C35.9886 31.711 36.3087 32.031 36.3087 32.426V33.097C36.3087 33.4918 35.9886 33.8119 35.5937 33.8119Z" fill="#B1E4F9"/>
<path d="M42.8406 30.0092C42.4456 30.0092 42.1256 29.6892 42.1256 29.2942V28.6233C42.1256 28.2283 42.4456 27.9083 42.8406 27.9083C43.2356 27.9083 43.5556 28.2283 43.5556 28.6233V29.2942C43.5556 29.6892 43.2356 30.0092 42.8406 30.0092Z" fill="#B1E4F9"/>
<path d="M39.217 30.0092C38.822 30.0092 38.502 29.6892 38.502 29.2942V28.6233C38.502 28.2283 38.822 27.9083 39.217 27.9083C39.6119 27.9083 39.932 28.2283 39.932 28.6233V29.2942C39.932 29.6892 39.6119 30.0092 39.217 30.0092Z" fill="#B1E4F9"/>
<path d="M35.5937 30.0092C35.1987 30.0092 34.8787 29.6892 34.8787 29.2942V28.6233C34.8787 28.2283 35.1987 27.9083 35.5937 27.9083C35.9886 27.9083 36.3087 28.2283 36.3087 28.6233V29.2942C36.3087 29.6892 35.9886 30.0092 35.5937 30.0092Z" fill="#B1E4F9"/>
<path d="M46.3723 39.285H32.0618V36.1412H46.3723V39.285Z" fill="#F4D8A5"/>
<path d="M32.0618 36.1412H33.5919V39.285H32.0618V36.1412Z" fill="#F1CB86"/>
<path d="M32.0619 23.4478H47.6685C47.9045 23.4478 48.0957 23.6391 48.0957 23.875V25.3017C48.0957 25.5376 47.9045 25.7288 47.6685 25.7288H32.0619V23.4478Z" fill="#AA7A63"/>
<path d="M32.0618 23.4478H33.5919V25.7288H32.0618V23.4478Z" fill="#986B54"/>
<path d="M45.8972 23.4478H42.8541V20.855H45.8972V23.4478Z" fill="#F9F6F9"/>
<path d="M46.8269 21.5698H41.9247C41.5298 21.5698 41.2097 21.2498 41.2097 20.8548C41.2097 20.4599 41.5298 20.1398 41.9247 20.1398H46.8269C47.2219 20.1398 47.5419 20.4599 47.5419 20.8548C47.5419 21.2498 47.2219 21.5698 46.8269 21.5698Z" fill="#E2DFE2"/>
<path d="M48.0956 39.9999H0.714999C0.320033 39.9999 0 39.6798 0 39.2849C0 38.8899 0.320033 38.5699 0.714999 38.5699H48.0956C48.4906 38.5699 48.8106 38.8899 48.8106 39.2849C48.8106 39.6798 48.4906 39.9999 48.0956 39.9999Z" fill="#9BD069"/>
</svg>
