<svg width="20" height="20" viewBox="0 0 20 20" fill="none" xmlns="http://www.w3.org/2000/svg">
<g clip-path="url(#clip0_3366_4745)">
<path d="M6.48545 14.2593C5.56847 14.7858 3.16421 15.8609 4.62857 17.2062C5.34389 17.8634 6.14059 18.3333 7.14222 18.3333H12.8578C13.8594 18.3333 14.6561 17.8634 15.3714 17.2062C16.8358 15.8609 14.4315 14.7858 13.5145 14.2593C11.3642 13.0247 8.63576 13.0247 6.48545 14.2593Z" stroke="#494A4C" stroke-width="1.5" stroke-linecap="round" stroke-linejoin="round"/>
<path d="M12.9166 8.33332C12.9166 9.94415 11.6108 11.25 9.99998 11.25C8.38915 11.25 7.08331 9.94415 7.08331 8.33332C7.08331 6.72249 8.38915 5.41666 9.99998 5.41666C11.6108 5.41666 12.9166 6.72249 12.9166 8.33332Z" stroke="#494A4C" stroke-width="1.5"/>
<path d="M2.37833 13.3333C1.92083 12.3053 1.66666 11.1675 1.66666 9.97046C1.66666 5.38439 5.39762 1.66666 9.99999 1.66666C14.6024 1.66666 18.3333 5.38439 18.3333 9.97046C18.3333 11.1675 18.0792 12.3053 17.6217 13.3333" stroke="#494A4C" stroke-width="1.5" stroke-linecap="round"/>
</g>
<defs>
<clipPath id="clip0_3366_4745">
<rect width="20" height="20" fill="white"/>
</clipPath>
</defs>
</svg>
