<svg width="20" height="20" viewBox="0 0 20 20" fill="none" xmlns="http://www.w3.org/2000/svg">
<path d="M15.5134 16.6667H15.9219C16.8801 16.6667 17.6422 16.2301 18.3266 15.6196C20.065 14.0688 15.9784 12.5 14.5833 12.5M12.9167 4.22396C13.1059 4.18643 13.3024 4.16666 13.504 4.16666C15.0205 4.16666 16.25 5.28594 16.25 6.66666C16.25 8.04737 15.0205 9.16666 13.504 9.16666C13.3024 9.16666 13.1059 9.14688 12.9167 9.10935" stroke="#494A4C" stroke-width="1.5" stroke-linecap="round"/>
<path d="M3.73443 13.426C2.75195 13.9525 0.175948 15.0276 1.7449 16.3728C2.51133 17.03 3.36492 17.5 4.4381 17.5H10.5619C11.6351 17.5 12.4887 17.03 13.2551 16.3728C14.8241 15.0276 12.2481 13.9525 11.2656 13.426C8.96167 12.1913 6.03832 12.1913 3.73443 13.426Z" stroke="#494A4C" stroke-width="1.5"/>
<path d="M10.8333 6.24999C10.8333 8.09094 9.34095 9.58332 7.5 9.58332C5.65905 9.58332 4.16667 8.09094 4.16667 6.24999C4.16667 4.40904 5.65905 2.91666 7.5 2.91666C9.34095 2.91666 10.8333 4.40904 10.8333 6.24999Z" stroke="#494A4C" stroke-width="1.5"/>
</svg>
