<svg width="20" height="20" viewBox="0 0 20 20" fill="none" xmlns="http://www.w3.org/2000/svg">
<path d="M2.5 12.5512V5C4.25392 5.51778 7.98016 6.18893 12.5031 6.50234C14.9376 6.67104 16.1549 6.75539 16.8274 7.48073C17.5 8.20608 17.5 9.37478 17.5 11.7122V13.3902C17.5 15.7972 17.5 17.0006 16.6802 17.7498C15.8604 18.4989 14.7433 18.3898 12.5089 18.1715C11.4413 18.0672 10.3123 17.9242 9.16667 17.7313" stroke="#494A4C" stroke-width="1.5" stroke-linecap="round" stroke-linejoin="round"/>
<path d="M14.6882 6.66672C15.0029 5.48066 15.2877 3.32357 14.4392 2.25248C13.9013 1.57361 13.1019 1.63883 12.3182 1.70776C8.19826 2.0701 5.28787 2.80614 3.66084 3.3062C2.96123 3.52122 2.5 4.2044 2.5 4.96708" stroke="#494A4C" stroke-width="1.5" stroke-linejoin="round"/>
<path d="M12.5 12.5C12.5 13.1904 13.0596 13.75 13.75 13.75C14.4404 13.75 15 13.1904 15 12.5C15 11.8096 14.4404 11.25 13.75 11.25C13.0596 11.25 12.5 11.8096 12.5 12.5Z" stroke="#494A4C" stroke-width="1.5"/>
<path d="M2.5 15.8333C2.5 15.8333 3.33333 15.8333 4.16667 17.5C4.16667 17.5 6.81373 13.3333 9.16667 12.5" stroke="#494A4C" stroke-width="1.5" stroke-linecap="round" stroke-linejoin="round"/>
</svg>
