<svg width="12" height="12" viewBox="0 0 12 12" fill="none" xmlns="http://www.w3.org/2000/svg">
<path opacity="0.4" d="M5.9122 0.628285C5.97065 0.623905 6.02935 0.623905 6.0878 0.628285C6.3396 0.647155 6.54365 0.760775 6.7301 0.906645C6.90545 1.04385 7.09945 1.23786 7.32635 1.46478L7.67735 1.77829C7.67735 1.77829 7.9107 1.81697 8.23365 1.81697C8.58925 1.81695 8.8932 1.81693 9.1361 1.84959C9.39545 1.88446 9.64055 1.96263 9.83895 2.16103C10.0373 2.35943 10.1156 2.60455 10.1504 2.8639C10.183 3.10679 10.183 3.41074 10.183 3.76634L10.2095 4.29328L10.5352 4.67363C10.7621 4.90053 10.9562 5.09455 11.0933 5.2699C11.2393 5.45635 11.3528 5.6604 11.3717 5.9122C11.3761 5.97065 11.3761 6.02935 11.3717 6.0878C11.3528 6.3396 11.2393 6.54365 11.0933 6.7301C10.9562 6.90545 10.7621 7.09945 10.5352 7.32635L10.2095 7.7067L10.183 8.23365C10.183 8.58925 10.183 8.8932 10.1504 9.1361C10.1156 9.39545 10.0373 9.64055 9.83895 9.83895C9.64055 10.0373 9.39545 10.1156 9.1361 10.1504C8.8932 10.183 8.58925 10.183 8.23365 10.183L7.7067 10.2095L7.32635 10.5352C7.09945 10.7621 6.90545 10.9562 6.7301 11.0933C6.54365 11.2393 6.3396 11.3528 6.0878 11.3717C6.02935 11.3761 5.97065 11.3761 5.9122 11.3717C5.6604 11.3528 5.45635 11.2393 5.2699 11.0933C5.09455 10.9562 4.90055 10.7621 4.67366 10.5352L4.29328 10.2095L3.76634 10.183C3.41074 10.183 3.10679 10.183 2.8639 10.1504C2.60455 10.1156 2.35943 10.0373 2.16103 9.83895C1.96263 9.64055 1.88446 9.39545 1.84959 9.1361C1.81693 8.8932 1.81695 8.58925 1.81697 8.23365L1.79044 7.7067L1.46478 7.32635C1.23786 7.09945 1.04385 6.90545 0.906645 6.7301C0.760775 6.54365 0.647155 6.3396 0.628285 6.0878C0.623905 6.02935 0.623905 5.97065 0.628285 5.9122C0.647155 5.6604 0.760775 5.45635 0.906645 5.2699C1.04385 5.09455 1.23786 4.90054 1.46477 4.67365L1.79044 4.29328L1.81697 3.76634C1.81695 3.41073 1.81693 3.10679 1.84959 2.8639C1.88446 2.60455 1.96263 2.35943 2.16103 2.16103C2.35943 1.96263 2.60455 1.88446 2.8639 1.84959C3.10679 1.81693 3.41073 1.81695 3.76634 1.81697C4.08932 1.81697 4.29328 1.79044 4.29328 1.79044L4.67365 1.46478C4.90054 1.23786 5.09455 1.04385 5.2699 0.906645C5.45635 0.760775 5.6604 0.647155 5.9122 0.628285Z" fill="#3560FB"/>
<path d="M3.875 6C3.875 4.82639 4.82639 3.875 6 3.875C7.1736 3.875 8.125 4.82639 8.125 6C8.125 7.1736 7.1736 8.125 6 8.125C4.82639 8.125 3.875 7.1736 3.875 6Z" fill="#3560FB"/>
</svg>
