<svg width="20" height="20" viewBox="0 0 20 20" fill="none" xmlns="http://www.w3.org/2000/svg">
<path d="M9.99999 0.600001C11.88 0.600001 13.71 1.16 15.26 2.21001C16.77 3.23001 17.96 4.67001 18.67 6.35001C19.91 9.27999 19.58 12.63 17.8 15.26C16.78 16.77 15.34 17.96 13.66 18.67C10.73 19.91 7.37999 19.58 4.75 17.8C3.24 16.78 2.05 15.34 1.34 13.66C0.1 10.73 0.43 7.37999 2.21 4.75001C3.23 3.24001 4.67001 2.05001 6.35 1.34C7.49999 0.850005 8.74999 0.600001 9.99999 0.600001ZM9.99999 0C4.48 0 0 4.48001 0 9.99999C0 15.52 4.48 20 9.99999 20C15.52 20 20 15.52 20 9.99999C20 4.48001 15.52 0 9.99999 0Z" fill="#151720"/>
<path d="M1.67029 9.99985C1.67029 13.1898 3.49029 16.1099 6.37029 17.4999L2.39029 6.60987C1.91029 7.67984 1.67029 8.82985 1.67029 9.99985ZM15.6303 9.57985C15.6303 8.54985 15.2603 7.83984 14.9403 7.27987C14.6203 6.71987 14.1203 6.00987 14.1203 5.32987C14.1203 4.64987 14.7003 3.84987 15.5203 3.84987H15.6303C12.2403 0.739868 6.97029 0.969868 3.86029 4.36987C3.56029 4.69987 3.28029 5.04987 3.04029 5.41987H3.58029C4.45029 5.41987 5.80029 5.30987 5.80029 5.30987C6.25029 5.27987 6.30029 5.93987 5.85029 5.99987C5.85029 5.99987 5.40029 6.04987 4.90029 6.07987L7.93029 15.1099L9.75029 9.63985L8.45029 6.07987C8.00029 6.04987 7.58029 5.99987 7.58029 5.99987C7.13029 5.96987 7.18029 5.28987 7.63029 5.30987C7.63029 5.30987 9.01029 5.41987 9.82029 5.41987C10.6303 5.41987 12.0403 5.30987 12.0403 5.30987C12.4903 5.27987 12.5403 5.93987 12.0903 5.99987C12.0903 5.99987 11.6403 6.04987 11.1403 6.07987L14.1503 15.0399L15.0103 12.3198C15.3903 11.1298 15.6203 10.2898 15.6203 9.56985L15.6303 9.57985ZM10.1403 10.7198L7.64029 17.9899C9.32029 18.4799 11.1103 18.4399 12.7603 17.8599L12.7003 17.7499L10.1403 10.7198ZM17.3103 5.99987C17.3503 6.27987 17.3703 6.56987 17.3703 6.85987C17.3703 7.70984 17.2103 8.65985 16.7403 9.83985L14.1903 17.1999C18.0903 14.9298 19.4803 9.95985 17.3103 5.99987Z" fill="#151720"/>
</svg>
