<svg width="800" height="792" viewBox="0 0 800 792" fill="none" xmlns="http://www.w3.org/2000/svg">
<path d="M400 0C179.5 0 0 177.573 0 396C0 614.295 179.5 792 400 792C620.5 792 800 614.295 800 396C800 177.54 620.5 0 400 0ZM40.3333 395.967C40.3333 344.388 51.4333 295.383 71.4667 251.13L243.067 716.43C123.033 658.647 40.3333 536.844 40.3333 395.967ZM400 752.07C364.667 752.07 330.633 746.955 298.4 737.517L406.3 427.119L516.8 726.99C517.6 728.772 518.433 730.323 519.367 731.94C482.1 744.876 441.933 752.07 400 752.07ZM449.5 229.185V229.152C471.1 228.03 490.6 225.819 490.6 225.819C509.967 223.575 507.7 195.327 488.333 196.416C488.333 196.416 430.1 200.871 392.533 200.871C357.2 200.871 297.833 196.416 297.833 196.416C278.5 195.294 276.267 224.697 295.6 225.819C295.6 225.819 313.967 228.063 333.333 229.152L389.3 381.15L310.6 614.757L179.667 229.152C201.3 228.03 220.8 225.819 220.8 225.819C240.167 223.575 237.9 195.327 218.533 196.416C218.533 196.416 160.3 200.871 122.733 200.871C115.967 200.871 108.033 200.706 99.5 200.409C163.867 103.785 274.333 39.93 400 39.93C493.567 39.93 578.867 75.405 642.9 133.32C641.267 133.155 639.833 133.023 638.233 133.023C602.9 133.023 577.9 163.515 577.9 196.251C577.9 225.621 595 250.371 613.233 279.774C626.933 303.402 642.933 333.894 642.933 377.982C642.933 408.474 631.167 443.751 615.5 493.119L579.667 611.754L449.5 229.185ZM715.667 225.159C743.733 275.946 759.7 334.059 759.7 396.033C759.7 527.439 687.767 642.081 580.833 703.725L580.8 703.692L690.633 389.268C711.1 338.481 718.067 297.957 718.067 261.69C718.067 248.622 717.267 236.478 715.667 225.159Z" fill="url(#paint0_linear_8562_1572)"/>
<defs>
<linearGradient id="paint0_linear_8562_1572" x1="400" y1="0" x2="400" y2="792" gradientUnits="userSpaceOnUse">
<stop stop-color="#E9EAF1"/>
<stop offset="1" stop-color="#E9EAF1" stop-opacity="0"/>
</linearGradient>
</defs>
</svg>
