<svg width="14" height="15" viewBox="0 0 14 15" fill="none" xmlns="http://www.w3.org/2000/svg">
<g clip-path="url(#clip0_1374_8554)">
<path d="M8.3002 6.09995C8.3002 6.49995 8.6002 6.89995 9.1002 6.89995C9.6002 6.89995 9.9002 6.59995 9.9002 6.09995C9.9002 4.89995 9.0002 3.99995 7.9002 3.99995C7.9002 3.49995 7.6002 3.19995 7.1002 3.19995C6.6002 3.19995 6.3002 3.49995 6.3002 3.99995C5.2002 3.99995 4.4002 4.89995 4.4002 5.99995C4.4002 7.09995 4.8002 7.59995 5.7002 7.89995L6.4002 8.09995V9.59995C6.1002 9.59995 5.9002 9.29995 5.9002 8.99995C5.9002 8.69995 5.6002 8.19995 5.1002 8.19995C4.6002 8.19995 4.3002 8.49995 4.3002 8.99995C4.3002 10.2 5.2002 11.1 6.3002 11.1C6.3002 11.6 6.6002 11.9 7.1002 11.9C7.6002 11.9 7.9002 11.6 7.9002 11.1C9.0002 11.1 9.8002 10.2 9.8002 9.09995C9.8002 7.99995 9.4002 7.49995 8.5002 7.19995L7.8002 6.99995V5.49995C8.1002 5.49995 8.3002 5.79995 8.3002 6.09995ZM6.2002 6.39995H6.0002C5.8002 6.19995 5.7002 6.19995 5.7002 5.89995C5.7002 5.59995 5.9002 5.39995 6.1002 5.39995V6.39995H6.2002ZM8.0002 8.59995C8.2002 8.59995 8.3002 8.69995 8.3002 9.09995C8.3002 9.49995 8.1002 9.59995 7.9002 9.59995V8.59995H8.1002H8.0002ZM8.8002 0.699951H5.2002C1.8002 0.699951 0.200195 2.29995 0.200195 5.69995V9.29995C0.200195 12.7 1.7002 14.3 5.2002 14.3H8.8002C12.2002 14.3 13.8002 12.8 13.8002 9.29995V5.69995C13.8002 2.29995 12.2002 0.699951 8.8002 0.699951ZM12.2002 9.29995C12.2002 11.9 11.3002 12.8 8.7002 12.8H5.1002C2.5002 12.8 1.6002 11.9 1.6002 9.29995V5.69995C1.6002 3.09995 2.5002 2.19995 5.1002 2.19995H8.7002C11.3002 2.19995 12.2002 3.09995 12.2002 5.69995V9.29995Z" fill="#727377"/>
</g>
<defs>
<clipPath id="clip0_1374_8554">
<rect width="14" height="14" fill="white" transform="translate(0 0.5)"/>
</clipPath>
</defs>
</svg>
